{"glyphs":{"0":{"ha":694,"x_min":72,"x_max":697,"o":"m 447 996 q 530 974 486 996 q 611 910 574 953 q 673 804 649 867 q 697 658 697 742 q 655 392 697 514 q 548 181 613 269 q 405 41 483 92 q 256 -10 326 -10 q 176 19 211 -10 q 119 92 142 47 q 84 194 96 138 q 72 310 72 251 q 108 585 72 460 q 199 802 143 711 q 320 944 254 893 q 447 996 386 996 m 207 61 q 302 86 254 61 q 394 156 350 111 q 477 263 439 201 q 544 399 515 325 q 588 554 572 472 q 604 721 604 636 q 586 853 604 811 q 517 894 568 894 q 435 868 478 894 q 353 796 393 842 q 277 688 313 750 q 215 554 242 626 q 172 404 188 482 q 156 249 156 326 q 158 188 156 221 q 165 128 160 156 q 181 81 171 100 q 207 61 192 61 z "},"1":{"ha":694,"x_min":200,"x_max":583,"o":"m 494 1011 q 524 1001 508 1011 q 553 978 540 992 q 575 949 567 964 q 583 921 583 933 q 569 872 583 915 q 533 763 556 829 q 483 613 511 696 q 423 443 454 529 q 362 274 392 357 q 306 128 332 192 q 263 25 281 64 q 240 -14 246 -14 q 212 9 224 -14 q 200 65 200 32 q 210 133 200 86 q 238 245 221 181 q 278 386 256 310 q 326 541 301 463 q 375 694 350 619 q 422 832 400 769 q 363 805 392 818 q 310 782 333 792 q 270 767 286 772 q 253 761 254 761 q 236 769 236 761 q 253 791 236 772 q 297 837 271 810 q 353 894 322 864 q 414 951 385 925 q 465 994 443 976 q 494 1011 486 1011 z "},"2":{"ha":694,"x_min":17,"x_max":696,"o":"m 407 372 q 326 304 371 344 q 239 222 282 264 q 160 142 196 181 q 104 76 124 103 q 196 87 146 82 q 294 94 246 92 q 381 99 342 97 q 439 101 419 101 q 469 90 453 101 q 499 65 486 79 q 522 36 513 50 q 531 17 531 22 q 512 6 531 10 q 464 -1 493 1 q 401 -6 435 -4 q 338 -7 367 -7 q 250 -6 297 -7 q 163 -3 203 -4 q 94 -1 122 -3 q 63 0 65 0 q 48 9 56 0 q 33 32 40 18 q 22 63 26 46 q 17 97 17 81 q 92 234 17 140 q 315 449 168 328 q 457 573 400 518 q 549 672 514 628 q 598 753 583 717 q 613 826 613 790 q 588 899 613 878 q 518 919 564 919 q 437 908 471 919 q 378 884 403 897 q 336 860 353 871 q 307 849 319 849 q 260 864 282 849 q 238 896 238 879 q 254 931 238 911 q 300 969 271 951 q 369 999 329 986 q 454 1011 408 1011 q 555 988 510 1011 q 631 926 600 964 q 679 842 663 889 q 696 746 696 794 q 674 646 696 693 q 613 554 651 599 q 521 465 574 510 q 407 372 468 419 z "},"3":{"ha":694,"x_min":24,"x_max":685,"o":"m 685 786 q 665 679 685 728 q 615 595 644 631 q 549 538 585 560 q 481 510 513 515 q 561 401 528 465 q 594 261 594 336 q 577 160 594 208 q 526 75 560 113 q 447 15 493 38 q 342 -7 400 -7 q 220 22 278 -7 q 119 93 163 51 q 49 181 75 135 q 24 258 24 226 q 32 274 24 274 q 59 244 42 274 q 104 181 76 215 q 173 118 132 147 q 272 89 214 89 q 378 109 336 89 q 444 163 419 129 q 479 241 469 197 q 489 332 489 285 q 466 435 489 399 q 418 488 443 472 q 381 479 389 479 q 361 486 372 479 q 339 504 350 493 q 320 529 328 515 q 313 557 313 543 q 324 570 313 564 q 350 576 335 576 q 428 550 383 576 q 493 593 461 564 q 550 663 525 622 q 590 753 575 703 q 604 860 604 803 q 580 903 604 881 q 511 926 556 926 q 436 908 474 926 q 367 867 399 889 q 311 826 335 844 q 276 807 288 807 q 253 820 267 807 q 239 844 239 833 q 258 888 239 861 q 308 938 276 914 q 378 980 339 963 q 457 997 417 997 q 537 978 496 997 q 610 927 578 958 q 664 858 643 896 q 685 786 685 821 z "},"4":{"ha":694,"x_min":11,"x_max":689,"o":"m 689 349 q 674 342 689 344 q 633 338 658 340 q 572 335 607 336 q 496 335 536 335 q 456 206 475 267 q 420 99 436 144 q 392 26 404 53 q 376 -1 381 -1 q 354 9 365 -1 q 334 34 343 19 q 319 65 325 49 q 314 94 314 82 q 319 119 314 99 q 332 173 324 140 q 351 247 340 206 q 375 338 363 289 l 104 338 q 63 347 81 338 q 34 372 46 357 q 17 402 22 386 q 11 431 11 418 q 34 467 11 439 q 94 537 57 496 q 181 628 132 578 q 281 728 229 678 q 382 828 332 779 q 472 913 432 876 q 540 973 513 950 q 575 996 568 996 q 595 988 582 996 q 621 967 608 981 q 642 938 633 954 q 651 904 651 921 q 640 851 651 896 q 612 740 629 807 q 572 592 594 674 q 524 428 549 511 l 593 428 q 622 419 606 428 q 653 397 639 410 q 678 372 668 385 q 689 349 689 358 m 143 431 q 226 429 183 429 l 401 429 q 441 572 421 501 q 476 700 461 643 q 513 826 494 767 l 143 431 z "},"5":{"ha":694,"x_min":38,"x_max":704,"o":"m 704 928 q 667 903 704 913 q 578 890 629 894 q 476 885 528 886 q 399 883 425 883 l 311 669 q 422 649 365 669 q 524 588 478 628 q 600 491 571 549 q 629 358 629 433 q 608 218 629 285 q 549 101 588 151 q 457 20 511 50 q 336 -10 403 -10 q 213 15 268 -10 q 119 70 158 39 q 59 130 81 101 q 38 165 38 158 q 49 183 38 183 q 91 167 69 183 q 140 133 113 151 q 201 99 167 114 q 278 83 235 83 q 390 107 339 83 q 478 172 442 131 q 535 272 515 214 q 556 400 556 331 q 537 487 556 454 q 489 538 518 519 q 424 566 460 557 q 352 582 388 575 q 286 597 317 589 q 239 622 256 604 q 226 641 231 632 q 222 667 222 650 q 235 733 222 688 q 263 828 247 779 q 294 915 279 876 q 317 960 310 953 q 358 972 326 969 q 428 974 390 974 l 478 974 q 648 960 592 974 q 704 928 704 947 z "},"6":{"ha":694,"x_min":63,"x_max":721,"o":"m 543 993 q 613 981 581 993 q 669 951 644 968 q 707 919 693 935 q 721 896 721 903 q 706 886 721 886 q 692 894 701 886 q 668 913 682 903 q 638 933 654 924 q 604 942 622 942 q 497 897 560 942 q 369 776 433 851 q 249 604 306 701 q 164 404 193 507 q 227 505 190 460 q 303 583 264 550 q 381 633 343 615 q 451 651 419 651 q 506 638 474 651 q 567 597 538 625 q 617 525 596 568 q 638 424 638 482 q 611 290 638 365 q 542 149 585 215 q 442 38 499 83 q 326 -7 386 -7 q 215 18 264 -7 q 133 85 167 43 q 81 184 99 128 q 63 301 63 240 q 81 431 63 358 q 134 581 100 504 q 213 732 168 658 q 312 864 258 806 q 424 958 365 922 q 543 993 483 993 m 515 557 q 389 524 454 557 q 269 438 324 490 q 177 319 214 385 q 139 192 140 254 q 155 125 143 149 q 181 90 167 101 q 213 77 196 79 q 243 75 229 75 q 354 117 300 75 q 451 220 408 158 q 520 354 494 282 q 546 489 546 426 q 537 541 546 525 q 515 557 528 557 z "},"7":{"ha":694,"x_min":144,"x_max":711,"o":"m 632 993 q 656 983 642 992 q 682 964 669 975 q 703 940 694 953 q 711 917 711 926 q 688 877 711 911 q 627 787 665 843 q 538 653 589 731 q 432 482 488 575 q 313 272 361 364 q 234 118 264 181 q 190 24 204 56 q 171 -8 175 -8 q 144 28 144 -8 q 165 151 144 81 q 219 301 185 222 q 295 464 253 381 q 383 626 338 547 q 472 773 428 704 q 550 892 515 842 q 444 901 507 894 q 324 915 382 907 q 224 933 265 924 q 182 954 182 943 q 201 963 182 958 q 252 971 221 967 q 324 978 283 975 q 407 983 365 981 q 632 993 506 989 z "},"8":{"ha":694,"x_min":49,"x_max":664,"o":"m 664 804 q 647 740 664 771 q 599 678 629 708 q 531 617 569 647 q 450 556 492 586 q 494 487 472 522 q 533 413 515 451 q 560 334 550 375 q 571 247 571 293 q 551 141 571 190 q 497 56 532 92 q 415 -1 463 19 q 314 -22 368 -22 q 210 3 258 -22 q 126 69 163 29 q 69 161 90 110 q 49 265 49 213 q 74 356 49 311 q 140 447 99 401 q 231 535 181 492 q 335 618 282 578 q 288 713 307 663 q 269 821 269 763 q 288 891 269 860 q 338 944 307 922 q 408 977 369 965 q 489 989 447 989 q 551 972 519 989 q 607 928 582 954 q 648 868 632 901 q 664 804 664 835 m 500 303 q 470 414 500 361 q 401 521 440 467 q 304 446 351 485 q 220 365 257 407 q 161 276 183 324 q 139 176 139 229 q 172 94 139 124 q 263 64 206 64 q 372 89 326 64 q 446 151 418 114 q 487 228 474 188 q 500 303 500 269 m 385 656 q 460 715 424 686 q 522 768 496 743 q 565 815 549 793 q 581 857 581 838 q 554 915 581 889 q 476 940 528 940 q 424 930 450 940 q 378 901 399 919 q 346 856 358 882 q 333 800 333 831 q 347 728 333 764 q 385 656 361 693 z "},"9":{"ha":694,"x_min":36,"x_max":694,"o":"m 214 -7 q 144 6 176 -7 q 88 35 113 18 q 50 67 64 51 q 36 90 36 83 q 51 100 36 100 q 65 91 56 100 q 88 72 75 82 q 118 53 101 61 q 151 44 135 44 q 260 90 197 44 q 388 210 324 135 q 508 382 451 285 q 593 582 564 479 q 530 481 567 526 q 453 403 493 435 q 375 353 414 371 q 306 335 336 335 q 251 348 283 335 q 190 390 219 361 q 140 460 161 418 q 119 561 119 503 q 131 647 119 600 q 165 742 143 694 q 215 835 186 790 q 279 916 244 881 q 352 972 314 951 q 431 993 390 993 q 541 968 492 993 q 624 900 590 943 q 676 801 658 857 q 694 683 694 746 q 676 554 694 628 q 623 404 657 481 q 544 254 589 328 q 445 122 499 181 q 333 28 392 64 q 214 -7 274 -7 m 242 429 q 367 463 301 429 q 488 549 432 496 q 579 666 543 601 q 618 794 615 731 q 602 860 614 836 q 576 894 590 883 q 544 908 561 906 q 514 910 528 910 q 403 869 457 910 q 306 766 349 828 q 237 632 263 704 q 211 497 211 560 q 220 445 211 461 q 242 429 229 429 z "}," ":{"ha":486,"x_min":0,"x_max":0,"o":""},"d":{"ha":681,"x_min":-3,"x_max":694,"o":"m 694 358 q 683 328 694 356 q 651 260 671 300 q 605 176 631 221 q 553 92 579 131 q 501 28 526 54 q 457 3 475 3 q 428 5 449 3 q 385 20 407 7 q 347 60 364 33 q 329 138 329 88 q 336 216 329 171 q 355 314 343 261 q 382 425 367 367 q 415 542 397 483 q 383 576 400 560 q 342 592 365 592 q 256 556 300 592 q 178 465 213 521 q 121 338 143 408 q 99 194 99 267 q 106 127 99 157 q 123 76 113 97 q 144 44 133 56 q 164 33 156 33 q 208 45 188 33 q 243 71 228 57 q 269 97 258 85 q 286 108 281 108 q 289 104 289 108 q 277 83 289 100 q 247 47 265 65 q 206 13 228 28 q 164 -1 185 -1 q 124 16 151 -1 q 67 68 96 33 q 18 154 39 103 q -3 272 -3 206 q 24 443 -3 365 q 89 576 50 521 q 174 663 128 632 q 257 694 219 694 q 308 685 283 694 q 356 660 333 675 q 396 625 378 644 q 428 586 414 606 q 475 733 451 663 q 518 856 499 803 q 551 942 538 910 q 569 974 565 974 q 592 967 578 974 q 620 950 606 961 q 645 924 635 939 q 656 889 656 908 q 639 840 656 886 q 598 720 622 793 q 544 559 574 647 q 491 385 515 471 q 450 226 467 300 q 433 108 433 151 q 437 83 433 90 q 456 75 440 75 q 501 96 476 75 q 552 149 526 117 q 602 217 578 181 q 646 285 626 253 q 678 338 665 317 q 694 358 692 358 z "},"e":{"ha":492,"x_min":-31,"x_max":521,"o":"m 521 358 q 505 321 521 351 q 463 249 489 290 q 401 160 436 207 q 326 75 365 114 q 247 10 288 36 q 169 -15 207 -15 q 110 2 144 -15 q 44 51 75 19 q -9 128 13 83 q -31 229 -31 174 q -1 392 -31 308 q 70 547 28 476 q 162 661 113 617 q 251 706 211 706 q 338 688 299 706 q 405 647 378 671 q 447 596 432 622 q 463 551 463 569 q 427 450 463 493 q 338 378 392 407 q 222 333 285 349 q 103 314 158 318 q 81 233 89 274 q 74 153 74 193 q 91 72 74 90 q 136 54 108 54 q 221 76 178 54 q 304 133 264 99 q 381 206 344 167 q 447 280 418 246 q 496 336 476 314 q 521 358 515 358 m 338 606 q 282 583 313 606 q 219 522 251 560 q 158 433 188 483 q 108 326 129 382 q 208 345 158 331 q 297 386 257 360 q 360 453 336 413 q 385 547 385 493 q 366 588 385 571 q 338 606 347 606 z "},"f":{"ha":456,"x_min":-104,"x_max":478,"o":"m 478 357 q 465 326 478 350 q 432 271 453 303 q 383 202 411 239 q 322 131 354 165 q 299 32 317 88 q 253 -83 281 -24 q 192 -199 226 -142 q 119 -302 157 -257 q 42 -375 82 -347 q -35 -403 3 -403 q -55 -397 -43 -403 q -78 -369 -67 -390 q -97 -308 -89 -349 q -104 -199 -104 -268 q -90 -38 -104 -126 q -53 147 -76 50 q 1 342 -29 243 q 65 534 32 442 q 131 708 97 626 q 192 850 164 789 q 240 946 219 911 q 269 981 261 981 q 298 969 283 981 q 325 943 313 958 q 346 912 338 928 q 354 888 354 896 q 338 844 354 882 q 293 745 321 807 q 231 602 265 683 q 159 429 196 521 q 88 239 122 338 q 25 44 53 140 q -19 -141 -3 -51 q -36 -306 -36 -231 q -4 -340 -36 -340 q 40 -322 17 -340 q 85 -274 63 -304 q 128 -203 107 -243 q 168 -121 150 -164 q 201 -35 186 -78 q 225 46 215 8 q 140 15 179 15 q 90 42 108 15 q 71 110 71 68 q 83 162 71 132 q 115 219 94 192 q 160 264 135 246 q 214 282 186 282 q 286 254 253 282 q 324 174 319 226 q 381 234 354 201 q 428 295 407 267 q 462 341 449 324 q 478 357 475 358 m 201 106 q 238 114 218 106 l 239 131 q 217 183 239 163 q 172 203 196 203 q 164 198 169 203 q 158 171 158 193 q 160 153 158 164 q 166 131 161 142 q 179 113 171 121 q 201 106 188 106 z "},"g":{"ha":660,"x_min":-15,"x_max":679,"o":"m 679 357 q 662 314 679 340 q 615 254 644 288 q 542 183 585 221 q 450 107 500 144 q 394 -87 422 8 q 340 -257 365 -182 q 296 -378 315 -332 q 268 -425 276 -425 q 206 -411 244 -425 q 133 -371 168 -397 q 72 -306 97 -344 q 46 -218 46 -268 q 69 -151 46 -185 q 129 -85 93 -117 q 210 -22 165 -53 q 299 35 256 8 q 333 158 315 94 q 367 283 350 221 q 401 403 385 344 q 432 513 417 463 q 414 529 424 517 q 392 556 404 542 q 364 581 379 569 q 329 592 349 592 q 244 556 288 592 q 165 465 200 521 q 108 338 131 408 q 86 194 86 267 q 93 127 86 157 q 110 76 100 97 q 132 44 121 56 q 151 33 143 33 q 195 45 175 33 q 231 71 215 57 q 257 97 246 85 q 274 108 268 108 q 276 104 276 108 q 265 83 276 100 q 234 47 253 65 q 194 13 215 28 q 151 -1 172 -1 q 111 16 139 -1 q 55 68 83 33 q 6 154 26 103 q -15 272 -15 206 q 11 443 -15 365 q 76 576 38 521 q 161 663 115 632 q 244 694 207 694 q 311 678 279 694 q 369 640 343 663 q 413 590 394 617 q 442 544 432 564 q 478 663 463 618 q 500 707 493 707 q 532 695 517 707 q 559 667 547 683 q 577 632 571 650 q 583 601 583 614 q 574 559 583 599 q 547 456 564 519 q 507 310 529 392 q 460 142 485 229 q 562 228 521 188 q 628 297 603 268 q 665 342 653 326 q 679 357 676 358 m 178 -322 q 194 -298 183 -322 q 219 -231 204 -274 q 250 -131 233 -187 q 286 -7 267 -74 q 134 -129 190 -74 q 78 -242 78 -185 q 85 -267 78 -253 q 104 -293 92 -281 q 135 -314 117 -306 q 178 -322 154 -322 z "},"h":{"ha":621,"x_min":-72,"x_max":638,"o":"m 638 358 q 616 308 638 343 q 561 230 594 272 q 486 142 528 188 q 404 58 444 96 q 328 -3 364 21 q 274 -28 293 -28 q 256 -17 264 -28 q 249 7 249 -7 q 258 69 249 31 q 280 154 267 107 q 309 253 293 201 q 338 354 325 304 q 360 449 351 404 q 369 526 369 493 q 360 559 369 546 q 339 572 350 572 q 292 549 319 572 q 233 493 264 526 q 173 422 203 460 q 119 353 143 383 q 68 213 93 279 q 22 96 43 146 q -12 16 1 46 q -32 -14 -26 -14 q -60 9 -47 -14 q -72 65 -72 32 q -60 140 -72 88 q -29 264 -49 193 q 15 417 -10 335 q 67 583 40 500 q 120 744 94 667 q 167 881 146 821 q 203 976 189 940 q 222 1011 218 1011 q 252 1001 236 1011 q 281 978 268 992 q 303 949 294 964 q 311 921 311 933 q 297 869 311 915 q 258 751 282 822 q 204 593 235 681 q 142 417 174 506 q 218 510 175 460 q 307 603 261 561 q 397 674 353 646 q 478 703 442 703 q 514 678 503 703 q 525 619 525 654 q 516 542 525 588 q 494 447 507 497 q 465 346 481 397 q 435 252 449 294 q 413 179 422 210 q 404 139 404 149 q 411 128 404 128 q 443 145 422 128 q 488 188 464 163 q 538 243 513 213 q 584 299 563 274 q 620 341 606 324 q 638 358 635 358 z "},"i":{"ha":292,"x_min":-54,"x_max":378,"o":"m 311 358 q 299 328 311 356 q 267 260 288 300 q 222 176 247 221 q 169 92 196 131 q 118 28 143 54 q 75 3 93 3 q 47 14 68 3 q 3 49 26 25 q -37 109 -19 72 q -54 197 -54 146 q -41 283 -54 231 q -8 395 -28 336 q 36 513 13 454 q 81 620 60 572 q 119 698 103 668 q 140 728 136 728 q 165 719 150 728 q 195 698 181 711 q 220 669 210 685 q 231 640 231 654 q 217 609 231 638 q 184 535 204 581 q 140 434 164 490 q 97 319 117 378 q 63 206 76 261 q 50 108 50 150 q 53 83 50 90 q 72 75 57 75 q 118 96 93 75 q 169 149 143 117 q 219 217 194 181 q 263 285 243 253 q 295 338 282 317 q 311 358 308 358 m 378 932 q 371 919 378 925 q 357 911 364 914 q 338 904 349 907 q 343 894 340 900 q 349 875 349 883 q 332 860 349 860 q 291 869 313 860 q 251 894 269 879 q 222 930 233 910 q 211 971 211 950 q 219 988 211 981 q 238 1001 226 996 q 260 1009 249 1007 q 282 1011 272 1011 q 317 1001 300 1011 q 347 978 333 992 q 369 952 361 965 q 378 932 378 939 z "},"j":{"ha":361,"x_min":-199,"x_max":390,"o":"m 294 1011 q 329 1001 313 1011 q 360 978 346 992 q 382 952 374 965 q 390 932 390 939 q 383 919 390 925 q 369 911 376 914 q 350 904 361 907 q 356 894 353 900 q 361 875 361 883 q 344 860 361 860 q 303 869 325 860 q 264 894 282 879 q 234 930 246 910 q 222 971 222 950 q 230 988 222 981 q 249 1001 238 996 q 272 1009 260 1007 q 294 1011 285 1011 m 378 358 q 362 314 378 342 q 317 253 346 286 q 249 181 289 219 q 164 106 210 143 q 108 -88 136 7 q 54 -258 79 -183 q 10 -379 29 -333 q -18 -425 -10 -425 q -73 -413 -42 -425 q -132 -378 -104 -401 q -179 -318 -160 -354 q -199 -232 -199 -282 q -181 -162 -199 -197 q -135 -95 -164 -128 q -68 -32 -106 -62 q 10 26 -31 -1 l 125 438 q 81 386 103 410 q 40 344 58 363 q 10 316 22 326 q -7 306 -3 306 q -10 311 -10 306 q 10 348 -10 321 q 59 414 31 375 q 119 503 88 453 q 175 613 151 554 q 199 682 190 657 q 214 707 208 707 q 246 695 231 707 q 273 667 261 683 q 291 632 285 650 q 297 601 297 614 q 287 559 297 599 q 260 456 276 519 q 221 309 243 392 q 174 139 199 226 q 269 224 231 185 q 330 294 307 264 q 364 341 353 324 q 378 358 375 358 m -108 -322 q -92 -299 -103 -322 q -68 -233 -82 -275 q -37 -136 -54 -192 q -1 -15 -21 -81 q -79 -81 -47 -50 q -131 -140 -111 -111 q -158 -198 -150 -169 q -167 -256 -167 -226 q -150 -300 -167 -278 q -108 -322 -133 -322 z "},"k":{"ha":633,"x_min":-71,"x_max":650,"o":"m 650 358 q 634 324 650 354 q 591 250 618 293 q 527 158 564 207 q 449 68 490 110 q 365 -1 408 26 q 281 -28 322 -28 q 226 1 253 -28 q 174 75 199 31 q 126 171 149 119 q 89 268 104 222 q 47 157 67 208 q 12 67 28 106 q -15 8 -4 29 q -31 -14 -26 -14 q -58 9 -46 -14 q -71 65 -71 32 q -59 140 -71 88 q -28 264 -47 193 q 17 417 -8 335 q 69 583 42 500 q 122 744 96 667 q 169 881 147 821 q 205 976 190 940 q 224 1011 219 1011 q 253 1001 238 1011 q 283 978 269 992 q 304 949 296 964 q 313 921 313 933 q 303 886 313 917 q 278 806 294 856 q 241 694 263 757 q 194 561 219 631 q 256 618 224 590 q 318 667 288 646 q 376 702 349 689 q 424 715 403 715 q 476 700 453 715 q 514 665 499 685 q 537 626 529 646 q 544 597 544 607 q 518 506 544 551 q 446 423 492 461 q 338 356 400 385 q 203 311 275 326 q 240 228 221 269 q 280 152 260 186 q 319 97 300 118 q 358 76 339 76 q 419 97 388 76 q 483 149 451 118 q 543 217 514 181 q 595 285 572 254 q 633 338 618 317 q 650 358 647 358 m 444 635 q 357 613 399 635 q 278 559 315 592 q 212 489 242 526 q 160 419 182 451 q 267 447 214 425 q 361 498 319 468 q 429 560 403 528 q 456 619 456 593 q 453 629 456 624 q 444 635 450 635 z "},"l":{"ha":308,"x_min":-42,"x_max":325,"o":"m -42 138 q -25 275 -42 190 q 17 457 -8 360 q 73 653 43 554 q 130 833 103 753 q 176 963 157 913 q 201 1013 196 1013 q 224 1006 210 1013 q 251 989 238 1000 q 276 963 265 978 q 286 928 286 947 q 269 875 286 925 q 228 749 253 825 q 174 578 203 672 q 119 395 144 485 q 78 228 94 306 q 61 108 61 151 q 65 83 61 90 q 85 75 69 75 q 128 97 103 75 q 179 150 153 118 q 232 219 206 182 q 279 287 258 256 q 313 338 300 318 q 325 357 325 358 q 313 326 325 354 q 279 260 300 299 q 233 176 258 221 q 181 92 207 131 q 129 28 154 54 q 86 3 104 3 q 57 5 78 3 q 15 20 36 7 q -24 60 -7 33 q -42 138 -42 88 z "},"m":{"ha":839,"x_min":-103,"x_max":854,"o":"m 854 358 q 833 308 854 343 q 779 230 813 272 q 704 142 746 188 q 622 58 663 96 q 547 -3 582 21 q 492 -28 511 -28 q 474 -17 482 -28 q 465 7 465 -7 q 476 69 465 31 q 504 154 488 107 q 540 253 521 201 q 575 354 558 304 q 603 449 592 404 q 614 526 614 493 q 605 559 614 546 q 585 572 596 572 q 550 551 571 572 q 506 499 529 531 q 460 431 483 468 q 418 364 436 394 l 335 101 q 279 6 315 39 q 211 -28 243 -28 q 193 -17 201 -28 q 185 7 185 -7 q 196 69 185 31 q 224 154 207 107 q 259 253 240 201 q 294 354 278 304 q 322 449 311 404 q 333 526 333 493 q 324 559 333 546 q 304 572 315 572 q 269 550 290 572 q 224 496 247 528 q 176 427 200 464 q 135 360 153 390 q 84 212 108 282 q 47 101 60 142 q -8 6 28 39 q -76 -28 -44 -28 q -94 -17 -86 -28 q -103 7 -103 -7 q -91 72 -103 31 q -61 166 -79 114 q -23 275 -43 218 q 15 385 -3 332 q 45 482 33 438 q 57 553 57 526 q 74 610 57 583 q 113 656 90 636 q 159 686 136 675 q 193 697 182 697 q 215 689 210 697 q 221 667 221 681 q 220 651 221 660 q 218 632 219 643 q 199 557 215 611 q 160 435 182 503 q 222 525 188 478 q 294 612 257 572 q 370 677 332 651 q 443 703 408 703 q 477 683 464 703 q 490 636 490 664 q 489 619 490 625 q 478 575 486 604 q 460 506 471 546 l 456 490 q 453 482 454 486 q 450 472 451 478 l 439 433 q 501 524 467 476 q 574 612 536 572 q 649 677 611 651 q 722 703 688 703 q 758 678 747 703 q 769 619 769 654 q 758 542 769 588 q 731 447 747 497 q 696 346 715 397 q 660 252 676 294 q 633 179 644 210 q 622 139 622 149 q 629 128 622 128 q 661 145 640 128 q 706 188 682 163 q 756 243 731 213 q 801 299 781 274 q 837 341 822 324 q 854 358 851 358 z "},"n":{"ha":594,"x_min":-112,"x_max":619,"o":"m 619 358 q 598 308 619 343 q 543 230 576 272 q 468 142 510 188 q 386 58 426 96 q 310 -3 346 21 q 256 -28 275 -28 q 238 -17 246 -28 q 231 7 231 -7 q 240 69 231 31 q 262 154 249 107 q 291 253 275 201 q 320 354 307 304 q 342 449 333 404 q 351 526 351 493 q 342 559 351 546 q 321 572 332 572 q 285 558 306 572 q 242 519 265 543 q 193 467 218 496 q 146 410 168 439 q 94 258 122 335 q 34 117 65 181 q -30 13 3 53 q -93 -28 -62 -28 q -109 -19 -106 -28 q -112 4 -112 -10 q -99 64 -112 19 q -67 167 -86 108 q -26 290 -49 225 q 16 414 -3 356 q 48 517 35 472 q 61 578 61 561 q 75 606 61 586 q 110 646 89 625 q 154 682 131 667 q 197 697 178 697 q 213 688 208 697 q 217 667 217 678 q 213 648 217 664 q 202 605 210 632 q 185 542 194 578 q 163 465 175 507 q 235 549 196 507 q 313 626 274 592 q 390 681 353 660 q 460 703 428 703 q 496 678 485 703 q 507 619 507 654 q 498 542 507 588 q 476 447 489 497 q 447 346 463 397 q 417 252 431 294 q 395 179 404 210 q 386 139 386 149 q 393 128 386 128 q 426 145 406 128 q 470 188 446 163 q 519 243 494 213 q 566 299 544 274 q 602 341 588 324 q 619 358 617 358 z "},"o":{"ha":617,"x_min":-21,"x_max":640,"o":"m 640 357 q 624 324 640 353 q 574 260 607 294 q 492 195 542 225 q 375 161 442 165 q 314 92 344 124 q 254 38 283 61 q 199 3 225 15 q 153 -10 174 -10 q 83 8 115 -10 q 28 56 51 25 q -8 132 6 88 q -21 232 -21 176 q -3 385 -21 304 q 40 533 15 465 q 89 644 64 600 q 129 688 114 688 q 154 680 142 688 q 178 660 167 672 q 196 631 189 647 q 203 600 203 615 q 183 556 203 593 q 139 458 163 518 q 95 317 115 397 q 75 149 75 238 q 80 97 75 117 q 94 67 85 78 q 116 52 103 56 q 144 49 129 49 q 224 81 183 49 q 306 165 265 114 q 191 238 225 181 q 157 376 157 296 q 188 487 157 431 q 266 590 218 543 q 372 666 314 636 q 485 696 429 696 q 544 666 525 696 q 564 590 564 636 q 522 406 564 503 q 421 222 481 310 q 435 219 428 219 q 449 219 442 219 q 523 241 490 219 q 578 289 556 263 q 617 336 601 315 q 640 357 632 357 m 258 433 q 265 384 258 410 q 286 333 272 358 q 319 285 300 308 q 361 247 338 263 q 401 321 383 283 q 433 393 419 358 q 453 458 446 428 q 460 511 460 489 q 443 572 460 553 q 399 592 426 592 q 346 579 371 592 q 301 545 321 567 q 270 494 282 524 q 258 433 258 465 z "},"p":{"ha":546,"x_min":-167,"x_max":569,"o":"m 569 358 q 549 308 569 343 q 494 230 528 272 q 419 142 460 188 q 338 58 378 96 q 262 -3 297 21 q 207 -28 226 -28 q 188 -17 196 -28 q 181 7 181 -7 q 192 69 181 31 q 219 154 203 107 q 255 253 236 201 q 290 354 274 304 q 318 449 307 404 q 329 526 329 493 q 320 559 329 546 q 300 572 311 572 q 268 553 288 572 q 227 506 249 535 q 183 444 206 478 q 143 381 161 411 q 92 219 119 306 q 35 48 64 133 q -20 -117 7 -37 q -69 -256 -47 -196 q -107 -353 -92 -317 q -128 -389 -122 -389 q -155 -366 -143 -389 q -167 -310 -167 -343 q -155 -231 -167 -287 q -124 -99 -143 -175 q -80 66 -104 -24 q -29 246 -56 156 q 24 420 -3 336 q 71 569 50 504 q 106 674 92 635 q 125 713 121 713 q 155 703 139 713 q 184 679 171 693 q 206 649 197 665 q 214 621 214 633 q 201 569 214 615 q 164 449 188 522 q 226 537 192 492 q 296 619 260 582 q 368 679 332 656 q 438 703 404 703 q 474 678 463 703 q 485 619 485 654 q 474 542 485 588 q 446 447 463 497 q 410 346 429 397 q 375 252 392 294 q 347 179 358 210 q 336 139 336 149 q 344 128 336 128 q 376 145 356 128 q 421 188 397 163 q 470 243 444 213 q 517 299 496 274 q 552 341 538 324 q 569 358 567 358 z "},"q":{"ha":681,"x_min":-19,"x_max":706,"o":"m 706 357 q 690 316 706 347 q 649 242 675 285 q 588 150 622 200 q 515 53 553 100 q 397 -94 453 -25 q 314 -215 340 -162 q 267 -341 286 -293 q 240 -389 247 -389 q 213 -366 225 -389 q 200 -310 200 -343 q 210 -238 200 -289 q 238 -119 221 -187 q 278 33 256 -50 q 326 200 301 115 q 374 367 350 285 q 421 517 399 449 q 403 536 413 524 q 383 561 394 549 q 356 583 371 574 q 325 592 342 592 q 240 556 283 592 q 161 465 196 521 q 104 338 126 408 q 82 194 82 267 q 89 127 82 157 q 106 76 96 97 q 128 44 117 56 q 147 33 139 33 q 191 45 171 33 q 226 71 211 57 q 253 97 242 85 q 269 108 264 108 q 272 104 272 108 q 260 83 272 100 q 230 47 249 65 q 190 13 211 28 q 147 -1 168 -1 q 107 16 135 -1 q 51 68 79 33 q 1 154 22 103 q -19 272 -19 206 q 7 443 -19 365 q 72 576 33 521 q 157 663 111 632 q 240 694 203 694 q 303 680 274 694 q 358 644 333 665 q 403 598 383 622 q 433 553 422 574 q 473 669 457 625 q 493 713 489 713 q 523 703 507 713 q 552 679 539 693 q 574 649 565 665 q 582 621 582 633 q 566 562 582 615 q 525 427 550 508 q 468 246 500 346 q 403 46 436 146 q 453 83 429 65 q 492 111 476 100 q 588 197 550 153 q 649 277 625 242 q 685 335 672 313 q 706 357 697 357 z "},"s":{"ha":408,"x_min":-7,"x_max":431,"o":"m 431 357 q 424 339 431 354 q 403 302 417 324 q 370 256 389 281 q 328 206 351 231 q 290 114 319 157 q 226 38 261 71 q 156 -14 192 6 q 100 -33 121 -33 q 72 -24 79 -33 q 64 0 64 -14 q 79 46 64 22 q 119 92 94 69 q 173 138 143 115 q 233 179 203 160 q 217 258 232 222 q 183 326 203 293 q 142 389 164 358 q 103 451 119 419 q 66 394 83 421 q 34 348 49 368 q 9 317 19 328 q -6 306 -1 306 q -7 311 -7 306 q 1 329 -7 314 q 24 367 10 344 q 55 419 38 390 q 90 478 72 447 q 77 519 82 497 q 72 564 72 540 q 88 649 72 615 q 124 703 104 683 q 164 730 144 722 q 190 738 183 738 q 213 728 206 738 q 221 707 221 719 q 207 649 221 685 q 172 571 193 614 q 220 505 193 540 q 272 429 247 469 q 313 343 296 389 q 331 247 329 297 q 352 272 338 254 q 382 308 367 289 q 410 342 397 326 q 431 357 424 357 m 136 654 q 156 596 136 628 q 171 631 165 615 q 176 654 176 646 q 173 676 176 665 q 161 686 169 686 q 141 674 146 686 q 136 654 136 661 m 138 29 q 152 35 140 29 q 178 54 164 42 q 205 85 192 67 q 226 125 218 103 l 193 101 q 144 67 164 82 q 125 44 125 53 q 138 29 125 29 z "},"t":{"ha":317,"x_min":-115,"x_max":418,"o":"m 299 889 q 326 876 307 889 q 366 845 346 864 q 402 806 386 826 q 418 768 418 785 q 412 751 418 757 q 399 746 406 746 q 315 747 356 746 q 238 749 275 747 q 183 578 213 672 q 129 395 154 485 q 88 228 104 306 q 71 108 71 151 q 75 83 71 90 q 94 75 79 75 q 138 97 113 75 q 189 150 163 118 q 242 219 215 182 q 289 287 268 256 q 322 338 310 318 q 335 357 335 358 q 322 326 335 354 q 289 260 310 299 q 242 176 268 221 q 190 92 217 131 q 139 28 164 54 q 96 3 114 3 q 67 5 88 3 q 24 20 46 7 q -15 60 3 33 q -32 138 -32 88 q -19 256 -32 183 q 15 413 -6 329 q 63 585 36 497 q 114 753 89 674 q -54 772 7 760 q -115 799 -115 783 q -90 811 -115 803 q -26 829 -65 819 q 60 849 13 839 q 151 867 107 858 q 191 973 175 933 q 211 1013 207 1013 q 233 1006 219 1013 q 261 989 247 1000 q 285 963 275 978 q 296 928 296 947 q 283 889 296 922 l 299 889 z "},"u":{"ha":631,"x_min":-62,"x_max":646,"o":"m 646 358 q 631 323 646 354 q 594 247 617 292 q 542 152 571 203 q 485 58 514 101 q 432 -13 457 15 q 390 -42 407 -42 q 335 -29 358 -42 q 294 3 311 -17 q 269 51 278 24 q 257 107 260 78 q 213 55 236 81 q 167 9 190 29 q 119 -24 143 -11 q 74 -36 96 -36 q 13 -22 39 -36 q -29 16 -12 -8 q -54 72 -46 40 q -62 139 -62 103 q -59 185 -62 163 q -49 232 -56 208 q 6 410 -21 324 q 55 564 33 497 q 91 672 76 631 q 110 713 106 713 q 140 703 124 713 q 169 679 156 693 q 190 649 182 665 q 199 621 199 633 q 185 570 199 615 q 151 455 172 525 q 101 297 129 385 q 43 117 74 208 q 34 85 36 99 q 32 64 32 72 q 42 46 32 46 q 94 65 65 46 q 154 113 124 85 q 215 174 185 142 q 269 235 244 207 q 323 409 297 326 q 369 554 349 492 q 402 653 389 617 q 419 690 415 690 q 449 681 433 690 q 478 656 465 671 q 500 626 492 642 q 508 599 508 611 q 498 560 508 594 q 470 469 488 525 q 430 342 453 414 q 382 189 407 269 l 360 117 q 350 68 350 88 q 363 49 350 49 q 415 72 386 49 q 475 129 444 94 q 535 203 506 164 q 588 278 564 243 q 627 335 611 313 q 646 358 643 358 z "},"v":{"ha":582,"x_min":-29,"x_max":606,"o":"m 606 369 q 589 329 606 358 q 544 269 572 300 q 480 215 515 239 q 407 192 444 192 q 347 206 375 192 q 296 247 319 221 q 214 147 254 194 q 140 64 174 100 q 81 6 106 28 q 49 -15 57 -15 q 27 -6 40 -15 q 1 16 14 3 q -20 47 -11 29 q -29 81 -29 64 q -24 187 -29 118 q -15 338 -19 256 q -5 504 -10 419 q 0 658 0 589 q 4 667 0 663 q 17 672 8 672 q 49 660 32 672 q 81 633 67 649 q 103 601 94 617 q 113 579 113 586 q 112 542 113 575 q 109 462 111 510 q 104 356 107 414 q 99 242 101 297 q 92 141 96 188 q 85 69 89 94 q 143 133 113 97 q 201 202 169 163 q 267 286 233 242 q 238 355 249 318 q 228 429 228 392 q 246 520 228 474 q 294 606 264 567 q 362 669 324 644 q 442 693 400 693 q 494 674 478 693 q 511 626 511 656 q 500 574 511 604 q 470 507 489 543 q 426 431 451 471 q 372 349 401 390 q 418 299 392 318 q 478 281 444 281 q 526 294 504 281 q 564 325 547 308 q 591 356 581 342 q 606 369 601 369 m 329 500 q 333 451 329 476 q 347 401 338 425 q 399 497 379 451 q 418 578 418 542 l 418 583 q 392 626 415 626 q 373 618 383 626 q 353 593 363 610 q 336 553 343 576 q 329 500 329 529 z "},"w":{"ha":846,"x_min":-25,"x_max":875,"o":"m 875 358 q 860 321 875 353 q 822 253 844 289 q 774 188 799 217 q 729 158 749 158 q 703 168 714 158 q 687 194 693 178 q 677 231 681 210 q 672 274 674 251 q 615 166 643 218 q 562 74 586 114 q 519 9 538 33 q 492 -15 500 -15 q 456 10 479 -15 q 406 77 432 35 q 354 174 381 119 q 308 289 328 229 q 228 176 269 231 q 151 78 186 121 q 89 10 115 36 q 53 -15 63 -15 q 31 -6 44 -15 q 6 16 18 3 q -16 47 -7 29 q -25 81 -25 64 q -20 187 -25 118 q -10 338 -15 256 q -1 504 -6 419 q 4 658 4 589 q 8 667 4 663 q 22 672 13 672 q 54 660 38 672 q 85 633 71 649 q 108 601 99 617 q 117 579 117 586 q 116 542 117 575 q 113 462 115 510 q 109 356 111 414 q 103 242 107 297 q 97 141 100 188 q 89 69 93 94 q 157 160 122 113 q 222 253 186 200 q 289 360 257 306 q 278 416 282 388 q 275 472 275 444 q 290 560 275 524 q 325 622 304 597 q 368 657 346 646 q 404 668 390 668 q 445 649 432 668 q 458 606 458 631 q 433 510 458 568 q 369 386 408 453 q 388 281 378 335 q 409 183 399 226 q 428 110 419 139 q 440 82 436 82 q 457 107 443 82 q 492 174 471 132 q 538 267 513 215 q 589 375 563 319 q 641 483 615 431 q 688 576 667 535 q 724 643 710 618 q 744 668 739 668 q 768 659 754 668 q 795 638 782 650 q 818 611 808 625 q 828 589 828 597 q 819 568 828 588 q 799 526 810 549 q 780 483 789 503 q 771 464 771 464 q 719 323 732 385 q 707 225 707 261 q 714 185 707 185 q 755 212 729 185 q 806 272 781 239 q 851 331 832 304 q 875 358 871 358 m 357 499 q 376 583 376 549 q 371 592 376 592 q 360 569 364 592 q 357 517 357 546 l 357 499 z "},"x":{"ha":683,"x_min":-47,"x_max":717,"o":"m 717 386 q 698 348 717 381 q 649 269 679 315 q 583 171 619 224 q 514 74 547 118 q 455 0 481 29 q 419 -29 429 -29 q 403 -6 415 -29 q 373 57 390 18 q 334 146 356 96 q 290 250 313 196 q 185 149 236 197 q 94 63 133 100 q 29 3 54 25 q 1 -19 4 -19 q -17 -11 -8 -19 q -32 8 -25 -3 q -43 29 -39 18 q -47 44 -47 40 q -43 50 -47 50 q -38 48 -40 50 q -33 43 -36 46 q -26 36 -31 39 q 58 133 13 82 q 147 234 97 178 q 249 351 196 290 q 213 438 229 397 q 185 510 197 478 q 158 578 169 546 l 86 456 q 59 410 72 432 q 35 372 46 389 q 15 344 24 354 q 6 333 7 333 q 4 339 4 333 q 18 371 4 342 q 54 442 32 400 q 103 531 76 483 q 153 619 129 578 q 197 686 178 660 q 225 713 217 713 q 240 692 229 713 q 267 636 251 671 q 303 556 283 601 q 343 460 322 510 q 425 551 386 508 q 494 626 464 594 q 544 677 525 658 q 565 696 563 696 q 595 686 581 696 q 621 663 610 676 q 638 636 632 650 q 644 613 644 622 q 624 585 644 608 q 568 526 603 563 q 488 444 533 490 q 390 347 442 397 q 428 255 410 299 q 460 178 446 211 q 489 106 475 139 q 600 246 551 183 q 641 297 621 272 q 678 342 661 322 q 705 374 694 361 q 717 386 715 386 z "},"y":{"ha":564,"x_min":-56,"x_max":590,"o":"m 590 357 q 574 315 590 342 q 530 253 558 288 q 462 181 501 219 q 375 106 422 143 q 319 -88 347 7 q 265 -258 290 -183 q 222 -379 240 -333 q 194 -425 203 -425 q 138 -413 169 -425 q 79 -378 107 -401 q 32 -318 51 -354 q 13 -232 13 -282 q 31 -162 13 -197 q 78 -95 49 -128 q 144 -32 107 -62 q 222 26 182 -1 q 228 48 225 38 q 233 69 231 58 q 157 -5 197 26 q 81 -36 117 -36 q 20 -22 46 -36 q -22 16 -6 -8 q -47 72 -39 40 q -56 139 -56 103 q -52 185 -56 163 q -42 232 -49 208 q 13 410 -14 324 q 62 564 40 497 q 98 672 83 631 q 117 713 113 713 q 147 703 131 713 q 176 679 163 693 q 197 649 189 665 q 206 621 206 633 q 192 570 206 615 q 158 455 179 525 q 108 297 136 385 q 50 117 81 208 q 41 85 43 99 q 39 64 39 72 q 49 46 39 46 q 103 66 74 46 q 165 116 133 86 q 226 179 196 146 q 281 240 256 213 q 329 415 306 331 q 372 564 353 499 q 406 668 392 629 q 425 707 419 707 q 457 695 442 707 q 484 667 472 683 q 502 632 496 650 q 508 601 508 614 q 499 559 508 599 q 472 456 489 519 q 432 309 454 392 q 385 139 410 226 q 480 225 442 185 q 542 295 518 265 q 576 342 565 325 q 590 357 588 358 m 103 -322 q 119 -299 108 -322 q 144 -233 129 -275 q 175 -136 158 -192 q 210 -15 192 -81 q 132 -81 164 -50 q 81 -140 100 -111 q 53 -198 61 -169 q 44 -256 44 -226 q 62 -300 44 -278 q 103 -322 79 -322 z "},"z":{"ha":482,"x_min":-31,"x_max":515,"o":"m 515 357 q 492 313 515 351 q 435 224 469 275 q 358 117 400 172 q 276 19 315 61 q 256 -3 267 8 q 233 -26 244 -15 q 236 -47 236 -37 q 236 -68 236 -57 q 217 -194 236 -132 q 172 -306 199 -257 q 116 -385 146 -354 q 65 -415 86 -415 q 18 -404 36 -415 q -11 -376 0 -393 q -26 -340 -22 -360 q -31 -304 -31 -321 q -17 -256 -31 -282 q 19 -199 -4 -229 q 72 -137 42 -169 q 133 -74 101 -106 l 133 -25 q 99 -33 113 -33 q 36 -11 63 -33 q 10 40 10 11 q 19 85 10 64 q 41 122 28 106 q 71 147 54 138 q 104 156 88 156 q 153 135 128 156 q 199 79 179 114 q 222 118 213 96 q 232 168 232 140 q 218 251 232 214 q 184 322 204 289 q 142 387 164 356 q 101 451 119 418 q 65 394 82 421 q 33 348 47 368 q 8 317 18 328 q -7 306 -3 306 q -8 311 -8 306 q 0 329 -8 314 q 22 367 8 344 q 53 419 36 390 q 89 478 71 447 q 76 519 81 497 q 71 564 71 540 q 87 649 71 615 q 123 703 103 683 q 163 730 143 722 q 189 738 182 738 q 212 728 204 738 q 219 707 219 719 q 206 649 219 685 q 171 571 192 614 q 219 503 192 539 q 271 427 246 468 q 313 340 296 386 q 329 242 329 293 q 296 126 329 181 q 219 33 263 72 l 225 13 q 246 32 236 24 q 264 50 256 40 q 349 144 307 90 q 426 245 392 197 q 485 326 461 293 q 515 357 508 358 m 135 654 q 154 596 135 628 q 169 631 164 615 q 175 654 175 646 q 172 676 175 665 q 160 686 168 686 q 140 674 144 686 q 135 654 135 661 m 69 74 q 88 47 69 61 q 128 31 107 33 q 113 87 122 67 q 88 107 103 107 q 74 97 78 107 q 69 74 69 88 m 82 -317 q 99 -301 90 -317 q 113 -258 107 -285 q 124 -199 119 -232 q 132 -131 129 -165 q 73 -199 96 -168 q 50 -249 50 -229 q 60 -294 50 -272 q 82 -317 69 -317 z "},"c":{"ha":510,"x_min":-17,"x_max":535,"o":"m 535 357 q 519 319 535 350 q 476 248 503 289 q 415 160 450 207 q 340 75 379 114 q 261 10 301 36 q 183 -15 221 -15 q 124 2 158 -15 q 58 51 89 19 q 5 128 26 83 q -17 229 -17 174 q 13 392 -17 308 q 84 547 42 476 q 176 661 126 617 q 265 706 225 706 q 324 690 294 706 q 378 655 354 675 q 418 613 403 635 q 433 579 433 592 q 428 569 433 572 q 419 567 422 567 q 410 573 415 567 q 397 586 404 579 q 378 599 389 593 q 351 606 367 606 q 272 563 318 606 q 185 455 226 521 q 116 308 144 389 q 88 153 88 228 q 105 72 88 90 q 150 54 122 54 q 235 77 192 54 q 319 134 278 100 q 397 208 360 168 q 462 281 433 247 q 510 336 490 314 q 535 357 529 358 z "},"J":{"ha":621,"x_min":-37,"x_max":582,"o":"m 582 921 q 569 877 582 915 q 537 780 557 839 q 492 647 517 721 q 440 499 467 574 q 369 303 404 396 q 297 139 335 210 q 219 26 260 68 q 131 -17 178 -17 q 68 1 94 -17 q 23 44 42 18 q -8 103 4 71 q -26 165 -19 135 q -35 217 -32 194 q -37 250 -37 240 q -31 258 -37 258 q -12 247 -24 258 q -1 225 -1 236 q 7 165 -1 196 q 27 110 15 135 q 52 70 39 86 q 75 54 65 54 q 123 83 96 54 q 183 176 150 111 q 255 342 215 240 q 342 593 294 444 q 392 746 367 671 q 438 880 417 821 q 474 975 460 939 q 493 1011 489 1011 q 523 1001 507 1011 q 552 978 539 992 q 574 949 565 964 q 582 921 582 933 z "},"I":{"ha":492,"x_min":85,"x_max":468,"o":"m 125 -14 q 97 9 108 -14 q 85 65 85 32 q 97 140 85 88 q 128 264 108 193 q 172 417 147 335 q 224 583 197 500 q 277 744 251 667 q 324 881 303 821 q 360 976 346 940 q 379 1011 375 1011 q 409 1001 393 1011 q 438 978 425 992 q 460 949 451 964 q 468 921 468 933 q 454 872 468 915 q 418 763 440 829 q 367 613 396 696 q 308 443 339 529 q 247 274 276 357 q 191 128 217 192 q 148 25 165 64 q 125 -14 131 -14 z "},"H":{"ha":722,"x_min":33,"x_max":779,"o":"m 690 1011 q 720 1001 704 1011 q 749 978 736 992 q 771 949 763 964 q 779 921 779 933 q 766 872 779 915 q 730 763 753 829 q 678 613 707 696 q 619 443 650 529 q 558 274 589 357 q 503 128 528 192 q 460 25 478 64 q 436 -14 442 -14 q 408 9 421 -14 q 396 65 396 32 q 403 121 396 83 q 425 209 411 158 q 456 322 439 260 q 494 450 474 383 q 456 442 474 443 q 426 441 444 442 q 386 440 408 440 q 340 439 364 439 q 293 439 315 439 l 254 439 q 193 272 224 353 q 138 126 163 190 q 95 24 113 63 q 72 -14 78 -14 q 45 9 57 -14 q 33 65 33 32 q 45 140 33 88 q 76 264 57 193 q 121 417 96 335 q 172 583 146 500 q 224 744 199 667 q 272 881 250 821 q 308 976 293 940 q 326 1011 322 1011 q 356 1001 340 1011 q 385 978 372 992 q 407 949 399 964 q 415 921 415 933 q 405 883 415 917 q 376 794 394 849 q 335 672 358 740 q 286 528 313 603 q 352 535 318 532 q 417 539 386 538 q 476 541 449 540 q 522 542 503 542 q 578 715 550 631 q 631 865 607 800 q 670 971 654 931 q 690 1011 686 1011 z "},"G":{"ha":694,"x_min":64,"x_max":675,"o":"m 675 492 q 667 439 675 475 q 647 363 658 403 q 622 289 635 324 q 599 240 608 254 q 549 172 583 214 q 471 89 515 129 q 377 19 426 49 q 282 -10 328 -10 q 188 15 228 -10 q 119 83 147 39 q 78 188 92 126 q 64 325 64 250 q 94 576 64 456 q 176 789 125 696 q 294 938 226 882 q 438 993 363 993 q 522 972 482 993 q 590 924 561 951 q 636 871 619 897 q 653 833 653 844 q 643 821 653 821 q 626 829 639 821 q 597 847 614 838 q 561 864 581 856 q 522 872 542 872 q 374 817 438 872 q 269 669 311 761 q 207 458 228 576 q 186 214 186 339 q 190 152 186 176 q 199 114 193 128 q 210 94 204 100 q 218 89 215 89 q 293 106 251 89 q 377 149 335 124 q 458 203 419 175 q 526 254 497 232 q 536 262 532 258 q 544 268 540 265 q 560 304 554 279 q 571 354 567 329 q 576 399 575 379 q 578 421 578 419 q 572 427 578 425 q 564 429 565 429 q 542 427 558 429 q 505 423 525 425 q 467 419 485 421 q 440 418 449 418 q 416 425 432 418 q 384 444 400 432 q 356 474 368 457 q 344 511 344 492 q 361 521 344 515 q 404 533 378 526 q 461 546 431 539 q 519 558 492 553 q 567 567 547 564 q 593 571 588 571 q 620 562 606 571 q 647 540 635 553 q 667 513 658 526 q 675 492 675 500 z "},"F":{"ha":722,"x_min":50,"x_max":761,"o":"m 735 967 q 753 958 746 965 q 761 943 761 951 q 747 917 760 931 q 713 894 733 904 q 670 876 693 883 q 625 869 647 869 q 588 869 611 869 q 535 868 564 868 q 476 868 507 868 q 418 868 446 868 q 370 724 401 815 q 303 528 339 633 q 372 535 336 532 q 440 539 407 538 q 501 541 474 540 q 547 542 529 542 l 569 542 q 592 518 592 539 q 578 491 590 504 q 549 467 567 478 q 511 450 532 457 q 472 442 490 443 q 443 441 461 442 q 403 440 425 440 q 356 439 381 439 q 310 439 332 439 l 271 439 q 210 272 240 353 q 154 126 179 190 q 112 24 129 63 q 89 -14 94 -14 q 62 9 74 -14 q 50 65 50 32 q 62 140 50 88 q 93 264 74 193 q 138 418 113 335 q 189 585 163 501 q 242 745 215 668 q 289 882 268 822 q 268 897 276 889 q 260 915 260 904 q 313 943 263 932 q 343 1011 339 1011 q 383 994 363 1011 q 418 958 404 978 q 485 963 450 961 q 553 966 519 965 q 616 967 586 967 q 671 968 646 968 q 712 968 694 968 q 735 967 729 968 z "},"E":{"ha":674,"x_min":54,"x_max":765,"o":"m 739 967 q 758 958 750 965 q 765 943 765 951 q 751 917 764 931 q 717 894 738 904 q 674 876 697 883 q 629 869 651 869 q 591 869 615 869 q 538 868 567 868 q 479 868 510 868 q 421 868 449 868 q 372 724 404 815 q 301 528 340 632 q 372 535 335 532 q 442 539 408 538 q 503 541 475 540 q 550 542 532 542 l 574 542 q 596 518 596 539 q 583 491 594 504 q 553 467 571 478 q 515 450 536 457 q 476 442 494 443 q 446 441 465 442 q 403 440 426 440 q 356 439 381 439 q 308 439 331 439 l 268 439 q 192 237 229 332 q 129 83 156 142 q 201 93 161 89 q 283 100 242 97 q 363 103 324 103 q 431 104 401 104 q 466 104 451 104 q 486 103 481 104 q 513 79 513 100 q 498 52 511 65 q 465 28 485 39 q 422 11 444 18 q 376 4 399 4 l 346 4 q 285 5 319 4 q 217 6 250 6 q 156 6 183 6 q 115 7 128 7 q 73 23 92 7 q 54 65 54 39 q 66 140 54 88 q 97 264 78 193 q 142 418 117 335 q 193 585 167 501 q 246 745 219 668 q 293 882 272 822 q 272 897 281 889 q 264 915 264 904 q 317 943 267 932 q 347 1011 343 1011 q 388 994 367 1011 q 422 958 408 978 q 489 963 454 961 q 557 966 524 965 q 620 967 590 967 q 675 968 650 968 q 716 968 699 968 q 739 967 733 968 z "},"D":{"ha":781,"x_min":106,"x_max":775,"o":"m 481 947 q 606 913 551 947 q 699 823 661 879 q 756 695 736 767 q 775 550 775 624 q 743 356 775 457 q 655 172 711 256 q 524 35 599 89 q 361 -18 449 -18 q 259 -12 306 -18 q 178 6 213 -6 q 125 36 144 18 q 106 79 106 54 q 117 126 106 85 q 146 232 128 168 q 186 375 164 296 q 233 534 208 454 q 280 687 257 614 q 321 813 303 760 q 258 784 286 797 q 194 771 231 771 q 175 778 188 771 q 151 794 163 785 q 130 815 139 804 q 121 833 121 825 q 142 854 121 842 q 197 881 163 867 q 276 910 232 896 q 365 935 319 925 q 388 991 379 971 q 400 1011 397 1011 q 444 991 421 1011 q 481 947 468 971 m 276 51 q 426 97 353 51 q 556 222 500 143 q 647 409 613 301 q 682 642 682 517 q 671 754 682 713 q 640 818 660 796 q 590 847 619 840 q 525 853 561 853 q 496 853 510 853 q 468 851 482 853 q 434 749 454 810 q 389 617 414 688 q 338 469 364 546 q 285 321 311 393 q 234 184 258 249 q 190 74 210 119 q 231 58 210 64 q 276 51 253 51 z "},"C":{"ha":636,"x_min":50,"x_max":639,"o":"m 639 833 q 635 824 639 828 q 629 821 632 821 q 613 829 625 821 q 583 847 600 838 q 547 864 567 856 q 508 872 528 872 q 360 817 424 872 q 256 669 297 761 q 193 458 214 576 q 172 214 172 339 q 176 152 172 176 q 185 114 179 128 q 195 94 190 100 q 204 89 200 89 q 272 104 235 89 q 349 142 310 119 q 424 190 388 164 q 492 239 461 217 q 542 276 522 261 q 568 292 563 292 q 586 283 579 292 q 593 264 593 275 q 579 233 593 256 q 540 179 565 210 q 483 115 515 149 q 415 54 451 82 q 341 8 379 26 q 268 -10 303 -10 q 174 15 214 -10 q 106 83 133 39 q 64 188 78 126 q 50 325 50 250 q 81 576 50 456 q 162 789 111 696 q 281 938 213 882 q 424 993 349 993 q 508 972 468 993 q 576 924 547 951 q 622 871 606 897 q 639 833 639 844 z "},"B":{"ha":782,"x_min":92,"x_max":711,"o":"m 600 486 q 679 394 649 447 q 710 271 710 340 q 684 137 710 197 q 609 34 658 76 q 487 -31 560 -8 q 318 -54 414 -54 q 247 -47 286 -54 q 173 -24 207 -40 q 115 17 139 -8 q 92 82 92 43 q 101 136 92 96 q 124 230 110 176 q 156 342 139 283 q 189 454 172 401 q 154 538 154 497 q 174 566 154 554 q 229 585 193 578 q 263 686 246 636 q 294 781 279 736 q 205 747 240 761 q 167 733 169 733 q 156 738 164 733 q 139 749 147 742 q 124 767 131 757 q 118 788 118 776 q 135 804 118 790 q 181 836 151 818 q 251 874 210 854 q 340 911 292 894 q 369 984 358 957 q 385 1011 381 1011 q 433 988 408 1011 q 468 940 457 964 q 498 942 483 942 q 528 943 513 943 q 597 926 564 943 q 656 884 631 910 q 696 826 681 858 q 711 761 711 793 q 680 606 711 675 q 600 486 649 538 m 610 849 q 530 842 572 849 q 444 825 488 836 q 411 726 431 782 q 369 606 392 669 l 364 589 q 429 575 396 585 q 499 550 463 565 q 584 681 551 606 q 617 840 617 757 q 610 849 617 849 m 315 451 q 381 467 349 454 q 442 501 413 481 q 394 517 419 510 q 342 526 369 524 q 328 489 335 507 q 315 451 322 471 m 208 517 q 193 503 193 508 q 200 490 193 500 q 204 503 203 497 q 208 517 206 510 m 240 46 q 417 70 347 46 q 529 137 488 94 q 588 235 571 179 q 604 356 604 292 q 590 393 604 371 q 547 439 575 415 q 453 385 501 403 q 363 364 404 367 l 351 364 q 318 367 336 364 q 289 376 300 369 l 283 361 q 221 192 250 271 q 168 61 192 114 q 240 46 203 46 z "},"A":{"ha":751,"x_min":46,"x_max":696,"o":"m 696 435 q 686 411 696 424 q 660 387 676 399 q 622 366 643 375 q 581 351 601 357 q 579 300 579 321 q 579 269 579 279 q 576 193 579 239 q 568 104 574 147 q 553 31 563 61 q 533 0 544 0 q 518 28 525 0 q 505 104 511 57 q 494 213 499 151 q 486 340 490 274 q 432 336 461 338 q 376 333 403 335 q 325 329 349 331 q 285 328 301 328 q 214 196 247 258 q 153 87 181 133 q 108 13 126 40 q 86 -14 90 -14 q 58 9 69 -14 q 46 65 46 32 q 64 127 46 79 q 113 244 82 175 q 182 397 143 314 q 262 566 221 481 q 342 731 303 651 q 415 874 382 811 q 468 974 447 936 q 493 1011 489 1011 q 517 1004 504 1011 q 542 986 531 997 q 563 963 553 975 q 578 938 572 950 q 588 867 585 921 q 592 739 592 813 q 590 594 592 669 q 585 450 588 518 q 638 454 617 453 q 665 456 658 456 q 687 450 678 456 q 696 435 696 444 m 332 418 q 406 430 368 425 q 482 439 444 435 q 477 581 479 514 q 474 694 475 649 q 406 560 442 632 q 332 418 369 489 z "},"K":{"ha":781,"x_min":36,"x_max":800,"o":"m 708 969 q 737 961 721 969 q 767 940 753 953 q 790 910 781 926 q 800 879 800 894 q 733 806 800 869 q 524 613 667 743 q 428 528 474 567 q 343 461 382 489 q 398 346 368 411 q 453 220 428 281 q 497 113 479 160 q 514 51 514 65 q 510 15 514 32 q 496 -3 507 -3 q 467 17 485 -3 q 426 67 449 36 q 377 139 403 99 q 326 222 351 179 q 278 306 301 264 q 236 381 254 347 q 182 231 208 303 q 134 106 156 160 q 97 19 113 51 q 76 -14 82 -14 q 48 9 60 -14 q 36 65 36 32 q 48 140 36 88 q 79 264 60 193 q 124 417 99 335 q 176 583 149 500 q 228 744 203 667 q 276 881 254 821 q 312 976 297 940 q 331 1011 326 1011 q 360 1001 344 1011 q 390 978 376 992 q 411 949 403 964 q 419 921 419 933 q 410 885 419 917 q 383 804 400 854 q 345 690 367 754 q 299 554 324 625 q 381 639 338 596 q 465 722 425 682 q 552 810 510 767 q 628 890 594 854 q 683 947 661 925 q 708 969 704 969 z "},"L":{"ha":608,"x_min":36,"x_max":494,"o":"m 468 103 q 494 79 494 100 q 480 52 493 65 q 447 28 467 39 q 403 11 426 18 q 358 4 381 4 l 328 4 q 267 5 301 4 q 199 6 232 6 q 138 6 165 6 q 97 7 110 7 q 55 23 74 7 q 36 65 36 39 q 48 140 36 88 q 79 264 60 193 q 124 417 99 335 q 175 583 149 500 q 227 744 201 667 q 274 881 253 821 q 310 976 296 940 q 329 1011 325 1011 q 359 1001 343 1011 q 388 978 375 992 q 410 949 401 964 q 418 921 418 933 q 401 865 418 915 q 358 739 385 815 q 299 569 332 663 q 231 385 265 476 q 165 215 197 294 q 111 83 133 135 q 183 93 143 89 q 265 100 224 97 q 344 103 306 103 q 413 104 383 104 q 448 104 433 104 q 468 103 463 104 z "},"M":{"ha":839,"x_min":44,"x_max":892,"o":"m 803 1011 q 834 1001 818 1011 q 863 978 850 992 q 883 949 875 964 q 892 921 892 933 q 878 872 892 915 q 842 763 864 829 q 790 613 819 696 q 731 443 761 529 q 669 274 700 357 q 614 128 639 192 q 571 25 589 64 q 547 -14 553 -14 q 520 9 532 -14 q 508 65 508 32 q 523 152 508 90 q 560 296 538 214 q 613 472 583 378 q 671 657 642 567 q 590 552 631 603 q 517 462 550 501 q 462 399 483 422 q 439 375 440 375 q 408 384 424 375 q 378 407 392 393 q 357 435 365 421 q 349 460 349 449 q 347 530 349 478 q 342 658 344 582 q 291 513 318 589 q 237 361 264 436 q 185 218 210 286 q 139 99 160 150 q 103 17 118 47 q 83 -14 89 -14 q 56 9 68 -14 q 44 65 44 32 q 56 140 44 88 q 88 264 68 193 q 132 417 107 335 q 183 583 157 500 q 235 744 210 667 q 283 881 261 821 q 319 976 304 940 q 338 1011 333 1011 q 375 1003 360 1011 q 401 983 390 994 q 417 957 411 971 q 425 932 422 943 q 436 870 432 901 q 442 801 440 839 q 445 712 444 763 q 446 593 446 661 q 618 801 542 710 q 683 878 651 840 q 740 945 714 915 q 782 993 765 975 q 803 1011 799 1011 z "},"N":{"ha":753,"x_min":42,"x_max":788,"o":"m 699 1011 q 728 1001 713 1011 q 758 978 744 992 q 779 949 771 964 q 788 921 788 933 q 774 872 788 915 q 738 763 761 829 q 687 613 715 696 q 628 443 658 529 q 567 274 597 357 q 511 128 536 192 q 468 25 486 64 q 444 -14 450 -14 q 424 1 436 -14 q 401 38 413 15 q 381 87 389 60 q 374 139 374 114 q 371 210 374 156 q 364 339 368 264 q 354 501 360 414 q 343 669 349 588 q 292 523 319 600 q 238 369 265 446 q 184 224 210 293 q 137 101 158 154 q 101 17 115 49 q 81 -14 86 -14 q 53 9 65 -14 q 42 65 42 32 q 53 140 42 88 q 85 264 65 193 q 129 417 104 335 q 181 583 154 500 q 233 744 207 667 q 280 881 258 821 q 316 976 301 940 q 335 1011 331 1011 q 365 1003 349 1011 q 394 981 381 994 q 415 952 407 968 q 424 921 424 936 q 425 885 424 917 q 430 806 426 854 q 437 694 433 757 q 444 565 440 632 q 451 430 447 497 q 458 303 456 363 q 503 453 478 374 q 553 613 528 533 q 603 763 578 692 q 648 890 628 835 q 681 978 668 946 q 699 1011 694 1011 z "},"O":{"ha":725,"x_min":79,"x_max":735,"o":"m 332 999 q 351 991 342 999 q 366 972 360 983 q 376 949 372 961 q 381 928 381 936 q 365 883 381 917 q 325 797 349 849 q 274 679 301 746 q 222 539 246 613 q 183 386 199 465 q 167 231 167 307 q 184 126 167 168 q 217 85 201 85 q 309 117 260 85 q 406 204 358 149 q 498 335 454 260 q 575 494 542 410 q 628 670 608 579 q 649 849 649 761 q 644 897 649 882 q 636 911 640 911 q 528 881 576 911 q 446 815 481 851 q 392 748 411 778 q 371 718 372 718 q 363 721 367 718 q 358 726 358 724 q 369 756 358 733 q 397 808 379 779 q 437 870 414 838 q 485 930 460 903 q 537 974 511 957 q 586 992 563 992 q 631 982 606 992 q 680 947 657 972 q 719 879 703 922 q 735 769 735 836 q 714 585 735 678 q 658 406 693 493 q 578 244 624 319 q 486 113 533 168 q 393 24 439 57 q 310 -8 347 -8 q 256 3 294 -8 q 178 48 218 14 q 109 144 139 82 q 79 308 79 206 q 94 454 79 376 q 131 608 108 532 q 181 756 153 685 q 238 881 210 826 q 291 967 267 935 q 332 999 315 999 z "},"P":{"ha":694,"x_min":65,"x_max":686,"o":"m 503 943 q 572 926 539 943 q 631 884 606 910 q 671 826 656 858 q 686 761 686 793 q 647 585 686 668 q 549 440 607 503 q 428 341 492 378 q 314 304 364 304 q 243 318 275 304 q 195 190 218 250 q 153 84 172 129 q 122 13 135 39 q 104 -14 108 -14 q 77 9 89 -14 q 65 65 65 32 q 78 126 65 76 q 110 245 90 175 q 153 397 129 315 q 199 555 176 479 q 241 692 222 631 q 269 781 260 753 q 180 747 215 761 q 142 733 144 733 q 131 738 139 733 q 114 749 122 742 q 99 767 106 757 q 93 788 93 776 q 110 804 93 790 q 156 836 126 818 q 226 874 185 854 q 315 911 267 894 q 344 984 332 957 q 358 1011 356 1011 q 407 988 382 1011 q 443 940 432 964 q 473 942 458 942 q 503 943 488 943 m 271 397 q 391 457 333 411 q 493 565 449 503 q 565 700 538 628 q 592 840 592 772 q 585 849 592 849 q 505 842 547 849 q 419 825 463 836 q 390 738 407 788 q 354 633 374 689 q 313 517 335 576 q 271 397 292 457 z "},"Q":{"ha":760,"x_min":68,"x_max":724,"o":"m 506 -89 q 517 -97 517 -89 q 502 -108 517 -100 q 469 -115 488 -115 q 418 -101 440 -115 q 372 -69 396 -86 q 321 -38 349 -53 q 254 -24 293 -24 q 229 -17 244 -24 q 199 1 214 -10 q 172 28 183 13 q 157 58 160 43 q 94 153 121 93 q 68 308 68 213 q 83 454 68 376 q 119 608 97 532 q 170 756 142 685 q 227 881 199 826 q 280 967 256 935 q 321 999 304 999 q 340 991 331 999 q 355 972 349 983 q 365 949 361 961 q 369 928 369 936 q 353 883 369 917 q 314 797 338 849 q 263 679 290 746 q 211 539 235 613 q 172 386 188 465 q 156 231 156 307 q 173 126 156 168 q 206 85 190 85 q 298 117 249 85 q 395 204 347 149 q 487 335 443 260 q 564 494 531 410 q 617 670 597 579 q 638 849 638 761 q 633 897 638 882 q 625 911 629 911 q 517 881 565 911 q 435 815 469 851 q 381 748 400 778 q 360 718 361 718 q 351 721 356 718 q 347 726 347 724 q 358 756 347 733 q 385 808 368 779 q 426 870 403 838 q 474 930 449 903 q 526 974 500 957 q 575 992 551 992 q 620 982 594 992 q 669 947 646 972 q 708 879 692 922 q 724 769 724 836 q 688 529 724 650 q 599 304 653 408 q 482 122 546 200 q 361 11 418 43 q 408 -24 386 -7 q 449 -56 431 -42 q 482 -80 468 -71 q 506 -89 496 -89 z "},"R":{"ha":686,"x_min":51,"x_max":674,"o":"m 674 761 q 648 619 674 688 q 581 494 622 551 q 490 394 540 438 q 392 328 440 351 q 433 236 413 282 q 468 151 453 190 q 493 83 483 111 q 503 44 503 54 q 499 8 503 26 q 485 -10 496 -10 q 445 21 471 -10 q 388 98 419 51 q 324 201 357 144 q 261 308 290 257 q 245 313 253 310 q 229 318 238 315 q 182 190 204 250 q 141 84 160 129 q 109 13 122 39 q 92 -14 96 -14 q 64 9 76 -14 q 51 65 51 32 q 64 126 51 76 q 96 245 76 175 q 140 397 115 315 q 187 555 164 479 q 228 692 210 631 q 257 781 247 753 l 128 733 q 117 738 125 733 q 101 749 110 742 q 87 767 93 757 q 81 788 81 776 q 97 804 81 790 q 143 836 114 818 q 213 874 172 854 q 303 911 254 894 q 331 984 319 957 q 346 1011 343 1011 q 394 988 369 1011 q 431 940 419 964 q 460 942 446 942 q 490 943 475 943 q 560 926 526 943 q 618 884 593 910 q 658 826 643 858 q 674 761 674 793 m 343 433 q 435 509 392 463 q 510 610 478 556 q 560 725 542 665 q 579 840 579 785 q 572 849 579 849 q 492 842 535 849 q 407 825 450 836 q 360 686 388 767 q 300 515 332 606 q 320 479 310 500 q 343 433 331 458 z "},"S":{"ha":607,"x_min":26,"x_max":651,"o":"m 651 847 q 648 838 651 840 q 642 835 644 835 q 608 847 622 835 q 584 873 594 858 q 563 899 574 888 q 539 911 553 911 q 514 906 533 911 q 468 890 494 901 q 413 861 442 879 q 359 817 383 843 q 319 756 335 792 q 303 676 303 721 q 319 644 303 663 q 358 601 335 625 q 408 547 381 576 q 459 478 436 517 q 498 394 482 440 q 514 290 514 347 q 490 193 514 246 q 427 94 465 140 q 342 18 389 49 q 249 -12 294 -12 q 160 15 200 -12 q 90 79 119 43 q 43 150 60 115 q 26 200 26 185 q 28 214 26 206 q 34 231 31 222 q 42 244 38 239 q 50 250 46 250 q 71 224 57 250 q 102 169 85 199 q 140 113 119 139 q 179 88 160 88 q 247 113 207 88 q 323 177 286 138 q 386 266 360 217 q 413 364 413 315 q 397 451 413 413 q 357 520 381 489 q 306 578 333 551 q 254 632 278 606 q 215 688 231 658 q 199 753 199 717 q 228 851 199 807 q 301 928 258 896 q 392 977 343 960 q 478 994 440 994 q 547 974 515 994 q 602 928 579 954 q 638 878 625 903 q 651 847 651 854 z "},"T":{"ha":694,"x_min":69,"x_max":811,"o":"m 811 892 q 782 883 811 888 q 707 873 753 878 q 607 865 661 868 q 503 858 553 861 q 458 721 486 806 q 395 540 429 636 q 325 344 361 443 q 258 166 289 246 q 206 36 228 86 q 178 -14 185 -14 q 150 9 163 -14 q 138 65 138 32 q 147 124 138 82 q 173 225 157 167 q 210 353 189 283 q 251 492 231 422 q 293 628 272 563 q 329 743 314 693 q 354 824 344 793 q 364 854 364 854 q 232 860 288 854 q 140 873 176 865 q 87 888 104 881 q 69 900 69 896 q 117 912 69 904 q 235 929 164 919 q 390 949 307 939 q 546 968 474 960 q 667 982 618 976 q 719 988 717 988 q 744 980 729 988 q 774 958 760 972 q 800 927 789 944 q 811 892 811 910 z "},"U":{"ha":703,"x_min":60,"x_max":699,"o":"m 614 936 q 622 957 614 957 q 645 944 632 957 q 670 915 658 932 q 690 877 682 897 q 699 843 699 857 q 678 643 699 744 q 622 447 657 542 q 544 269 588 351 q 453 124 500 186 q 360 27 406 63 q 276 -8 314 -8 q 224 3 260 -8 q 152 48 189 14 q 88 144 115 82 q 60 308 60 206 q 72 467 60 388 q 103 621 83 547 q 147 758 122 694 q 196 869 171 822 q 243 944 221 917 q 282 971 265 971 q 299 960 292 971 q 311 934 307 949 q 317 905 315 919 q 319 882 319 890 q 292 820 319 867 q 233 694 265 774 q 174 499 201 614 q 147 231 147 383 q 152 169 147 199 q 167 115 157 139 q 190 77 176 92 q 218 63 203 63 q 300 102 256 63 q 388 208 344 142 q 473 360 432 274 q 545 543 514 447 q 595 737 576 639 q 614 924 614 835 l 614 936 z "},"V":{"ha":782,"x_min":182,"x_max":768,"o":"m 697 990 q 724 981 711 990 q 747 957 738 971 q 763 928 757 943 q 768 900 768 913 q 749 852 768 894 q 699 744 731 810 q 628 598 668 679 q 547 432 589 517 q 463 267 504 347 q 388 125 422 188 q 331 24 354 63 q 303 -14 308 -14 q 288 1 300 -14 q 264 38 276 15 q 242 87 251 60 q 232 139 232 114 q 228 230 232 161 q 219 388 225 299 q 207 576 214 478 q 194 759 200 675 q 185 899 189 843 q 182 961 182 956 q 188 975 182 967 q 201 983 193 983 q 232 977 214 983 q 265 960 250 971 q 292 933 281 949 q 303 900 303 918 q 304 858 303 892 q 309 772 306 824 q 316 658 313 721 q 323 526 319 594 q 331 391 326 458 q 338 265 335 324 q 406 414 368 333 q 481 575 443 494 q 557 731 519 656 q 624 863 594 806 q 674 956 654 921 q 697 990 693 990 z "},"W":{"ha":1042,"x_min":189,"x_max":1103,"o":"m 1033 990 q 1060 981 1047 990 q 1082 957 1072 971 q 1097 928 1092 943 q 1103 900 1103 913 q 1084 852 1103 894 q 1034 744 1065 810 q 963 598 1003 679 q 881 432 924 517 q 798 267 839 347 q 723 125 757 188 q 666 24 689 63 q 638 -14 643 -14 q 624 1 635 -14 q 600 38 613 15 q 577 87 588 60 q 567 139 567 114 q 567 203 567 157 q 566 310 567 250 q 565 435 565 369 q 563 560 564 501 q 484 355 525 457 q 407 171 443 253 q 344 38 371 89 q 310 -14 318 -14 q 295 1 307 -14 q 271 38 283 15 q 248 87 258 60 q 238 139 238 114 q 234 230 238 161 q 225 388 231 299 q 213 576 219 478 q 201 759 207 675 q 192 899 196 843 q 189 961 189 956 q 194 975 189 967 q 208 983 200 983 q 238 977 221 983 q 272 960 256 971 q 299 933 288 949 q 310 900 310 918 q 311 858 310 892 q 316 772 313 824 q 323 658 319 721 q 330 526 326 594 q 338 391 333 458 q 344 265 342 324 q 423 467 385 367 q 492 646 461 567 q 547 774 524 725 q 579 824 569 824 q 607 813 592 824 q 635 785 622 801 q 657 752 649 769 q 665 721 665 735 q 665 679 665 710 q 664 601 664 649 q 665 452 664 539 q 672 265 667 365 q 744 416 706 335 q 822 578 783 497 q 897 733 861 658 q 963 865 933 807 q 1010 956 992 922 q 1033 990 1029 990 z "},"X":{"ha":753,"x_min":44,"x_max":825,"o":"m 825 925 q 799 882 825 919 q 728 787 772 844 q 628 656 685 729 q 513 506 572 582 q 556 348 535 425 q 594 210 578 271 q 622 107 611 149 q 632 56 632 65 q 627 19 632 36 q 614 3 622 3 q 572 36 593 3 q 527 125 550 69 q 481 253 504 181 q 436 407 458 326 q 312 253 374 328 q 197 120 250 178 q 106 28 144 63 q 53 -7 68 -7 q 44 3 44 -7 q 60 48 44 17 q 104 123 76 79 q 168 218 132 167 q 244 324 204 269 q 324 433 283 379 q 400 535 364 488 q 355 697 376 622 q 317 827 333 771 q 292 919 301 883 q 283 969 283 956 q 306 989 283 989 q 361 965 338 989 q 403 900 385 942 q 436 801 421 858 q 468 678 451 744 l 478 638 q 577 771 529 707 q 663 884 625 835 q 724 963 700 933 q 751 993 747 993 q 773 986 760 993 q 797 969 786 979 q 817 947 808 958 q 825 925 825 935 z "},"Y":{"ha":607,"x_min":165,"x_max":724,"o":"m 724 925 q 695 881 724 919 q 621 783 667 842 q 519 652 575 724 q 408 510 463 581 q 340 322 375 415 q 277 153 306 228 q 229 33 249 79 q 206 -14 210 -14 q 177 9 189 -14 q 165 65 165 32 q 177 124 165 79 q 208 233 189 168 q 250 378 226 299 q 297 540 274 457 q 252 701 274 628 q 215 829 231 774 q 191 921 200 885 q 182 969 182 957 q 204 989 182 989 q 260 965 236 989 q 301 900 283 942 q 335 801 319 858 q 367 678 350 744 l 376 638 q 476 771 428 707 q 561 884 524 835 q 622 963 599 933 q 650 993 646 993 q 672 986 658 993 q 696 969 685 979 q 715 947 707 958 q 724 925 724 935 z "},"Z":{"ha":781,"x_min":50,"x_max":819,"o":"m 504 101 q 535 90 518 101 q 565 65 551 79 q 587 36 578 50 q 596 17 596 22 q 577 3 596 8 q 530 -3 558 -1 q 469 -6 501 -6 q 413 -7 438 -7 l 58 -7 q 50 3 50 -7 q 68 53 50 18 q 116 134 86 88 q 185 237 146 181 q 267 351 225 293 q 351 464 308 408 q 429 567 393 519 q 560 740 500 660 q 667 883 619 821 q 610 879 639 881 q 557 877 582 878 q 512 876 532 876 q 479 875 492 875 q 423 877 454 875 q 363 885 392 879 q 315 897 335 890 q 296 915 296 904 q 319 935 296 926 q 382 951 343 944 q 469 963 421 958 q 568 972 518 968 q 664 977 618 975 q 743 979 710 979 q 763 972 750 979 q 789 955 776 965 q 810 933 801 944 q 819 911 819 921 q 791 858 819 900 q 715 752 763 815 q 603 610 667 689 q 472 446 540 531 q 312 245 388 340 q 172 76 236 150 q 263 87 214 82 q 360 95 313 92 q 446 100 407 99 q 504 101 485 101 z "},"":{"ha":1319,"x_min":58,"x_max":1258,"o":"m 1136 265 q 1183 282 1161 265 q 1219 319 1204 299 q 1253 374 1238 343 q 1215 297 1239 332 q 1165 242 1196 268 q 1092 211 1135 217 q 914 93 1015 136 q 697 50 813 50 q 478 94 581 50 q 299 215 375 139 q 179 392 224 290 q 135 611 135 494 q 138 665 135 639 q 144 717 140 692 q 58 643 100 685 q 82 681 63 651 q 133 751 101 711 q 207 836 164 792 q 304 917 250 881 q 422 978 358 954 q 560 1003 486 1003 q 618 991 600 1003 q 636 958 636 979 q 611 889 636 931 q 549 797 586 847 q 469 689 513 746 q 388 574 425 632 q 326 459 351 515 q 301 353 301 403 q 325 286 301 313 q 388 260 349 260 q 420 267 404 260 q 448 285 436 274 q 467 311 460 297 q 475 339 475 325 q 468 346 475 346 q 453 344 464 344 q 426 353 439 344 q 413 394 413 363 q 433 478 413 431 q 486 577 454 525 q 554 683 518 629 q 622 788 590 738 q 675 880 654 838 q 696 953 696 922 q 669 1016 696 988 q 585 1044 643 1044 q 467 1028 524 1044 q 359 985 410 1013 q 265 920 308 957 q 183 842 221 883 q 269 976 217 915 q 388 1081 321 1038 q 533 1149 454 1125 q 697 1174 611 1174 q 916 1129 814 1174 q 1094 1009 1018 1085 q 1214 831 1169 933 q 1258 611 1258 728 q 1239 464 1258 535 q 1183 331 1219 393 q 1154 324 1165 324 q 1085 354 1108 324 q 1049 429 1061 385 q 1133 533 1096 481 q 1194 629 1171 586 q 1199 642 1199 638 q 1196 646 1199 646 q 1185 635 1190 646 q 1121 539 1157 585 q 1042 454 1085 493 q 1026 527 1033 490 q 1009 594 1019 564 q 982 644 999 625 q 938 663 965 663 q 903 655 918 663 q 878 635 889 647 q 862 612 868 624 q 853 592 856 600 q 857 586 853 586 q 916 572 892 586 q 958 536 940 558 q 987 485 975 514 q 1010 428 999 457 q 894 358 953 383 q 782 332 835 332 q 711 370 732 332 q 690 467 690 408 q 708 600 690 528 q 749 739 725 672 q 853 748 793 742 q 978 761 914 754 q 1101 773 1042 768 q 1200 778 1160 778 q 1215 785 1215 778 q 1201 790 1215 790 q 1099 790 1144 790 q 1007 791 1054 790 q 904 792 960 792 q 769 792 849 792 q 821 898 796 856 q 861 940 846 940 q 869 931 868 940 q 871 914 871 922 q 879 906 871 906 q 897 924 897 906 q 887 945 897 935 q 856 956 876 956 q 792 909 831 956 q 717 792 754 863 l 672 792 q 653 788 663 792 q 644 776 644 785 q 656 756 644 767 q 690 740 667 744 q 631 581 654 664 q 607 428 607 499 q 640 306 607 354 q 757 258 674 258 q 894 299 826 258 q 1019 399 961 340 q 1038 349 1028 372 q 1062 306 1049 325 q 1093 276 1075 288 q 1136 265 1111 265 z "},"":{"ha":1319,"x_min":58,"x_max":1258,"o":"m 1136 265 q 1183 282 1161 265 q 1219 319 1204 299 q 1253 374 1238 343 q 1215 297 1239 332 q 1165 242 1196 268 q 1092 211 1135 217 q 914 93 1015 136 q 697 50 813 50 q 478 94 581 50 q 299 215 375 139 q 179 392 224 290 q 135 611 135 494 q 138 665 135 639 q 144 717 140 692 q 58 643 100 685 q 82 681 63 651 q 133 751 101 711 q 207 836 164 792 q 304 917 250 881 q 422 978 358 954 q 560 1003 486 1003 q 618 991 600 1003 q 636 958 636 979 q 611 889 636 931 q 549 797 586 847 q 469 689 513 746 q 388 574 425 632 q 326 459 351 515 q 301 353 301 403 q 325 286 301 313 q 388 260 349 260 q 420 267 404 260 q 448 285 436 274 q 467 311 460 297 q 475 339 475 325 q 468 346 475 346 q 453 344 464 344 q 426 353 439 344 q 413 394 413 363 q 433 478 413 431 q 486 577 454 525 q 554 683 518 629 q 622 788 590 738 q 675 880 654 838 q 696 953 696 922 q 669 1016 696 988 q 585 1044 643 1044 q 467 1028 524 1044 q 359 985 410 1013 q 265 920 308 957 q 183 842 221 883 q 269 976 217 915 q 388 1081 321 1038 q 533 1149 454 1125 q 697 1174 611 1174 q 916 1129 814 1174 q 1094 1009 1018 1085 q 1214 831 1169 933 q 1258 611 1258 728 q 1239 464 1258 535 q 1183 331 1219 393 q 1154 324 1165 324 q 1085 354 1108 324 q 1049 429 1061 385 q 1133 533 1096 481 q 1194 629 1171 586 q 1199 642 1199 638 q 1196 646 1199 646 q 1185 635 1190 646 q 1121 539 1157 585 q 1042 454 1085 493 q 1026 527 1033 490 q 1009 594 1019 564 q 982 644 999 625 q 938 663 965 663 q 903 655 918 663 q 878 635 889 647 q 862 612 868 624 q 853 592 856 600 q 857 586 853 586 q 916 572 892 586 q 958 536 940 558 q 987 485 975 514 q 1010 428 999 457 q 894 358 953 383 q 782 332 835 332 q 711 370 732 332 q 690 467 690 408 q 708 600 690 528 q 749 739 725 672 q 853 748 793 742 q 978 761 914 754 q 1101 773 1042 768 q 1200 778 1160 778 q 1215 785 1215 778 q 1201 790 1215 790 q 1099 790 1144 790 q 1007 791 1054 790 q 904 792 960 792 q 769 792 849 792 q 821 898 796 856 q 861 940 846 940 q 869 931 868 940 q 871 914 871 922 q 879 906 871 906 q 897 924 897 906 q 887 945 897 935 q 856 956 876 956 q 792 909 831 956 q 717 792 754 863 l 672 792 q 653 788 663 792 q 644 776 644 785 q 656 756 644 767 q 690 740 667 744 q 631 581 654 664 q 607 428 607 499 q 640 306 607 354 q 757 258 674 258 q 894 299 826 258 q 1019 399 961 340 q 1038 349 1028 372 q 1062 306 1049 325 q 1093 276 1075 288 q 1136 265 1111 265 z "},"":{"ha":1319,"x_min":58,"x_max":1258,"o":"m 1136 265 q 1183 282 1161 265 q 1219 319 1204 299 q 1253 374 1238 343 q 1215 297 1239 332 q 1165 242 1196 268 q 1092 211 1135 217 q 914 93 1015 136 q 697 50 813 50 q 478 94 581 50 q 299 215 375 139 q 179 392 224 290 q 135 611 135 494 q 138 665 135 639 q 144 717 140 692 q 58 643 100 685 q 82 681 63 651 q 133 751 101 711 q 207 836 164 792 q 304 917 250 881 q 422 978 358 954 q 560 1003 486 1003 q 618 991 600 1003 q 636 958 636 979 q 611 889 636 931 q 549 797 586 847 q 469 689 513 746 q 388 574 425 632 q 326 459 351 515 q 301 353 301 403 q 325 286 301 313 q 388 260 349 260 q 420 267 404 260 q 448 285 436 274 q 467 311 460 297 q 475 339 475 325 q 468 346 475 346 q 453 344 464 344 q 426 353 439 344 q 413 394 413 363 q 433 478 413 431 q 486 577 454 525 q 554 683 518 629 q 622 788 590 738 q 675 880 654 838 q 696 953 696 922 q 669 1016 696 988 q 585 1044 643 1044 q 467 1028 524 1044 q 359 985 410 1013 q 265 920 308 957 q 183 842 221 883 q 269 976 217 915 q 388 1081 321 1038 q 533 1149 454 1125 q 697 1174 611 1174 q 916 1129 814 1174 q 1094 1009 1018 1085 q 1214 831 1169 933 q 1258 611 1258 728 q 1239 464 1258 535 q 1183 331 1219 393 q 1154 324 1165 324 q 1085 354 1108 324 q 1049 429 1061 385 q 1133 533 1096 481 q 1194 629 1171 586 q 1199 642 1199 638 q 1196 646 1199 646 q 1185 635 1190 646 q 1121 539 1157 585 q 1042 454 1085 493 q 1026 527 1033 490 q 1009 594 1019 564 q 982 644 999 625 q 938 663 965 663 q 903 655 918 663 q 878 635 889 647 q 862 612 868 624 q 853 592 856 600 q 857 586 853 586 q 916 572 892 586 q 958 536 940 558 q 987 485 975 514 q 1010 428 999 457 q 894 358 953 383 q 782 332 835 332 q 711 370 732 332 q 690 467 690 408 q 708 600 690 528 q 749 739 725 672 q 853 748 793 742 q 978 761 914 754 q 1101 773 1042 768 q 1200 778 1160 778 q 1215 785 1215 778 q 1201 790 1215 790 q 1099 790 1144 790 q 1007 791 1054 790 q 904 792 960 792 q 769 792 849 792 q 821 898 796 856 q 861 940 846 940 q 869 931 868 940 q 871 914 871 922 q 879 906 871 906 q 897 924 897 906 q 887 945 897 935 q 856 956 876 956 q 792 909 831 956 q 717 792 754 863 l 672 792 q 653 788 663 792 q 644 776 644 785 q 656 756 644 767 q 690 740 667 744 q 631 581 654 664 q 607 428 607 499 q 640 306 607 354 q 757 258 674 258 q 894 299 826 258 q 1019 399 961 340 q 1038 349 1028 372 q 1062 306 1049 325 q 1093 276 1075 288 q 1136 265 1111 265 z "},"":{"ha":1319,"x_min":58,"x_max":1258,"o":"m 1136 265 q 1183 282 1161 265 q 1219 319 1204 299 q 1253 374 1238 343 q 1215 297 1239 332 q 1165 242 1196 268 q 1092 211 1135 217 q 914 93 1015 136 q 697 50 813 50 q 478 94 581 50 q 299 215 375 139 q 179 392 224 290 q 135 611 135 494 q 138 665 135 639 q 144 717 140 692 q 58 643 100 685 q 82 681 63 651 q 133 751 101 711 q 207 836 164 792 q 304 917 250 881 q 422 978 358 954 q 560 1003 486 1003 q 618 991 600 1003 q 636 958 636 979 q 611 889 636 931 q 549 797 586 847 q 469 689 513 746 q 388 574 425 632 q 326 459 351 515 q 301 353 301 403 q 325 286 301 313 q 388 260 349 260 q 420 267 404 260 q 448 285 436 274 q 467 311 460 297 q 475 339 475 325 q 468 346 475 346 q 453 344 464 344 q 426 353 439 344 q 413 394 413 363 q 433 478 413 431 q 486 577 454 525 q 554 683 518 629 q 622 788 590 738 q 675 880 654 838 q 696 953 696 922 q 669 1016 696 988 q 585 1044 643 1044 q 467 1028 524 1044 q 359 985 410 1013 q 265 920 308 957 q 183 842 221 883 q 269 976 217 915 q 388 1081 321 1038 q 533 1149 454 1125 q 697 1174 611 1174 q 916 1129 814 1174 q 1094 1009 1018 1085 q 1214 831 1169 933 q 1258 611 1258 728 q 1239 464 1258 535 q 1183 331 1219 393 q 1154 324 1165 324 q 1085 354 1108 324 q 1049 429 1061 385 q 1133 533 1096 481 q 1194 629 1171 586 q 1199 642 1199 638 q 1196 646 1199 646 q 1185 635 1190 646 q 1121 539 1157 585 q 1042 454 1085 493 q 1026 527 1033 490 q 1009 594 1019 564 q 982 644 999 625 q 938 663 965 663 q 903 655 918 663 q 878 635 889 647 q 862 612 868 624 q 853 592 856 600 q 857 586 853 586 q 916 572 892 586 q 958 536 940 558 q 987 485 975 514 q 1010 428 999 457 q 894 358 953 383 q 782 332 835 332 q 711 370 732 332 q 690 467 690 408 q 708 600 690 528 q 749 739 725 672 q 853 748 793 742 q 978 761 914 754 q 1101 773 1042 768 q 1200 778 1160 778 q 1215 785 1215 778 q 1201 790 1215 790 q 1099 790 1144 790 q 1007 791 1054 790 q 904 792 960 792 q 769 792 849 792 q 821 898 796 856 q 861 940 846 940 q 869 931 868 940 q 871 914 871 922 q 879 906 871 906 q 897 924 897 906 q 887 945 897 935 q 856 956 876 956 q 792 909 831 956 q 717 792 754 863 l 672 792 q 653 788 663 792 q 644 776 644 785 q 656 756 644 767 q 690 740 667 744 q 631 581 654 664 q 607 428 607 499 q 640 306 607 354 q 757 258 674 258 q 894 299 826 258 q 1019 399 961 340 q 1038 349 1028 372 q 1062 306 1049 325 q 1093 276 1075 288 q 1136 265 1111 265 z "},"":{"ha":1319,"x_min":58,"x_max":1258,"o":"m 1136 265 q 1183 282 1161 265 q 1219 319 1204 299 q 1253 374 1238 343 q 1215 297 1239 332 q 1165 242 1196 268 q 1092 211 1135 217 q 914 93 1015 136 q 697 50 813 50 q 478 94 581 50 q 299 215 375 139 q 179 392 224 290 q 135 611 135 494 q 138 665 135 639 q 144 717 140 692 q 58 643 100 685 q 82 681 63 651 q 133 751 101 711 q 207 836 164 792 q 304 917 250 881 q 422 978 358 954 q 560 1003 486 1003 q 618 991 600 1003 q 636 958 636 979 q 611 889 636 931 q 549 797 586 847 q 469 689 513 746 q 388 574 425 632 q 326 459 351 515 q 301 353 301 403 q 325 286 301 313 q 388 260 349 260 q 420 267 404 260 q 448 285 436 274 q 467 311 460 297 q 475 339 475 325 q 468 346 475 346 q 453 344 464 344 q 426 353 439 344 q 413 394 413 363 q 433 478 413 431 q 486 577 454 525 q 554 683 518 629 q 622 788 590 738 q 675 880 654 838 q 696 953 696 922 q 669 1016 696 988 q 585 1044 643 1044 q 467 1028 524 1044 q 359 985 410 1013 q 265 920 308 957 q 183 842 221 883 q 269 976 217 915 q 388 1081 321 1038 q 533 1149 454 1125 q 697 1174 611 1174 q 916 1129 814 1174 q 1094 1009 1018 1085 q 1214 831 1169 933 q 1258 611 1258 728 q 1239 464 1258 535 q 1183 331 1219 393 q 1154 324 1165 324 q 1085 354 1108 324 q 1049 429 1061 385 q 1133 533 1096 481 q 1194 629 1171 586 q 1199 642 1199 638 q 1196 646 1199 646 q 1185 635 1190 646 q 1121 539 1157 585 q 1042 454 1085 493 q 1026 527 1033 490 q 1009 594 1019 564 q 982 644 999 625 q 938 663 965 663 q 903 655 918 663 q 878 635 889 647 q 862 612 868 624 q 853 592 856 600 q 857 586 853 586 q 916 572 892 586 q 958 536 940 558 q 987 485 975 514 q 1010 428 999 457 q 894 358 953 383 q 782 332 835 332 q 711 370 732 332 q 690 467 690 408 q 708 600 690 528 q 749 739 725 672 q 853 748 793 742 q 978 761 914 754 q 1101 773 1042 768 q 1200 778 1160 778 q 1215 785 1215 778 q 1201 790 1215 790 q 1099 790 1144 790 q 1007 791 1054 790 q 904 792 960 792 q 769 792 849 792 q 821 898 796 856 q 861 940 846 940 q 869 931 868 940 q 871 914 871 922 q 879 906 871 906 q 897 924 897 906 q 887 945 897 935 q 856 956 876 956 q 792 909 831 956 q 717 792 754 863 l 672 792 q 653 788 663 792 q 644 776 644 785 q 656 756 644 767 q 690 740 667 744 q 631 581 654 664 q 607 428 607 499 q 640 306 607 354 q 757 258 674 258 q 894 299 826 258 q 1019 399 961 340 q 1038 349 1028 372 q 1062 306 1049 325 q 1093 276 1075 288 q 1136 265 1111 265 z "},"(":{"ha":1319,"x_min":58,"x_max":1258,"o":"m 1136 265 q 1183 282 1161 265 q 1219 319 1204 299 q 1253 374 1238 343 q 1215 297 1239 332 q 1165 242 1196 268 q 1092 211 1135 217 q 914 93 1015 136 q 697 50 813 50 q 478 94 581 50 q 299 215 375 139 q 179 392 224 290 q 135 611 135 494 q 138 665 135 639 q 144 717 140 692 q 58 643 100 685 q 82 681 63 651 q 133 751 101 711 q 207 836 164 792 q 304 917 250 881 q 422 978 358 954 q 560 1003 486 1003 q 618 991 600 1003 q 636 958 636 979 q 611 889 636 931 q 549 797 586 847 q 469 689 513 746 q 388 574 425 632 q 326 459 351 515 q 301 353 301 403 q 325 286 301 313 q 388 260 349 260 q 420 267 404 260 q 448 285 436 274 q 467 311 460 297 q 475 339 475 325 q 468 346 475 346 q 453 344 464 344 q 426 353 439 344 q 413 394 413 363 q 433 478 413 431 q 486 577 454 525 q 554 683 518 629 q 622 788 590 738 q 675 880 654 838 q 696 953 696 922 q 669 1016 696 988 q 585 1044 643 1044 q 467 1028 524 1044 q 359 985 410 1013 q 265 920 308 957 q 183 842 221 883 q 269 976 217 915 q 388 1081 321 1038 q 533 1149 454 1125 q 697 1174 611 1174 q 916 1129 814 1174 q 1094 1009 1018 1085 q 1214 831 1169 933 q 1258 611 1258 728 q 1239 464 1258 535 q 1183 331 1219 393 q 1154 324 1165 324 q 1085 354 1108 324 q 1049 429 1061 385 q 1133 533 1096 481 q 1194 629 1171 586 q 1199 642 1199 638 q 1196 646 1199 646 q 1185 635 1190 646 q 1121 539 1157 585 q 1042 454 1085 493 q 1026 527 1033 490 q 1009 594 1019 564 q 982 644 999 625 q 938 663 965 663 q 903 655 918 663 q 878 635 889 647 q 862 612 868 624 q 853 592 856 600 q 857 586 853 586 q 916 572 892 586 q 958 536 940 558 q 987 485 975 514 q 1010 428 999 457 q 894 358 953 383 q 782 332 835 332 q 711 370 732 332 q 690 467 690 408 q 708 600 690 528 q 749 739 725 672 q 853 748 793 742 q 978 761 914 754 q 1101 773 1042 768 q 1200 778 1160 778 q 1215 785 1215 778 q 1201 790 1215 790 q 1099 790 1144 790 q 1007 791 1054 790 q 904 792 960 792 q 769 792 849 792 q 821 898 796 856 q 861 940 846 940 q 869 931 868 940 q 871 914 871 922 q 879 906 871 906 q 897 924 897 906 q 887 945 897 935 q 856 956 876 956 q 792 909 831 956 q 717 792 754 863 l 672 792 q 653 788 663 792 q 644 776 644 785 q 656 756 644 767 q 690 740 667 744 q 631 581 654 664 q 607 428 607 499 q 640 306 607 354 q 757 258 674 258 q 894 299 826 258 q 1019 399 961 340 q 1038 349 1028 372 q 1062 306 1049 325 q 1093 276 1075 288 q 1136 265 1111 265 z "},")":{"ha":1319,"x_min":58,"x_max":1258,"o":"m 1136 265 q 1183 282 1161 265 q 1219 319 1204 299 q 1253 374 1238 343 q 1215 297 1239 332 q 1165 242 1196 268 q 1092 211 1135 217 q 914 93 1015 136 q 697 50 813 50 q 478 94 581 50 q 299 215 375 139 q 179 392 224 290 q 135 611 135 494 q 138 665 135 639 q 144 717 140 692 q 58 643 100 685 q 82 681 63 651 q 133 751 101 711 q 207 836 164 792 q 304 917 250 881 q 422 978 358 954 q 560 1003 486 1003 q 618 991 600 1003 q 636 958 636 979 q 611 889 636 931 q 549 797 586 847 q 469 689 513 746 q 388 574 425 632 q 326 459 351 515 q 301 353 301 403 q 325 286 301 313 q 388 260 349 260 q 420 267 404 260 q 448 285 436 274 q 467 311 460 297 q 475 339 475 325 q 468 346 475 346 q 453 344 464 344 q 426 353 439 344 q 413 394 413 363 q 433 478 413 431 q 486 577 454 525 q 554 683 518 629 q 622 788 590 738 q 675 880 654 838 q 696 953 696 922 q 669 1016 696 988 q 585 1044 643 1044 q 467 1028 524 1044 q 359 985 410 1013 q 265 920 308 957 q 183 842 221 883 q 269 976 217 915 q 388 1081 321 1038 q 533 1149 454 1125 q 697 1174 611 1174 q 916 1129 814 1174 q 1094 1009 1018 1085 q 1214 831 1169 933 q 1258 611 1258 728 q 1239 464 1258 535 q 1183 331 1219 393 q 1154 324 1165 324 q 1085 354 1108 324 q 1049 429 1061 385 q 1133 533 1096 481 q 1194 629 1171 586 q 1199 642 1199 638 q 1196 646 1199 646 q 1185 635 1190 646 q 1121 539 1157 585 q 1042 454 1085 493 q 1026 527 1033 490 q 1009 594 1019 564 q 982 644 999 625 q 938 663 965 663 q 903 655 918 663 q 878 635 889 647 q 862 612 868 624 q 853 592 856 600 q 857 586 853 586 q 916 572 892 586 q 958 536 940 558 q 987 485 975 514 q 1010 428 999 457 q 894 358 953 383 q 782 332 835 332 q 711 370 732 332 q 690 467 690 408 q 708 600 690 528 q 749 739 725 672 q 853 748 793 742 q 978 761 914 754 q 1101 773 1042 768 q 1200 778 1160 778 q 1215 785 1215 778 q 1201 790 1215 790 q 1099 790 1144 790 q 1007 791 1054 790 q 904 792 960 792 q 769 792 849 792 q 821 898 796 856 q 861 940 846 940 q 869 931 868 940 q 871 914 871 922 q 879 906 871 906 q 897 924 897 906 q 887 945 897 935 q 856 956 876 956 q 792 909 831 956 q 717 792 754 863 l 672 792 q 653 788 663 792 q 644 776 644 785 q 656 756 644 767 q 690 740 667 744 q 631 581 654 664 q 607 428 607 499 q 640 306 607 354 q 757 258 674 258 q 894 299 826 258 q 1019 399 961 340 q 1038 349 1028 372 q 1062 306 1049 325 q 1093 276 1075 288 q 1136 265 1111 265 z "},"{":{"ha":1319,"x_min":58,"x_max":1258,"o":"m 1136 265 q 1183 282 1161 265 q 1219 319 1204 299 q 1253 374 1238 343 q 1215 297 1239 332 q 1165 242 1196 268 q 1092 211 1135 217 q 914 93 1015 136 q 697 50 813 50 q 478 94 581 50 q 299 215 375 139 q 179 392 224 290 q 135 611 135 494 q 138 665 135 639 q 144 717 140 692 q 58 643 100 685 q 82 681 63 651 q 133 751 101 711 q 207 836 164 792 q 304 917 250 881 q 422 978 358 954 q 560 1003 486 1003 q 618 991 600 1003 q 636 958 636 979 q 611 889 636 931 q 549 797 586 847 q 469 689 513 746 q 388 574 425 632 q 326 459 351 515 q 301 353 301 403 q 325 286 301 313 q 388 260 349 260 q 420 267 404 260 q 448 285 436 274 q 467 311 460 297 q 475 339 475 325 q 468 346 475 346 q 453 344 464 344 q 426 353 439 344 q 413 394 413 363 q 433 478 413 431 q 486 577 454 525 q 554 683 518 629 q 622 788 590 738 q 675 880 654 838 q 696 953 696 922 q 669 1016 696 988 q 585 1044 643 1044 q 467 1028 524 1044 q 359 985 410 1013 q 265 920 308 957 q 183 842 221 883 q 269 976 217 915 q 388 1081 321 1038 q 533 1149 454 1125 q 697 1174 611 1174 q 916 1129 814 1174 q 1094 1009 1018 1085 q 1214 831 1169 933 q 1258 611 1258 728 q 1239 464 1258 535 q 1183 331 1219 393 q 1154 324 1165 324 q 1085 354 1108 324 q 1049 429 1061 385 q 1133 533 1096 481 q 1194 629 1171 586 q 1199 642 1199 638 q 1196 646 1199 646 q 1185 635 1190 646 q 1121 539 1157 585 q 1042 454 1085 493 q 1026 527 1033 490 q 1009 594 1019 564 q 982 644 999 625 q 938 663 965 663 q 903 655 918 663 q 878 635 889 647 q 862 612 868 624 q 853 592 856 600 q 857 586 853 586 q 916 572 892 586 q 958 536 940 558 q 987 485 975 514 q 1010 428 999 457 q 894 358 953 383 q 782 332 835 332 q 711 370 732 332 q 690 467 690 408 q 708 600 690 528 q 749 739 725 672 q 853 748 793 742 q 978 761 914 754 q 1101 773 1042 768 q 1200 778 1160 778 q 1215 785 1215 778 q 1201 790 1215 790 q 1099 790 1144 790 q 1007 791 1054 790 q 904 792 960 792 q 769 792 849 792 q 821 898 796 856 q 861 940 846 940 q 869 931 868 940 q 871 914 871 922 q 879 906 871 906 q 897 924 897 906 q 887 945 897 935 q 856 956 876 956 q 792 909 831 956 q 717 792 754 863 l 672 792 q 653 788 663 792 q 644 776 644 785 q 656 756 644 767 q 690 740 667 744 q 631 581 654 664 q 607 428 607 499 q 640 306 607 354 q 757 258 674 258 q 894 299 826 258 q 1019 399 961 340 q 1038 349 1028 372 q 1062 306 1049 325 q 1093 276 1075 288 q 1136 265 1111 265 z "},"}":{"ha":1319,"x_min":58,"x_max":1258,"o":"m 1136 265 q 1183 282 1161 265 q 1219 319 1204 299 q 1253 374 1238 343 q 1215 297 1239 332 q 1165 242 1196 268 q 1092 211 1135 217 q 914 93 1015 136 q 697 50 813 50 q 478 94 581 50 q 299 215 375 139 q 179 392 224 290 q 135 611 135 494 q 138 665 135 639 q 144 717 140 692 q 58 643 100 685 q 82 681 63 651 q 133 751 101 711 q 207 836 164 792 q 304 917 250 881 q 422 978 358 954 q 560 1003 486 1003 q 618 991 600 1003 q 636 958 636 979 q 611 889 636 931 q 549 797 586 847 q 469 689 513 746 q 388 574 425 632 q 326 459 351 515 q 301 353 301 403 q 325 286 301 313 q 388 260 349 260 q 420 267 404 260 q 448 285 436 274 q 467 311 460 297 q 475 339 475 325 q 468 346 475 346 q 453 344 464 344 q 426 353 439 344 q 413 394 413 363 q 433 478 413 431 q 486 577 454 525 q 554 683 518 629 q 622 788 590 738 q 675 880 654 838 q 696 953 696 922 q 669 1016 696 988 q 585 1044 643 1044 q 467 1028 524 1044 q 359 985 410 1013 q 265 920 308 957 q 183 842 221 883 q 269 976 217 915 q 388 1081 321 1038 q 533 1149 454 1125 q 697 1174 611 1174 q 916 1129 814 1174 q 1094 1009 1018 1085 q 1214 831 1169 933 q 1258 611 1258 728 q 1239 464 1258 535 q 1183 331 1219 393 q 1154 324 1165 324 q 1085 354 1108 324 q 1049 429 1061 385 q 1133 533 1096 481 q 1194 629 1171 586 q 1199 642 1199 638 q 1196 646 1199 646 q 1185 635 1190 646 q 1121 539 1157 585 q 1042 454 1085 493 q 1026 527 1033 490 q 1009 594 1019 564 q 982 644 999 625 q 938 663 965 663 q 903 655 918 663 q 878 635 889 647 q 862 612 868 624 q 853 592 856 600 q 857 586 853 586 q 916 572 892 586 q 958 536 940 558 q 987 485 975 514 q 1010 428 999 457 q 894 358 953 383 q 782 332 835 332 q 711 370 732 332 q 690 467 690 408 q 708 600 690 528 q 749 739 725 672 q 853 748 793 742 q 978 761 914 754 q 1101 773 1042 768 q 1200 778 1160 778 q 1215 785 1215 778 q 1201 790 1215 790 q 1099 790 1144 790 q 1007 791 1054 790 q 904 792 960 792 q 769 792 849 792 q 821 898 796 856 q 861 940 846 940 q 869 931 868 940 q 871 914 871 922 q 879 906 871 906 q 897 924 897 906 q 887 945 897 935 q 856 956 876 956 q 792 909 831 956 q 717 792 754 863 l 672 792 q 653 788 663 792 q 644 776 644 785 q 656 756 644 767 q 690 740 667 744 q 631 581 654 664 q 607 428 607 499 q 640 306 607 354 q 757 258 674 258 q 894 299 826 258 q 1019 399 961 340 q 1038 349 1028 372 q 1062 306 1049 325 q 1093 276 1075 288 q 1136 265 1111 265 z "},"[":{"ha":1319,"x_min":58,"x_max":1258,"o":"m 1136 265 q 1183 282 1161 265 q 1219 319 1204 299 q 1253 374 1238 343 q 1215 297 1239 332 q 1165 242 1196 268 q 1092 211 1135 217 q 914 93 1015 136 q 697 50 813 50 q 478 94 581 50 q 299 215 375 139 q 179 392 224 290 q 135 611 135 494 q 138 665 135 639 q 144 717 140 692 q 58 643 100 685 q 82 681 63 651 q 133 751 101 711 q 207 836 164 792 q 304 917 250 881 q 422 978 358 954 q 560 1003 486 1003 q 618 991 600 1003 q 636 958 636 979 q 611 889 636 931 q 549 797 586 847 q 469 689 513 746 q 388 574 425 632 q 326 459 351 515 q 301 353 301 403 q 325 286 301 313 q 388 260 349 260 q 420 267 404 260 q 448 285 436 274 q 467 311 460 297 q 475 339 475 325 q 468 346 475 346 q 453 344 464 344 q 426 353 439 344 q 413 394 413 363 q 433 478 413 431 q 486 577 454 525 q 554 683 518 629 q 622 788 590 738 q 675 880 654 838 q 696 953 696 922 q 669 1016 696 988 q 585 1044 643 1044 q 467 1028 524 1044 q 359 985 410 1013 q 265 920 308 957 q 183 842 221 883 q 269 976 217 915 q 388 1081 321 1038 q 533 1149 454 1125 q 697 1174 611 1174 q 916 1129 814 1174 q 1094 1009 1018 1085 q 1214 831 1169 933 q 1258 611 1258 728 q 1239 464 1258 535 q 1183 331 1219 393 q 1154 324 1165 324 q 1085 354 1108 324 q 1049 429 1061 385 q 1133 533 1096 481 q 1194 629 1171 586 q 1199 642 1199 638 q 1196 646 1199 646 q 1185 635 1190 646 q 1121 539 1157 585 q 1042 454 1085 493 q 1026 527 1033 490 q 1009 594 1019 564 q 982 644 999 625 q 938 663 965 663 q 903 655 918 663 q 878 635 889 647 q 862 612 868 624 q 853 592 856 600 q 857 586 853 586 q 916 572 892 586 q 958 536 940 558 q 987 485 975 514 q 1010 428 999 457 q 894 358 953 383 q 782 332 835 332 q 711 370 732 332 q 690 467 690 408 q 708 600 690 528 q 749 739 725 672 q 853 748 793 742 q 978 761 914 754 q 1101 773 1042 768 q 1200 778 1160 778 q 1215 785 1215 778 q 1201 790 1215 790 q 1099 790 1144 790 q 1007 791 1054 790 q 904 792 960 792 q 769 792 849 792 q 821 898 796 856 q 861 940 846 940 q 869 931 868 940 q 871 914 871 922 q 879 906 871 906 q 897 924 897 906 q 887 945 897 935 q 856 956 876 956 q 792 909 831 956 q 717 792 754 863 l 672 792 q 653 788 663 792 q 644 776 644 785 q 656 756 644 767 q 690 740 667 744 q 631 581 654 664 q 607 428 607 499 q 640 306 607 354 q 757 258 674 258 q 894 299 826 258 q 1019 399 961 340 q 1038 349 1028 372 q 1062 306 1049 325 q 1093 276 1075 288 q 1136 265 1111 265 z "},"]":{"ha":1319,"x_min":58,"x_max":1258,"o":"m 1136 265 q 1183 282 1161 265 q 1219 319 1204 299 q 1253 374 1238 343 q 1215 297 1239 332 q 1165 242 1196 268 q 1092 211 1135 217 q 914 93 1015 136 q 697 50 813 50 q 478 94 581 50 q 299 215 375 139 q 179 392 224 290 q 135 611 135 494 q 138 665 135 639 q 144 717 140 692 q 58 643 100 685 q 82 681 63 651 q 133 751 101 711 q 207 836 164 792 q 304 917 250 881 q 422 978 358 954 q 560 1003 486 1003 q 618 991 600 1003 q 636 958 636 979 q 611 889 636 931 q 549 797 586 847 q 469 689 513 746 q 388 574 425 632 q 326 459 351 515 q 301 353 301 403 q 325 286 301 313 q 388 260 349 260 q 420 267 404 260 q 448 285 436 274 q 467 311 460 297 q 475 339 475 325 q 468 346 475 346 q 453 344 464 344 q 426 353 439 344 q 413 394 413 363 q 433 478 413 431 q 486 577 454 525 q 554 683 518 629 q 622 788 590 738 q 675 880 654 838 q 696 953 696 922 q 669 1016 696 988 q 585 1044 643 1044 q 467 1028 524 1044 q 359 985 410 1013 q 265 920 308 957 q 183 842 221 883 q 269 976 217 915 q 388 1081 321 1038 q 533 1149 454 1125 q 697 1174 611 1174 q 916 1129 814 1174 q 1094 1009 1018 1085 q 1214 831 1169 933 q 1258 611 1258 728 q 1239 464 1258 535 q 1183 331 1219 393 q 1154 324 1165 324 q 1085 354 1108 324 q 1049 429 1061 385 q 1133 533 1096 481 q 1194 629 1171 586 q 1199 642 1199 638 q 1196 646 1199 646 q 1185 635 1190 646 q 1121 539 1157 585 q 1042 454 1085 493 q 1026 527 1033 490 q 1009 594 1019 564 q 982 644 999 625 q 938 663 965 663 q 903 655 918 663 q 878 635 889 647 q 862 612 868 624 q 853 592 856 600 q 857 586 853 586 q 916 572 892 586 q 958 536 940 558 q 987 485 975 514 q 1010 428 999 457 q 894 358 953 383 q 782 332 835 332 q 711 370 732 332 q 690 467 690 408 q 708 600 690 528 q 749 739 725 672 q 853 748 793 742 q 978 761 914 754 q 1101 773 1042 768 q 1200 778 1160 778 q 1215 785 1215 778 q 1201 790 1215 790 q 1099 790 1144 790 q 1007 791 1054 790 q 904 792 960 792 q 769 792 849 792 q 821 898 796 856 q 861 940 846 940 q 869 931 868 940 q 871 914 871 922 q 879 906 871 906 q 897 924 897 906 q 887 945 897 935 q 856 956 876 956 q 792 909 831 956 q 717 792 754 863 l 672 792 q 653 788 663 792 q 644 776 644 785 q 656 756 644 767 q 690 740 667 744 q 631 581 654 664 q 607 428 607 499 q 640 306 607 354 q 757 258 674 258 q 894 299 826 258 q 1019 399 961 340 q 1038 349 1028 372 q 1062 306 1049 325 q 1093 276 1075 288 q 1136 265 1111 265 z "},".":{"ha":1319,"x_min":58,"x_max":1258,"o":"m 1136 265 q 1183 282 1161 265 q 1219 319 1204 299 q 1253 374 1238 343 q 1215 297 1239 332 q 1165 242 1196 268 q 1092 211 1135 217 q 914 93 1015 136 q 697 50 813 50 q 478 94 581 50 q 299 215 375 139 q 179 392 224 290 q 135 611 135 494 q 138 665 135 639 q 144 717 140 692 q 58 643 100 685 q 82 681 63 651 q 133 751 101 711 q 207 836 164 792 q 304 917 250 881 q 422 978 358 954 q 560 1003 486 1003 q 618 991 600 1003 q 636 958 636 979 q 611 889 636 931 q 549 797 586 847 q 469 689 513 746 q 388 574 425 632 q 326 459 351 515 q 301 353 301 403 q 325 286 301 313 q 388 260 349 260 q 420 267 404 260 q 448 285 436 274 q 467 311 460 297 q 475 339 475 325 q 468 346 475 346 q 453 344 464 344 q 426 353 439 344 q 413 394 413 363 q 433 478 413 431 q 486 577 454 525 q 554 683 518 629 q 622 788 590 738 q 675 880 654 838 q 696 953 696 922 q 669 1016 696 988 q 585 1044 643 1044 q 467 1028 524 1044 q 359 985 410 1013 q 265 920 308 957 q 183 842 221 883 q 269 976 217 915 q 388 1081 321 1038 q 533 1149 454 1125 q 697 1174 611 1174 q 916 1129 814 1174 q 1094 1009 1018 1085 q 1214 831 1169 933 q 1258 611 1258 728 q 1239 464 1258 535 q 1183 331 1219 393 q 1154 324 1165 324 q 1085 354 1108 324 q 1049 429 1061 385 q 1133 533 1096 481 q 1194 629 1171 586 q 1199 642 1199 638 q 1196 646 1199 646 q 1185 635 1190 646 q 1121 539 1157 585 q 1042 454 1085 493 q 1026 527 1033 490 q 1009 594 1019 564 q 982 644 999 625 q 938 663 965 663 q 903 655 918 663 q 878 635 889 647 q 862 612 868 624 q 853 592 856 600 q 857 586 853 586 q 916 572 892 586 q 958 536 940 558 q 987 485 975 514 q 1010 428 999 457 q 894 358 953 383 q 782 332 835 332 q 711 370 732 332 q 690 467 690 408 q 708 600 690 528 q 749 739 725 672 q 853 748 793 742 q 978 761 914 754 q 1101 773 1042 768 q 1200 778 1160 778 q 1215 785 1215 778 q 1201 790 1215 790 q 1099 790 1144 790 q 1007 791 1054 790 q 904 792 960 792 q 769 792 849 792 q 821 898 796 856 q 861 940 846 940 q 869 931 868 940 q 871 914 871 922 q 879 906 871 906 q 897 924 897 906 q 887 945 897 935 q 856 956 876 956 q 792 909 831 956 q 717 792 754 863 l 672 792 q 653 788 663 792 q 644 776 644 785 q 656 756 644 767 q 690 740 667 744 q 631 581 654 664 q 607 428 607 499 q 640 306 607 354 q 757 258 674 258 q 894 299 826 258 q 1019 399 961 340 q 1038 349 1028 372 q 1062 306 1049 325 q 1093 276 1075 288 q 1136 265 1111 265 z "},"!":{"ha":1319,"x_min":58,"x_max":1258,"o":"m 1136 265 q 1183 282 1161 265 q 1219 319 1204 299 q 1253 374 1238 343 q 1215 297 1239 332 q 1165 242 1196 268 q 1092 211 1135 217 q 914 93 1015 136 q 697 50 813 50 q 478 94 581 50 q 299 215 375 139 q 179 392 224 290 q 135 611 135 494 q 138 665 135 639 q 144 717 140 692 q 58 643 100 685 q 82 681 63 651 q 133 751 101 711 q 207 836 164 792 q 304 917 250 881 q 422 978 358 954 q 560 1003 486 1003 q 618 991 600 1003 q 636 958 636 979 q 611 889 636 931 q 549 797 586 847 q 469 689 513 746 q 388 574 425 632 q 326 459 351 515 q 301 353 301 403 q 325 286 301 313 q 388 260 349 260 q 420 267 404 260 q 448 285 436 274 q 467 311 460 297 q 475 339 475 325 q 468 346 475 346 q 453 344 464 344 q 426 353 439 344 q 413 394 413 363 q 433 478 413 431 q 486 577 454 525 q 554 683 518 629 q 622 788 590 738 q 675 880 654 838 q 696 953 696 922 q 669 1016 696 988 q 585 1044 643 1044 q 467 1028 524 1044 q 359 985 410 1013 q 265 920 308 957 q 183 842 221 883 q 269 976 217 915 q 388 1081 321 1038 q 533 1149 454 1125 q 697 1174 611 1174 q 916 1129 814 1174 q 1094 1009 1018 1085 q 1214 831 1169 933 q 1258 611 1258 728 q 1239 464 1258 535 q 1183 331 1219 393 q 1154 324 1165 324 q 1085 354 1108 324 q 1049 429 1061 385 q 1133 533 1096 481 q 1194 629 1171 586 q 1199 642 1199 638 q 1196 646 1199 646 q 1185 635 1190 646 q 1121 539 1157 585 q 1042 454 1085 493 q 1026 527 1033 490 q 1009 594 1019 564 q 982 644 999 625 q 938 663 965 663 q 903 655 918 663 q 878 635 889 647 q 862 612 868 624 q 853 592 856 600 q 857 586 853 586 q 916 572 892 586 q 958 536 940 558 q 987 485 975 514 q 1010 428 999 457 q 894 358 953 383 q 782 332 835 332 q 711 370 732 332 q 690 467 690 408 q 708 600 690 528 q 749 739 725 672 q 853 748 793 742 q 978 761 914 754 q 1101 773 1042 768 q 1200 778 1160 778 q 1215 785 1215 778 q 1201 790 1215 790 q 1099 790 1144 790 q 1007 791 1054 790 q 904 792 960 792 q 769 792 849 792 q 821 898 796 856 q 861 940 846 940 q 869 931 868 940 q 871 914 871 922 q 879 906 871 906 q 897 924 897 906 q 887 945 897 935 q 856 956 876 956 q 792 909 831 956 q 717 792 754 863 l 672 792 q 653 788 663 792 q 644 776 644 785 q 656 756 644 767 q 690 740 667 744 q 631 581 654 664 q 607 428 607 499 q 640 306 607 354 q 757 258 674 258 q 894 299 826 258 q 1019 399 961 340 q 1038 349 1028 372 q 1062 306 1049 325 q 1093 276 1075 288 q 1136 265 1111 265 z "},"?":{"ha":1319,"x_min":58,"x_max":1258,"o":"m 1136 265 q 1183 282 1161 265 q 1219 319 1204 299 q 1253 374 1238 343 q 1215 297 1239 332 q 1165 242 1196 268 q 1092 211 1135 217 q 914 93 1015 136 q 697 50 813 50 q 478 94 581 50 q 299 215 375 139 q 179 392 224 290 q 135 611 135 494 q 138 665 135 639 q 144 717 140 692 q 58 643 100 685 q 82 681 63 651 q 133 751 101 711 q 207 836 164 792 q 304 917 250 881 q 422 978 358 954 q 560 1003 486 1003 q 618 991 600 1003 q 636 958 636 979 q 611 889 636 931 q 549 797 586 847 q 469 689 513 746 q 388 574 425 632 q 326 459 351 515 q 301 353 301 403 q 325 286 301 313 q 388 260 349 260 q 420 267 404 260 q 448 285 436 274 q 467 311 460 297 q 475 339 475 325 q 468 346 475 346 q 453 344 464 344 q 426 353 439 344 q 413 394 413 363 q 433 478 413 431 q 486 577 454 525 q 554 683 518 629 q 622 788 590 738 q 675 880 654 838 q 696 953 696 922 q 669 1016 696 988 q 585 1044 643 1044 q 467 1028 524 1044 q 359 985 410 1013 q 265 920 308 957 q 183 842 221 883 q 269 976 217 915 q 388 1081 321 1038 q 533 1149 454 1125 q 697 1174 611 1174 q 916 1129 814 1174 q 1094 1009 1018 1085 q 1214 831 1169 933 q 1258 611 1258 728 q 1239 464 1258 535 q 1183 331 1219 393 q 1154 324 1165 324 q 1085 354 1108 324 q 1049 429 1061 385 q 1133 533 1096 481 q 1194 629 1171 586 q 1199 642 1199 638 q 1196 646 1199 646 q 1185 635 1190 646 q 1121 539 1157 585 q 1042 454 1085 493 q 1026 527 1033 490 q 1009 594 1019 564 q 982 644 999 625 q 938 663 965 663 q 903 655 918 663 q 878 635 889 647 q 862 612 868 624 q 853 592 856 600 q 857 586 853 586 q 916 572 892 586 q 958 536 940 558 q 987 485 975 514 q 1010 428 999 457 q 894 358 953 383 q 782 332 835 332 q 711 370 732 332 q 690 467 690 408 q 708 600 690 528 q 749 739 725 672 q 853 748 793 742 q 978 761 914 754 q 1101 773 1042 768 q 1200 778 1160 778 q 1215 785 1215 778 q 1201 790 1215 790 q 1099 790 1144 790 q 1007 791 1054 790 q 904 792 960 792 q 769 792 849 792 q 821 898 796 856 q 861 940 846 940 q 869 931 868 940 q 871 914 871 922 q 879 906 871 906 q 897 924 897 906 q 887 945 897 935 q 856 956 876 956 q 792 909 831 956 q 717 792 754 863 l 672 792 q 653 788 663 792 q 644 776 644 785 q 656 756 644 767 q 690 740 667 744 q 631 581 654 664 q 607 428 607 499 q 640 306 607 354 q 757 258 674 258 q 894 299 826 258 q 1019 399 961 340 q 1038 349 1028 372 q 1062 306 1049 325 q 1093 276 1075 288 q 1136 265 1111 265 z "},",":{"ha":1319,"x_min":58,"x_max":1258,"o":"m 1136 265 q 1183 282 1161 265 q 1219 319 1204 299 q 1253 374 1238 343 q 1215 297 1239 332 q 1165 242 1196 268 q 1092 211 1135 217 q 914 93 1015 136 q 697 50 813 50 q 478 94 581 50 q 299 215 375 139 q 179 392 224 290 q 135 611 135 494 q 138 665 135 639 q 144 717 140 692 q 58 643 100 685 q 82 681 63 651 q 133 751 101 711 q 207 836 164 792 q 304 917 250 881 q 422 978 358 954 q 560 1003 486 1003 q 618 991 600 1003 q 636 958 636 979 q 611 889 636 931 q 549 797 586 847 q 469 689 513 746 q 388 574 425 632 q 326 459 351 515 q 301 353 301 403 q 325 286 301 313 q 388 260 349 260 q 420 267 404 260 q 448 285 436 274 q 467 311 460 297 q 475 339 475 325 q 468 346 475 346 q 453 344 464 344 q 426 353 439 344 q 413 394 413 363 q 433 478 413 431 q 486 577 454 525 q 554 683 518 629 q 622 788 590 738 q 675 880 654 838 q 696 953 696 922 q 669 1016 696 988 q 585 1044 643 1044 q 467 1028 524 1044 q 359 985 410 1013 q 265 920 308 957 q 183 842 221 883 q 269 976 217 915 q 388 1081 321 1038 q 533 1149 454 1125 q 697 1174 611 1174 q 916 1129 814 1174 q 1094 1009 1018 1085 q 1214 831 1169 933 q 1258 611 1258 728 q 1239 464 1258 535 q 1183 331 1219 393 q 1154 324 1165 324 q 1085 354 1108 324 q 1049 429 1061 385 q 1133 533 1096 481 q 1194 629 1171 586 q 1199 642 1199 638 q 1196 646 1199 646 q 1185 635 1190 646 q 1121 539 1157 585 q 1042 454 1085 493 q 1026 527 1033 490 q 1009 594 1019 564 q 982 644 999 625 q 938 663 965 663 q 903 655 918 663 q 878 635 889 647 q 862 612 868 624 q 853 592 856 600 q 857 586 853 586 q 916 572 892 586 q 958 536 940 558 q 987 485 975 514 q 1010 428 999 457 q 894 358 953 383 q 782 332 835 332 q 711 370 732 332 q 690 467 690 408 q 708 600 690 528 q 749 739 725 672 q 853 748 793 742 q 978 761 914 754 q 1101 773 1042 768 q 1200 778 1160 778 q 1215 785 1215 778 q 1201 790 1215 790 q 1099 790 1144 790 q 1007 791 1054 790 q 904 792 960 792 q 769 792 849 792 q 821 898 796 856 q 861 940 846 940 q 869 931 868 940 q 871 914 871 922 q 879 906 871 906 q 897 924 897 906 q 887 945 897 935 q 856 956 876 956 q 792 909 831 956 q 717 792 754 863 l 672 792 q 653 788 663 792 q 644 776 644 785 q 656 756 644 767 q 690 740 667 744 q 631 581 654 664 q 607 428 607 499 q 640 306 607 354 q 757 258 674 258 q 894 299 826 258 q 1019 399 961 340 q 1038 349 1028 372 q 1062 306 1049 325 q 1093 276 1075 288 q 1136 265 1111 265 z "},":":{"ha":1319,"x_min":58,"x_max":1258,"o":"m 1136 265 q 1183 282 1161 265 q 1219 319 1204 299 q 1253 374 1238 343 q 1215 297 1239 332 q 1165 242 1196 268 q 1092 211 1135 217 q 914 93 1015 136 q 697 50 813 50 q 478 94 581 50 q 299 215 375 139 q 179 392 224 290 q 135 611 135 494 q 138 665 135 639 q 144 717 140 692 q 58 643 100 685 q 82 681 63 651 q 133 751 101 711 q 207 836 164 792 q 304 917 250 881 q 422 978 358 954 q 560 1003 486 1003 q 618 991 600 1003 q 636 958 636 979 q 611 889 636 931 q 549 797 586 847 q 469 689 513 746 q 388 574 425 632 q 326 459 351 515 q 301 353 301 403 q 325 286 301 313 q 388 260 349 260 q 420 267 404 260 q 448 285 436 274 q 467 311 460 297 q 475 339 475 325 q 468 346 475 346 q 453 344 464 344 q 426 353 439 344 q 413 394 413 363 q 433 478 413 431 q 486 577 454 525 q 554 683 518 629 q 622 788 590 738 q 675 880 654 838 q 696 953 696 922 q 669 1016 696 988 q 585 1044 643 1044 q 467 1028 524 1044 q 359 985 410 1013 q 265 920 308 957 q 183 842 221 883 q 269 976 217 915 q 388 1081 321 1038 q 533 1149 454 1125 q 697 1174 611 1174 q 916 1129 814 1174 q 1094 1009 1018 1085 q 1214 831 1169 933 q 1258 611 1258 728 q 1239 464 1258 535 q 1183 331 1219 393 q 1154 324 1165 324 q 1085 354 1108 324 q 1049 429 1061 385 q 1133 533 1096 481 q 1194 629 1171 586 q 1199 642 1199 638 q 1196 646 1199 646 q 1185 635 1190 646 q 1121 539 1157 585 q 1042 454 1085 493 q 1026 527 1033 490 q 1009 594 1019 564 q 982 644 999 625 q 938 663 965 663 q 903 655 918 663 q 878 635 889 647 q 862 612 868 624 q 853 592 856 600 q 857 586 853 586 q 916 572 892 586 q 958 536 940 558 q 987 485 975 514 q 1010 428 999 457 q 894 358 953 383 q 782 332 835 332 q 711 370 732 332 q 690 467 690 408 q 708 600 690 528 q 749 739 725 672 q 853 748 793 742 q 978 761 914 754 q 1101 773 1042 768 q 1200 778 1160 778 q 1215 785 1215 778 q 1201 790 1215 790 q 1099 790 1144 790 q 1007 791 1054 790 q 904 792 960 792 q 769 792 849 792 q 821 898 796 856 q 861 940 846 940 q 869 931 868 940 q 871 914 871 922 q 879 906 871 906 q 897 924 897 906 q 887 945 897 935 q 856 956 876 956 q 792 909 831 956 q 717 792 754 863 l 672 792 q 653 788 663 792 q 644 776 644 785 q 656 756 644 767 q 690 740 667 744 q 631 581 654 664 q 607 428 607 499 q 640 306 607 354 q 757 258 674 258 q 894 299 826 258 q 1019 399 961 340 q 1038 349 1028 372 q 1062 306 1049 325 q 1093 276 1075 288 q 1136 265 1111 265 z "},";":{"ha":1319,"x_min":58,"x_max":1258,"o":"m 1136 265 q 1183 282 1161 265 q 1219 319 1204 299 q 1253 374 1238 343 q 1215 297 1239 332 q 1165 242 1196 268 q 1092 211 1135 217 q 914 93 1015 136 q 697 50 813 50 q 478 94 581 50 q 299 215 375 139 q 179 392 224 290 q 135 611 135 494 q 138 665 135 639 q 144 717 140 692 q 58 643 100 685 q 82 681 63 651 q 133 751 101 711 q 207 836 164 792 q 304 917 250 881 q 422 978 358 954 q 560 1003 486 1003 q 618 991 600 1003 q 636 958 636 979 q 611 889 636 931 q 549 797 586 847 q 469 689 513 746 q 388 574 425 632 q 326 459 351 515 q 301 353 301 403 q 325 286 301 313 q 388 260 349 260 q 420 267 404 260 q 448 285 436 274 q 467 311 460 297 q 475 339 475 325 q 468 346 475 346 q 453 344 464 344 q 426 353 439 344 q 413 394 413 363 q 433 478 413 431 q 486 577 454 525 q 554 683 518 629 q 622 788 590 738 q 675 880 654 838 q 696 953 696 922 q 669 1016 696 988 q 585 1044 643 1044 q 467 1028 524 1044 q 359 985 410 1013 q 265 920 308 957 q 183 842 221 883 q 269 976 217 915 q 388 1081 321 1038 q 533 1149 454 1125 q 697 1174 611 1174 q 916 1129 814 1174 q 1094 1009 1018 1085 q 1214 831 1169 933 q 1258 611 1258 728 q 1239 464 1258 535 q 1183 331 1219 393 q 1154 324 1165 324 q 1085 354 1108 324 q 1049 429 1061 385 q 1133 533 1096 481 q 1194 629 1171 586 q 1199 642 1199 638 q 1196 646 1199 646 q 1185 635 1190 646 q 1121 539 1157 585 q 1042 454 1085 493 q 1026 527 1033 490 q 1009 594 1019 564 q 982 644 999 625 q 938 663 965 663 q 903 655 918 663 q 878 635 889 647 q 862 612 868 624 q 853 592 856 600 q 857 586 853 586 q 916 572 892 586 q 958 536 940 558 q 987 485 975 514 q 1010 428 999 457 q 894 358 953 383 q 782 332 835 332 q 711 370 732 332 q 690 467 690 408 q 708 600 690 528 q 749 739 725 672 q 853 748 793 742 q 978 761 914 754 q 1101 773 1042 768 q 1200 778 1160 778 q 1215 785 1215 778 q 1201 790 1215 790 q 1099 790 1144 790 q 1007 791 1054 790 q 904 792 960 792 q 769 792 849 792 q 821 898 796 856 q 861 940 846 940 q 869 931 868 940 q 871 914 871 922 q 879 906 871 906 q 897 924 897 906 q 887 945 897 935 q 856 956 876 956 q 792 909 831 956 q 717 792 754 863 l 672 792 q 653 788 663 792 q 644 776 644 785 q 656 756 644 767 q 690 740 667 744 q 631 581 654 664 q 607 428 607 499 q 640 306 607 354 q 757 258 674 258 q 894 299 826 258 q 1019 399 961 340 q 1038 349 1028 372 q 1062 306 1049 325 q 1093 276 1075 288 q 1136 265 1111 265 z "},"*":{"ha":1319,"x_min":58,"x_max":1258,"o":"m 1136 265 q 1183 282 1161 265 q 1219 319 1204 299 q 1253 374 1238 343 q 1215 297 1239 332 q 1165 242 1196 268 q 1092 211 1135 217 q 914 93 1015 136 q 697 50 813 50 q 478 94 581 50 q 299 215 375 139 q 179 392 224 290 q 135 611 135 494 q 138 665 135 639 q 144 717 140 692 q 58 643 100 685 q 82 681 63 651 q 133 751 101 711 q 207 836 164 792 q 304 917 250 881 q 422 978 358 954 q 560 1003 486 1003 q 618 991 600 1003 q 636 958 636 979 q 611 889 636 931 q 549 797 586 847 q 469 689 513 746 q 388 574 425 632 q 326 459 351 515 q 301 353 301 403 q 325 286 301 313 q 388 260 349 260 q 420 267 404 260 q 448 285 436 274 q 467 311 460 297 q 475 339 475 325 q 468 346 475 346 q 453 344 464 344 q 426 353 439 344 q 413 394 413 363 q 433 478 413 431 q 486 577 454 525 q 554 683 518 629 q 622 788 590 738 q 675 880 654 838 q 696 953 696 922 q 669 1016 696 988 q 585 1044 643 1044 q 467 1028 524 1044 q 359 985 410 1013 q 265 920 308 957 q 183 842 221 883 q 269 976 217 915 q 388 1081 321 1038 q 533 1149 454 1125 q 697 1174 611 1174 q 916 1129 814 1174 q 1094 1009 1018 1085 q 1214 831 1169 933 q 1258 611 1258 728 q 1239 464 1258 535 q 1183 331 1219 393 q 1154 324 1165 324 q 1085 354 1108 324 q 1049 429 1061 385 q 1133 533 1096 481 q 1194 629 1171 586 q 1199 642 1199 638 q 1196 646 1199 646 q 1185 635 1190 646 q 1121 539 1157 585 q 1042 454 1085 493 q 1026 527 1033 490 q 1009 594 1019 564 q 982 644 999 625 q 938 663 965 663 q 903 655 918 663 q 878 635 889 647 q 862 612 868 624 q 853 592 856 600 q 857 586 853 586 q 916 572 892 586 q 958 536 940 558 q 987 485 975 514 q 1010 428 999 457 q 894 358 953 383 q 782 332 835 332 q 711 370 732 332 q 690 467 690 408 q 708 600 690 528 q 749 739 725 672 q 853 748 793 742 q 978 761 914 754 q 1101 773 1042 768 q 1200 778 1160 778 q 1215 785 1215 778 q 1201 790 1215 790 q 1099 790 1144 790 q 1007 791 1054 790 q 904 792 960 792 q 769 792 849 792 q 821 898 796 856 q 861 940 846 940 q 869 931 868 940 q 871 914 871 922 q 879 906 871 906 q 897 924 897 906 q 887 945 897 935 q 856 956 876 956 q 792 909 831 956 q 717 792 754 863 l 672 792 q 653 788 663 792 q 644 776 644 785 q 656 756 644 767 q 690 740 667 744 q 631 581 654 664 q 607 428 607 499 q 640 306 607 354 q 757 258 674 258 q 894 299 826 258 q 1019 399 961 340 q 1038 349 1028 372 q 1062 306 1049 325 q 1093 276 1075 288 q 1136 265 1111 265 z "},"|":{"ha":1319,"x_min":58,"x_max":1258,"o":"m 1136 265 q 1183 282 1161 265 q 1219 319 1204 299 q 1253 374 1238 343 q 1215 297 1239 332 q 1165 242 1196 268 q 1092 211 1135 217 q 914 93 1015 136 q 697 50 813 50 q 478 94 581 50 q 299 215 375 139 q 179 392 224 290 q 135 611 135 494 q 138 665 135 639 q 144 717 140 692 q 58 643 100 685 q 82 681 63 651 q 133 751 101 711 q 207 836 164 792 q 304 917 250 881 q 422 978 358 954 q 560 1003 486 1003 q 618 991 600 1003 q 636 958 636 979 q 611 889 636 931 q 549 797 586 847 q 469 689 513 746 q 388 574 425 632 q 326 459 351 515 q 301 353 301 403 q 325 286 301 313 q 388 260 349 260 q 420 267 404 260 q 448 285 436 274 q 467 311 460 297 q 475 339 475 325 q 468 346 475 346 q 453 344 464 344 q 426 353 439 344 q 413 394 413 363 q 433 478 413 431 q 486 577 454 525 q 554 683 518 629 q 622 788 590 738 q 675 880 654 838 q 696 953 696 922 q 669 1016 696 988 q 585 1044 643 1044 q 467 1028 524 1044 q 359 985 410 1013 q 265 920 308 957 q 183 842 221 883 q 269 976 217 915 q 388 1081 321 1038 q 533 1149 454 1125 q 697 1174 611 1174 q 916 1129 814 1174 q 1094 1009 1018 1085 q 1214 831 1169 933 q 1258 611 1258 728 q 1239 464 1258 535 q 1183 331 1219 393 q 1154 324 1165 324 q 1085 354 1108 324 q 1049 429 1061 385 q 1133 533 1096 481 q 1194 629 1171 586 q 1199 642 1199 638 q 1196 646 1199 646 q 1185 635 1190 646 q 1121 539 1157 585 q 1042 454 1085 493 q 1026 527 1033 490 q 1009 594 1019 564 q 982 644 999 625 q 938 663 965 663 q 903 655 918 663 q 878 635 889 647 q 862 612 868 624 q 853 592 856 600 q 857 586 853 586 q 916 572 892 586 q 958 536 940 558 q 987 485 975 514 q 1010 428 999 457 q 894 358 953 383 q 782 332 835 332 q 711 370 732 332 q 690 467 690 408 q 708 600 690 528 q 749 739 725 672 q 853 748 793 742 q 978 761 914 754 q 1101 773 1042 768 q 1200 778 1160 778 q 1215 785 1215 778 q 1201 790 1215 790 q 1099 790 1144 790 q 1007 791 1054 790 q 904 792 960 792 q 769 792 849 792 q 821 898 796 856 q 861 940 846 940 q 869 931 868 940 q 871 914 871 922 q 879 906 871 906 q 897 924 897 906 q 887 945 897 935 q 856 956 876 956 q 792 909 831 956 q 717 792 754 863 l 672 792 q 653 788 663 792 q 644 776 644 785 q 656 756 644 767 q 690 740 667 744 q 631 581 654 664 q 607 428 607 499 q 640 306 607 354 q 757 258 674 258 q 894 299 826 258 q 1019 399 961 340 q 1038 349 1028 372 q 1062 306 1049 325 q 1093 276 1075 288 q 1136 265 1111 265 z "},"$":{"ha":1319,"x_min":58,"x_max":1258,"o":"m 1136 265 q 1183 282 1161 265 q 1219 319 1204 299 q 1253 374 1238 343 q 1215 297 1239 332 q 1165 242 1196 268 q 1092 211 1135 217 q 914 93 1015 136 q 697 50 813 50 q 478 94 581 50 q 299 215 375 139 q 179 392 224 290 q 135 611 135 494 q 138 665 135 639 q 144 717 140 692 q 58 643 100 685 q 82 681 63 651 q 133 751 101 711 q 207 836 164 792 q 304 917 250 881 q 422 978 358 954 q 560 1003 486 1003 q 618 991 600 1003 q 636 958 636 979 q 611 889 636 931 q 549 797 586 847 q 469 689 513 746 q 388 574 425 632 q 326 459 351 515 q 301 353 301 403 q 325 286 301 313 q 388 260 349 260 q 420 267 404 260 q 448 285 436 274 q 467 311 460 297 q 475 339 475 325 q 468 346 475 346 q 453 344 464 344 q 426 353 439 344 q 413 394 413 363 q 433 478 413 431 q 486 577 454 525 q 554 683 518 629 q 622 788 590 738 q 675 880 654 838 q 696 953 696 922 q 669 1016 696 988 q 585 1044 643 1044 q 467 1028 524 1044 q 359 985 410 1013 q 265 920 308 957 q 183 842 221 883 q 269 976 217 915 q 388 1081 321 1038 q 533 1149 454 1125 q 697 1174 611 1174 q 916 1129 814 1174 q 1094 1009 1018 1085 q 1214 831 1169 933 q 1258 611 1258 728 q 1239 464 1258 535 q 1183 331 1219 393 q 1154 324 1165 324 q 1085 354 1108 324 q 1049 429 1061 385 q 1133 533 1096 481 q 1194 629 1171 586 q 1199 642 1199 638 q 1196 646 1199 646 q 1185 635 1190 646 q 1121 539 1157 585 q 1042 454 1085 493 q 1026 527 1033 490 q 1009 594 1019 564 q 982 644 999 625 q 938 663 965 663 q 903 655 918 663 q 878 635 889 647 q 862 612 868 624 q 853 592 856 600 q 857 586 853 586 q 916 572 892 586 q 958 536 940 558 q 987 485 975 514 q 1010 428 999 457 q 894 358 953 383 q 782 332 835 332 q 711 370 732 332 q 690 467 690 408 q 708 600 690 528 q 749 739 725 672 q 853 748 793 742 q 978 761 914 754 q 1101 773 1042 768 q 1200 778 1160 778 q 1215 785 1215 778 q 1201 790 1215 790 q 1099 790 1144 790 q 1007 791 1054 790 q 904 792 960 792 q 769 792 849 792 q 821 898 796 856 q 861 940 846 940 q 869 931 868 940 q 871 914 871 922 q 879 906 871 906 q 897 924 897 906 q 887 945 897 935 q 856 956 876 956 q 792 909 831 956 q 717 792 754 863 l 672 792 q 653 788 663 792 q 644 776 644 785 q 656 756 644 767 q 690 740 667 744 q 631 581 654 664 q 607 428 607 499 q 640 306 607 354 q 757 258 674 258 q 894 299 826 258 q 1019 399 961 340 q 1038 349 1028 372 q 1062 306 1049 325 q 1093 276 1075 288 q 1136 265 1111 265 z "},"#":{"ha":1319,"x_min":58,"x_max":1258,"o":"m 1136 265 q 1183 282 1161 265 q 1219 319 1204 299 q 1253 374 1238 343 q 1215 297 1239 332 q 1165 242 1196 268 q 1092 211 1135 217 q 914 93 1015 136 q 697 50 813 50 q 478 94 581 50 q 299 215 375 139 q 179 392 224 290 q 135 611 135 494 q 138 665 135 639 q 144 717 140 692 q 58 643 100 685 q 82 681 63 651 q 133 751 101 711 q 207 836 164 792 q 304 917 250 881 q 422 978 358 954 q 560 1003 486 1003 q 618 991 600 1003 q 636 958 636 979 q 611 889 636 931 q 549 797 586 847 q 469 689 513 746 q 388 574 425 632 q 326 459 351 515 q 301 353 301 403 q 325 286 301 313 q 388 260 349 260 q 420 267 404 260 q 448 285 436 274 q 467 311 460 297 q 475 339 475 325 q 468 346 475 346 q 453 344 464 344 q 426 353 439 344 q 413 394 413 363 q 433 478 413 431 q 486 577 454 525 q 554 683 518 629 q 622 788 590 738 q 675 880 654 838 q 696 953 696 922 q 669 1016 696 988 q 585 1044 643 1044 q 467 1028 524 1044 q 359 985 410 1013 q 265 920 308 957 q 183 842 221 883 q 269 976 217 915 q 388 1081 321 1038 q 533 1149 454 1125 q 697 1174 611 1174 q 916 1129 814 1174 q 1094 1009 1018 1085 q 1214 831 1169 933 q 1258 611 1258 728 q 1239 464 1258 535 q 1183 331 1219 393 q 1154 324 1165 324 q 1085 354 1108 324 q 1049 429 1061 385 q 1133 533 1096 481 q 1194 629 1171 586 q 1199 642 1199 638 q 1196 646 1199 646 q 1185 635 1190 646 q 1121 539 1157 585 q 1042 454 1085 493 q 1026 527 1033 490 q 1009 594 1019 564 q 982 644 999 625 q 938 663 965 663 q 903 655 918 663 q 878 635 889 647 q 862 612 868 624 q 853 592 856 600 q 857 586 853 586 q 916 572 892 586 q 958 536 940 558 q 987 485 975 514 q 1010 428 999 457 q 894 358 953 383 q 782 332 835 332 q 711 370 732 332 q 690 467 690 408 q 708 600 690 528 q 749 739 725 672 q 853 748 793 742 q 978 761 914 754 q 1101 773 1042 768 q 1200 778 1160 778 q 1215 785 1215 778 q 1201 790 1215 790 q 1099 790 1144 790 q 1007 791 1054 790 q 904 792 960 792 q 769 792 849 792 q 821 898 796 856 q 861 940 846 940 q 869 931 868 940 q 871 914 871 922 q 879 906 871 906 q 897 924 897 906 q 887 945 897 935 q 856 956 876 956 q 792 909 831 956 q 717 792 754 863 l 672 792 q 653 788 663 792 q 644 776 644 785 q 656 756 644 767 q 690 740 667 744 q 631 581 654 664 q 607 428 607 499 q 640 306 607 354 q 757 258 674 258 q 894 299 826 258 q 1019 399 961 340 q 1038 349 1028 372 q 1062 306 1049 325 q 1093 276 1075 288 q 1136 265 1111 265 z "},"":{"ha":1319,"x_min":58,"x_max":1258,"o":"m 1136 265 q 1183 282 1161 265 q 1219 319 1204 299 q 1253 374 1238 343 q 1215 297 1239 332 q 1165 242 1196 268 q 1092 211 1135 217 q 914 93 1015 136 q 697 50 813 50 q 478 94 581 50 q 299 215 375 139 q 179 392 224 290 q 135 611 135 494 q 138 665 135 639 q 144 717 140 692 q 58 643 100 685 q 82 681 63 651 q 133 751 101 711 q 207 836 164 792 q 304 917 250 881 q 422 978 358 954 q 560 1003 486 1003 q 618 991 600 1003 q 636 958 636 979 q 611 889 636 931 q 549 797 586 847 q 469 689 513 746 q 388 574 425 632 q 326 459 351 515 q 301 353 301 403 q 325 286 301 313 q 388 260 349 260 q 420 267 404 260 q 448 285 436 274 q 467 311 460 297 q 475 339 475 325 q 468 346 475 346 q 453 344 464 344 q 426 353 439 344 q 413 394 413 363 q 433 478 413 431 q 486 577 454 525 q 554 683 518 629 q 622 788 590 738 q 675 880 654 838 q 696 953 696 922 q 669 1016 696 988 q 585 1044 643 1044 q 467 1028 524 1044 q 359 985 410 1013 q 265 920 308 957 q 183 842 221 883 q 269 976 217 915 q 388 1081 321 1038 q 533 1149 454 1125 q 697 1174 611 1174 q 916 1129 814 1174 q 1094 1009 1018 1085 q 1214 831 1169 933 q 1258 611 1258 728 q 1239 464 1258 535 q 1183 331 1219 393 q 1154 324 1165 324 q 1085 354 1108 324 q 1049 429 1061 385 q 1133 533 1096 481 q 1194 629 1171 586 q 1199 642 1199 638 q 1196 646 1199 646 q 1185 635 1190 646 q 1121 539 1157 585 q 1042 454 1085 493 q 1026 527 1033 490 q 1009 594 1019 564 q 982 644 999 625 q 938 663 965 663 q 903 655 918 663 q 878 635 889 647 q 862 612 868 624 q 853 592 856 600 q 857 586 853 586 q 916 572 892 586 q 958 536 940 558 q 987 485 975 514 q 1010 428 999 457 q 894 358 953 383 q 782 332 835 332 q 711 370 732 332 q 690 467 690 408 q 708 600 690 528 q 749 739 725 672 q 853 748 793 742 q 978 761 914 754 q 1101 773 1042 768 q 1200 778 1160 778 q 1215 785 1215 778 q 1201 790 1215 790 q 1099 790 1144 790 q 1007 791 1054 790 q 904 792 960 792 q 769 792 849 792 q 821 898 796 856 q 861 940 846 940 q 869 931 868 940 q 871 914 871 922 q 879 906 871 906 q 897 924 897 906 q 887 945 897 935 q 856 956 876 956 q 792 909 831 956 q 717 792 754 863 l 672 792 q 653 788 663 792 q 644 776 644 785 q 656 756 644 767 q 690 740 667 744 q 631 581 654 664 q 607 428 607 499 q 640 306 607 354 q 757 258 674 258 q 894 299 826 258 q 1019 399 961 340 q 1038 349 1028 372 q 1062 306 1049 325 q 1093 276 1075 288 q 1136 265 1111 265 z "},"%":{"ha":1319,"x_min":58,"x_max":1258,"o":"m 1136 265 q 1183 282 1161 265 q 1219 319 1204 299 q 1253 374 1238 343 q 1215 297 1239 332 q 1165 242 1196 268 q 1092 211 1135 217 q 914 93 1015 136 q 697 50 813 50 q 478 94 581 50 q 299 215 375 139 q 179 392 224 290 q 135 611 135 494 q 138 665 135 639 q 144 717 140 692 q 58 643 100 685 q 82 681 63 651 q 133 751 101 711 q 207 836 164 792 q 304 917 250 881 q 422 978 358 954 q 560 1003 486 1003 q 618 991 600 1003 q 636 958 636 979 q 611 889 636 931 q 549 797 586 847 q 469 689 513 746 q 388 574 425 632 q 326 459 351 515 q 301 353 301 403 q 325 286 301 313 q 388 260 349 260 q 420 267 404 260 q 448 285 436 274 q 467 311 460 297 q 475 339 475 325 q 468 346 475 346 q 453 344 464 344 q 426 353 439 344 q 413 394 413 363 q 433 478 413 431 q 486 577 454 525 q 554 683 518 629 q 622 788 590 738 q 675 880 654 838 q 696 953 696 922 q 669 1016 696 988 q 585 1044 643 1044 q 467 1028 524 1044 q 359 985 410 1013 q 265 920 308 957 q 183 842 221 883 q 269 976 217 915 q 388 1081 321 1038 q 533 1149 454 1125 q 697 1174 611 1174 q 916 1129 814 1174 q 1094 1009 1018 1085 q 1214 831 1169 933 q 1258 611 1258 728 q 1239 464 1258 535 q 1183 331 1219 393 q 1154 324 1165 324 q 1085 354 1108 324 q 1049 429 1061 385 q 1133 533 1096 481 q 1194 629 1171 586 q 1199 642 1199 638 q 1196 646 1199 646 q 1185 635 1190 646 q 1121 539 1157 585 q 1042 454 1085 493 q 1026 527 1033 490 q 1009 594 1019 564 q 982 644 999 625 q 938 663 965 663 q 903 655 918 663 q 878 635 889 647 q 862 612 868 624 q 853 592 856 600 q 857 586 853 586 q 916 572 892 586 q 958 536 940 558 q 987 485 975 514 q 1010 428 999 457 q 894 358 953 383 q 782 332 835 332 q 711 370 732 332 q 690 467 690 408 q 708 600 690 528 q 749 739 725 672 q 853 748 793 742 q 978 761 914 754 q 1101 773 1042 768 q 1200 778 1160 778 q 1215 785 1215 778 q 1201 790 1215 790 q 1099 790 1144 790 q 1007 791 1054 790 q 904 792 960 792 q 769 792 849 792 q 821 898 796 856 q 861 940 846 940 q 869 931 868 940 q 871 914 871 922 q 879 906 871 906 q 897 924 897 906 q 887 945 897 935 q 856 956 876 956 q 792 909 831 956 q 717 792 754 863 l 672 792 q 653 788 663 792 q 644 776 644 785 q 656 756 644 767 q 690 740 667 744 q 631 581 654 664 q 607 428 607 499 q 640 306 607 354 q 757 258 674 258 q 894 299 826 258 q 1019 399 961 340 q 1038 349 1028 372 q 1062 306 1049 325 q 1093 276 1075 288 q 1136 265 1111 265 z "},"@":{"ha":1319,"x_min":58,"x_max":1258,"o":"m 1136 265 q 1183 282 1161 265 q 1219 319 1204 299 q 1253 374 1238 343 q 1215 297 1239 332 q 1165 242 1196 268 q 1092 211 1135 217 q 914 93 1015 136 q 697 50 813 50 q 478 94 581 50 q 299 215 375 139 q 179 392 224 290 q 135 611 135 494 q 138 665 135 639 q 144 717 140 692 q 58 643 100 685 q 82 681 63 651 q 133 751 101 711 q 207 836 164 792 q 304 917 250 881 q 422 978 358 954 q 560 1003 486 1003 q 618 991 600 1003 q 636 958 636 979 q 611 889 636 931 q 549 797 586 847 q 469 689 513 746 q 388 574 425 632 q 326 459 351 515 q 301 353 301 403 q 325 286 301 313 q 388 260 349 260 q 420 267 404 260 q 448 285 436 274 q 467 311 460 297 q 475 339 475 325 q 468 346 475 346 q 453 344 464 344 q 426 353 439 344 q 413 394 413 363 q 433 478 413 431 q 486 577 454 525 q 554 683 518 629 q 622 788 590 738 q 675 880 654 838 q 696 953 696 922 q 669 1016 696 988 q 585 1044 643 1044 q 467 1028 524 1044 q 359 985 410 1013 q 265 920 308 957 q 183 842 221 883 q 269 976 217 915 q 388 1081 321 1038 q 533 1149 454 1125 q 697 1174 611 1174 q 916 1129 814 1174 q 1094 1009 1018 1085 q 1214 831 1169 933 q 1258 611 1258 728 q 1239 464 1258 535 q 1183 331 1219 393 q 1154 324 1165 324 q 1085 354 1108 324 q 1049 429 1061 385 q 1133 533 1096 481 q 1194 629 1171 586 q 1199 642 1199 638 q 1196 646 1199 646 q 1185 635 1190 646 q 1121 539 1157 585 q 1042 454 1085 493 q 1026 527 1033 490 q 1009 594 1019 564 q 982 644 999 625 q 938 663 965 663 q 903 655 918 663 q 878 635 889 647 q 862 612 868 624 q 853 592 856 600 q 857 586 853 586 q 916 572 892 586 q 958 536 940 558 q 987 485 975 514 q 1010 428 999 457 q 894 358 953 383 q 782 332 835 332 q 711 370 732 332 q 690 467 690 408 q 708 600 690 528 q 749 739 725 672 q 853 748 793 742 q 978 761 914 754 q 1101 773 1042 768 q 1200 778 1160 778 q 1215 785 1215 778 q 1201 790 1215 790 q 1099 790 1144 790 q 1007 791 1054 790 q 904 792 960 792 q 769 792 849 792 q 821 898 796 856 q 861 940 846 940 q 869 931 868 940 q 871 914 871 922 q 879 906 871 906 q 897 924 897 906 q 887 945 897 935 q 856 956 876 956 q 792 909 831 956 q 717 792 754 863 l 672 792 q 653 788 663 792 q 644 776 644 785 q 656 756 644 767 q 690 740 667 744 q 631 581 654 664 q 607 428 607 499 q 640 306 607 354 q 757 258 674 258 q 894 299 826 258 q 1019 399 961 340 q 1038 349 1028 372 q 1062 306 1049 325 q 1093 276 1075 288 q 1136 265 1111 265 z "},"&":{"ha":1319,"x_min":58,"x_max":1258,"o":"m 1136 265 q 1183 282 1161 265 q 1219 319 1204 299 q 1253 374 1238 343 q 1215 297 1239 332 q 1165 242 1196 268 q 1092 211 1135 217 q 914 93 1015 136 q 697 50 813 50 q 478 94 581 50 q 299 215 375 139 q 179 392 224 290 q 135 611 135 494 q 138 665 135 639 q 144 717 140 692 q 58 643 100 685 q 82 681 63 651 q 133 751 101 711 q 207 836 164 792 q 304 917 250 881 q 422 978 358 954 q 560 1003 486 1003 q 618 991 600 1003 q 636 958 636 979 q 611 889 636 931 q 549 797 586 847 q 469 689 513 746 q 388 574 425 632 q 326 459 351 515 q 301 353 301 403 q 325 286 301 313 q 388 260 349 260 q 420 267 404 260 q 448 285 436 274 q 467 311 460 297 q 475 339 475 325 q 468 346 475 346 q 453 344 464 344 q 426 353 439 344 q 413 394 413 363 q 433 478 413 431 q 486 577 454 525 q 554 683 518 629 q 622 788 590 738 q 675 880 654 838 q 696 953 696 922 q 669 1016 696 988 q 585 1044 643 1044 q 467 1028 524 1044 q 359 985 410 1013 q 265 920 308 957 q 183 842 221 883 q 269 976 217 915 q 388 1081 321 1038 q 533 1149 454 1125 q 697 1174 611 1174 q 916 1129 814 1174 q 1094 1009 1018 1085 q 1214 831 1169 933 q 1258 611 1258 728 q 1239 464 1258 535 q 1183 331 1219 393 q 1154 324 1165 324 q 1085 354 1108 324 q 1049 429 1061 385 q 1133 533 1096 481 q 1194 629 1171 586 q 1199 642 1199 638 q 1196 646 1199 646 q 1185 635 1190 646 q 1121 539 1157 585 q 1042 454 1085 493 q 1026 527 1033 490 q 1009 594 1019 564 q 982 644 999 625 q 938 663 965 663 q 903 655 918 663 q 878 635 889 647 q 862 612 868 624 q 853 592 856 600 q 857 586 853 586 q 916 572 892 586 q 958 536 940 558 q 987 485 975 514 q 1010 428 999 457 q 894 358 953 383 q 782 332 835 332 q 711 370 732 332 q 690 467 690 408 q 708 600 690 528 q 749 739 725 672 q 853 748 793 742 q 978 761 914 754 q 1101 773 1042 768 q 1200 778 1160 778 q 1215 785 1215 778 q 1201 790 1215 790 q 1099 790 1144 790 q 1007 791 1054 790 q 904 792 960 792 q 769 792 849 792 q 821 898 796 856 q 861 940 846 940 q 869 931 868 940 q 871 914 871 922 q 879 906 871 906 q 897 924 897 906 q 887 945 897 935 q 856 956 876 956 q 792 909 831 956 q 717 792 754 863 l 672 792 q 653 788 663 792 q 644 776 644 785 q 656 756 644 767 q 690 740 667 744 q 631 581 654 664 q 607 428 607 499 q 640 306 607 354 q 757 258 674 258 q 894 299 826 258 q 1019 399 961 340 q 1038 349 1028 372 q 1062 306 1049 325 q 1093 276 1075 288 q 1136 265 1111 265 z "},"":{"ha":1319,"x_min":58,"x_max":1258,"o":"m 1136 265 q 1183 282 1161 265 q 1219 319 1204 299 q 1253 374 1238 343 q 1215 297 1239 332 q 1165 242 1196 268 q 1092 211 1135 217 q 914 93 1015 136 q 697 50 813 50 q 478 94 581 50 q 299 215 375 139 q 179 392 224 290 q 135 611 135 494 q 138 665 135 639 q 144 717 140 692 q 58 643 100 685 q 82 681 63 651 q 133 751 101 711 q 207 836 164 792 q 304 917 250 881 q 422 978 358 954 q 560 1003 486 1003 q 618 991 600 1003 q 636 958 636 979 q 611 889 636 931 q 549 797 586 847 q 469 689 513 746 q 388 574 425 632 q 326 459 351 515 q 301 353 301 403 q 325 286 301 313 q 388 260 349 260 q 420 267 404 260 q 448 285 436 274 q 467 311 460 297 q 475 339 475 325 q 468 346 475 346 q 453 344 464 344 q 426 353 439 344 q 413 394 413 363 q 433 478 413 431 q 486 577 454 525 q 554 683 518 629 q 622 788 590 738 q 675 880 654 838 q 696 953 696 922 q 669 1016 696 988 q 585 1044 643 1044 q 467 1028 524 1044 q 359 985 410 1013 q 265 920 308 957 q 183 842 221 883 q 269 976 217 915 q 388 1081 321 1038 q 533 1149 454 1125 q 697 1174 611 1174 q 916 1129 814 1174 q 1094 1009 1018 1085 q 1214 831 1169 933 q 1258 611 1258 728 q 1239 464 1258 535 q 1183 331 1219 393 q 1154 324 1165 324 q 1085 354 1108 324 q 1049 429 1061 385 q 1133 533 1096 481 q 1194 629 1171 586 q 1199 642 1199 638 q 1196 646 1199 646 q 1185 635 1190 646 q 1121 539 1157 585 q 1042 454 1085 493 q 1026 527 1033 490 q 1009 594 1019 564 q 982 644 999 625 q 938 663 965 663 q 903 655 918 663 q 878 635 889 647 q 862 612 868 624 q 853 592 856 600 q 857 586 853 586 q 916 572 892 586 q 958 536 940 558 q 987 485 975 514 q 1010 428 999 457 q 894 358 953 383 q 782 332 835 332 q 711 370 732 332 q 690 467 690 408 q 708 600 690 528 q 749 739 725 672 q 853 748 793 742 q 978 761 914 754 q 1101 773 1042 768 q 1200 778 1160 778 q 1215 785 1215 778 q 1201 790 1215 790 q 1099 790 1144 790 q 1007 791 1054 790 q 904 792 960 792 q 769 792 849 792 q 821 898 796 856 q 861 940 846 940 q 869 931 868 940 q 871 914 871 922 q 879 906 871 906 q 897 924 897 906 q 887 945 897 935 q 856 956 876 956 q 792 909 831 956 q 717 792 754 863 l 672 792 q 653 788 663 792 q 644 776 644 785 q 656 756 644 767 q 690 740 667 744 q 631 581 654 664 q 607 428 607 499 q 640 306 607 354 q 757 258 674 258 q 894 299 826 258 q 1019 399 961 340 q 1038 349 1028 372 q 1062 306 1049 325 q 1093 276 1075 288 q 1136 265 1111 265 z "},"":{"ha":1319,"x_min":58,"x_max":1258,"o":"m 1136 265 q 1183 282 1161 265 q 1219 319 1204 299 q 1253 374 1238 343 q 1215 297 1239 332 q 1165 242 1196 268 q 1092 211 1135 217 q 914 93 1015 136 q 697 50 813 50 q 478 94 581 50 q 299 215 375 139 q 179 392 224 290 q 135 611 135 494 q 138 665 135 639 q 144 717 140 692 q 58 643 100 685 q 82 681 63 651 q 133 751 101 711 q 207 836 164 792 q 304 917 250 881 q 422 978 358 954 q 560 1003 486 1003 q 618 991 600 1003 q 636 958 636 979 q 611 889 636 931 q 549 797 586 847 q 469 689 513 746 q 388 574 425 632 q 326 459 351 515 q 301 353 301 403 q 325 286 301 313 q 388 260 349 260 q 420 267 404 260 q 448 285 436 274 q 467 311 460 297 q 475 339 475 325 q 468 346 475 346 q 453 344 464 344 q 426 353 439 344 q 413 394 413 363 q 433 478 413 431 q 486 577 454 525 q 554 683 518 629 q 622 788 590 738 q 675 880 654 838 q 696 953 696 922 q 669 1016 696 988 q 585 1044 643 1044 q 467 1028 524 1044 q 359 985 410 1013 q 265 920 308 957 q 183 842 221 883 q 269 976 217 915 q 388 1081 321 1038 q 533 1149 454 1125 q 697 1174 611 1174 q 916 1129 814 1174 q 1094 1009 1018 1085 q 1214 831 1169 933 q 1258 611 1258 728 q 1239 464 1258 535 q 1183 331 1219 393 q 1154 324 1165 324 q 1085 354 1108 324 q 1049 429 1061 385 q 1133 533 1096 481 q 1194 629 1171 586 q 1199 642 1199 638 q 1196 646 1199 646 q 1185 635 1190 646 q 1121 539 1157 585 q 1042 454 1085 493 q 1026 527 1033 490 q 1009 594 1019 564 q 982 644 999 625 q 938 663 965 663 q 903 655 918 663 q 878 635 889 647 q 862 612 868 624 q 853 592 856 600 q 857 586 853 586 q 916 572 892 586 q 958 536 940 558 q 987 485 975 514 q 1010 428 999 457 q 894 358 953 383 q 782 332 835 332 q 711 370 732 332 q 690 467 690 408 q 708 600 690 528 q 749 739 725 672 q 853 748 793 742 q 978 761 914 754 q 1101 773 1042 768 q 1200 778 1160 778 q 1215 785 1215 778 q 1201 790 1215 790 q 1099 790 1144 790 q 1007 791 1054 790 q 904 792 960 792 q 769 792 849 792 q 821 898 796 856 q 861 940 846 940 q 869 931 868 940 q 871 914 871 922 q 879 906 871 906 q 897 924 897 906 q 887 945 897 935 q 856 956 876 956 q 792 909 831 956 q 717 792 754 863 l 672 792 q 653 788 663 792 q 644 776 644 785 q 656 756 644 767 q 690 740 667 744 q 631 581 654 664 q 607 428 607 499 q 640 306 607 354 q 757 258 674 258 q 894 299 826 258 q 1019 399 961 340 q 1038 349 1028 372 q 1062 306 1049 325 q 1093 276 1075 288 q 1136 265 1111 265 z "},"":{"ha":1319,"x_min":58,"x_max":1258,"o":"m 1136 265 q 1183 282 1161 265 q 1219 319 1204 299 q 1253 374 1238 343 q 1215 297 1239 332 q 1165 242 1196 268 q 1092 211 1135 217 q 914 93 1015 136 q 697 50 813 50 q 478 94 581 50 q 299 215 375 139 q 179 392 224 290 q 135 611 135 494 q 138 665 135 639 q 144 717 140 692 q 58 643 100 685 q 82 681 63 651 q 133 751 101 711 q 207 836 164 792 q 304 917 250 881 q 422 978 358 954 q 560 1003 486 1003 q 618 991 600 1003 q 636 958 636 979 q 611 889 636 931 q 549 797 586 847 q 469 689 513 746 q 388 574 425 632 q 326 459 351 515 q 301 353 301 403 q 325 286 301 313 q 388 260 349 260 q 420 267 404 260 q 448 285 436 274 q 467 311 460 297 q 475 339 475 325 q 468 346 475 346 q 453 344 464 344 q 426 353 439 344 q 413 394 413 363 q 433 478 413 431 q 486 577 454 525 q 554 683 518 629 q 622 788 590 738 q 675 880 654 838 q 696 953 696 922 q 669 1016 696 988 q 585 1044 643 1044 q 467 1028 524 1044 q 359 985 410 1013 q 265 920 308 957 q 183 842 221 883 q 269 976 217 915 q 388 1081 321 1038 q 533 1149 454 1125 q 697 1174 611 1174 q 916 1129 814 1174 q 1094 1009 1018 1085 q 1214 831 1169 933 q 1258 611 1258 728 q 1239 464 1258 535 q 1183 331 1219 393 q 1154 324 1165 324 q 1085 354 1108 324 q 1049 429 1061 385 q 1133 533 1096 481 q 1194 629 1171 586 q 1199 642 1199 638 q 1196 646 1199 646 q 1185 635 1190 646 q 1121 539 1157 585 q 1042 454 1085 493 q 1026 527 1033 490 q 1009 594 1019 564 q 982 644 999 625 q 938 663 965 663 q 903 655 918 663 q 878 635 889 647 q 862 612 868 624 q 853 592 856 600 q 857 586 853 586 q 916 572 892 586 q 958 536 940 558 q 987 485 975 514 q 1010 428 999 457 q 894 358 953 383 q 782 332 835 332 q 711 370 732 332 q 690 467 690 408 q 708 600 690 528 q 749 739 725 672 q 853 748 793 742 q 978 761 914 754 q 1101 773 1042 768 q 1200 778 1160 778 q 1215 785 1215 778 q 1201 790 1215 790 q 1099 790 1144 790 q 1007 791 1054 790 q 904 792 960 792 q 769 792 849 792 q 821 898 796 856 q 861 940 846 940 q 869 931 868 940 q 871 914 871 922 q 879 906 871 906 q 897 924 897 906 q 887 945 897 935 q 856 956 876 956 q 792 909 831 956 q 717 792 754 863 l 672 792 q 653 788 663 792 q 644 776 644 785 q 656 756 644 767 q 690 740 667 744 q 631 581 654 664 q 607 428 607 499 q 640 306 607 354 q 757 258 674 258 q 894 299 826 258 q 1019 399 961 340 q 1038 349 1028 372 q 1062 306 1049 325 q 1093 276 1075 288 q 1136 265 1111 265 z "},"":{"ha":1319,"x_min":58,"x_max":1258,"o":"m 1136 265 q 1183 282 1161 265 q 1219 319 1204 299 q 1253 374 1238 343 q 1215 297 1239 332 q 1165 242 1196 268 q 1092 211 1135 217 q 914 93 1015 136 q 697 50 813 50 q 478 94 581 50 q 299 215 375 139 q 179 392 224 290 q 135 611 135 494 q 138 665 135 639 q 144 717 140 692 q 58 643 100 685 q 82 681 63 651 q 133 751 101 711 q 207 836 164 792 q 304 917 250 881 q 422 978 358 954 q 560 1003 486 1003 q 618 991 600 1003 q 636 958 636 979 q 611 889 636 931 q 549 797 586 847 q 469 689 513 746 q 388 574 425 632 q 326 459 351 515 q 301 353 301 403 q 325 286 301 313 q 388 260 349 260 q 420 267 404 260 q 448 285 436 274 q 467 311 460 297 q 475 339 475 325 q 468 346 475 346 q 453 344 464 344 q 426 353 439 344 q 413 394 413 363 q 433 478 413 431 q 486 577 454 525 q 554 683 518 629 q 622 788 590 738 q 675 880 654 838 q 696 953 696 922 q 669 1016 696 988 q 585 1044 643 1044 q 467 1028 524 1044 q 359 985 410 1013 q 265 920 308 957 q 183 842 221 883 q 269 976 217 915 q 388 1081 321 1038 q 533 1149 454 1125 q 697 1174 611 1174 q 916 1129 814 1174 q 1094 1009 1018 1085 q 1214 831 1169 933 q 1258 611 1258 728 q 1239 464 1258 535 q 1183 331 1219 393 q 1154 324 1165 324 q 1085 354 1108 324 q 1049 429 1061 385 q 1133 533 1096 481 q 1194 629 1171 586 q 1199 642 1199 638 q 1196 646 1199 646 q 1185 635 1190 646 q 1121 539 1157 585 q 1042 454 1085 493 q 1026 527 1033 490 q 1009 594 1019 564 q 982 644 999 625 q 938 663 965 663 q 903 655 918 663 q 878 635 889 647 q 862 612 868 624 q 853 592 856 600 q 857 586 853 586 q 916 572 892 586 q 958 536 940 558 q 987 485 975 514 q 1010 428 999 457 q 894 358 953 383 q 782 332 835 332 q 711 370 732 332 q 690 467 690 408 q 708 600 690 528 q 749 739 725 672 q 853 748 793 742 q 978 761 914 754 q 1101 773 1042 768 q 1200 778 1160 778 q 1215 785 1215 778 q 1201 790 1215 790 q 1099 790 1144 790 q 1007 791 1054 790 q 904 792 960 792 q 769 792 849 792 q 821 898 796 856 q 861 940 846 940 q 869 931 868 940 q 871 914 871 922 q 879 906 871 906 q 897 924 897 906 q 887 945 897 935 q 856 956 876 956 q 792 909 831 956 q 717 792 754 863 l 672 792 q 653 788 663 792 q 644 776 644 785 q 656 756 644 767 q 690 740 667 744 q 631 581 654 664 q 607 428 607 499 q 640 306 607 354 q 757 258 674 258 q 894 299 826 258 q 1019 399 961 340 q 1038 349 1028 372 q 1062 306 1049 325 q 1093 276 1075 288 q 1136 265 1111 265 z "},"":{"ha":1319,"x_min":58,"x_max":1258,"o":"m 1136 265 q 1183 282 1161 265 q 1219 319 1204 299 q 1253 374 1238 343 q 1215 297 1239 332 q 1165 242 1196 268 q 1092 211 1135 217 q 914 93 1015 136 q 697 50 813 50 q 478 94 581 50 q 299 215 375 139 q 179 392 224 290 q 135 611 135 494 q 138 665 135 639 q 144 717 140 692 q 58 643 100 685 q 82 681 63 651 q 133 751 101 711 q 207 836 164 792 q 304 917 250 881 q 422 978 358 954 q 560 1003 486 1003 q 618 991 600 1003 q 636 958 636 979 q 611 889 636 931 q 549 797 586 847 q 469 689 513 746 q 388 574 425 632 q 326 459 351 515 q 301 353 301 403 q 325 286 301 313 q 388 260 349 260 q 420 267 404 260 q 448 285 436 274 q 467 311 460 297 q 475 339 475 325 q 468 346 475 346 q 453 344 464 344 q 426 353 439 344 q 413 394 413 363 q 433 478 413 431 q 486 577 454 525 q 554 683 518 629 q 622 788 590 738 q 675 880 654 838 q 696 953 696 922 q 669 1016 696 988 q 585 1044 643 1044 q 467 1028 524 1044 q 359 985 410 1013 q 265 920 308 957 q 183 842 221 883 q 269 976 217 915 q 388 1081 321 1038 q 533 1149 454 1125 q 697 1174 611 1174 q 916 1129 814 1174 q 1094 1009 1018 1085 q 1214 831 1169 933 q 1258 611 1258 728 q 1239 464 1258 535 q 1183 331 1219 393 q 1154 324 1165 324 q 1085 354 1108 324 q 1049 429 1061 385 q 1133 533 1096 481 q 1194 629 1171 586 q 1199 642 1199 638 q 1196 646 1199 646 q 1185 635 1190 646 q 1121 539 1157 585 q 1042 454 1085 493 q 1026 527 1033 490 q 1009 594 1019 564 q 982 644 999 625 q 938 663 965 663 q 903 655 918 663 q 878 635 889 647 q 862 612 868 624 q 853 592 856 600 q 857 586 853 586 q 916 572 892 586 q 958 536 940 558 q 987 485 975 514 q 1010 428 999 457 q 894 358 953 383 q 782 332 835 332 q 711 370 732 332 q 690 467 690 408 q 708 600 690 528 q 749 739 725 672 q 853 748 793 742 q 978 761 914 754 q 1101 773 1042 768 q 1200 778 1160 778 q 1215 785 1215 778 q 1201 790 1215 790 q 1099 790 1144 790 q 1007 791 1054 790 q 904 792 960 792 q 769 792 849 792 q 821 898 796 856 q 861 940 846 940 q 869 931 868 940 q 871 914 871 922 q 879 906 871 906 q 897 924 897 906 q 887 945 897 935 q 856 956 876 956 q 792 909 831 956 q 717 792 754 863 l 672 792 q 653 788 663 792 q 644 776 644 785 q 656 756 644 767 q 690 740 667 744 q 631 581 654 664 q 607 428 607 499 q 640 306 607 354 q 757 258 674 258 q 894 299 826 258 q 1019 399 961 340 q 1038 349 1028 372 q 1062 306 1049 325 q 1093 276 1075 288 q 1136 265 1111 265 z "},"":{"ha":1319,"x_min":58,"x_max":1258,"o":"m 1136 265 q 1183 282 1161 265 q 1219 319 1204 299 q 1253 374 1238 343 q 1215 297 1239 332 q 1165 242 1196 268 q 1092 211 1135 217 q 914 93 1015 136 q 697 50 813 50 q 478 94 581 50 q 299 215 375 139 q 179 392 224 290 q 135 611 135 494 q 138 665 135 639 q 144 717 140 692 q 58 643 100 685 q 82 681 63 651 q 133 751 101 711 q 207 836 164 792 q 304 917 250 881 q 422 978 358 954 q 560 1003 486 1003 q 618 991 600 1003 q 636 958 636 979 q 611 889 636 931 q 549 797 586 847 q 469 689 513 746 q 388 574 425 632 q 326 459 351 515 q 301 353 301 403 q 325 286 301 313 q 388 260 349 260 q 420 267 404 260 q 448 285 436 274 q 467 311 460 297 q 475 339 475 325 q 468 346 475 346 q 453 344 464 344 q 426 353 439 344 q 413 394 413 363 q 433 478 413 431 q 486 577 454 525 q 554 683 518 629 q 622 788 590 738 q 675 880 654 838 q 696 953 696 922 q 669 1016 696 988 q 585 1044 643 1044 q 467 1028 524 1044 q 359 985 410 1013 q 265 920 308 957 q 183 842 221 883 q 269 976 217 915 q 388 1081 321 1038 q 533 1149 454 1125 q 697 1174 611 1174 q 916 1129 814 1174 q 1094 1009 1018 1085 q 1214 831 1169 933 q 1258 611 1258 728 q 1239 464 1258 535 q 1183 331 1219 393 q 1154 324 1165 324 q 1085 354 1108 324 q 1049 429 1061 385 q 1133 533 1096 481 q 1194 629 1171 586 q 1199 642 1199 638 q 1196 646 1199 646 q 1185 635 1190 646 q 1121 539 1157 585 q 1042 454 1085 493 q 1026 527 1033 490 q 1009 594 1019 564 q 982 644 999 625 q 938 663 965 663 q 903 655 918 663 q 878 635 889 647 q 862 612 868 624 q 853 592 856 600 q 857 586 853 586 q 916 572 892 586 q 958 536 940 558 q 987 485 975 514 q 1010 428 999 457 q 894 358 953 383 q 782 332 835 332 q 711 370 732 332 q 690 467 690 408 q 708 600 690 528 q 749 739 725 672 q 853 748 793 742 q 978 761 914 754 q 1101 773 1042 768 q 1200 778 1160 778 q 1215 785 1215 778 q 1201 790 1215 790 q 1099 790 1144 790 q 1007 791 1054 790 q 904 792 960 792 q 769 792 849 792 q 821 898 796 856 q 861 940 846 940 q 869 931 868 940 q 871 914 871 922 q 879 906 871 906 q 897 924 897 906 q 887 945 897 935 q 856 956 876 956 q 792 909 831 956 q 717 792 754 863 l 672 792 q 653 788 663 792 q 644 776 644 785 q 656 756 644 767 q 690 740 667 744 q 631 581 654 664 q 607 428 607 499 q 640 306 607 354 q 757 258 674 258 q 894 299 826 258 q 1019 399 961 340 q 1038 349 1028 372 q 1062 306 1049 325 q 1093 276 1075 288 q 1136 265 1111 265 z "},"`":{"ha":1319,"x_min":58,"x_max":1258,"o":"m 1136 265 q 1183 282 1161 265 q 1219 319 1204 299 q 1253 374 1238 343 q 1215 297 1239 332 q 1165 242 1196 268 q 1092 211 1135 217 q 914 93 1015 136 q 697 50 813 50 q 478 94 581 50 q 299 215 375 139 q 179 392 224 290 q 135 611 135 494 q 138 665 135 639 q 144 717 140 692 q 58 643 100 685 q 82 681 63 651 q 133 751 101 711 q 207 836 164 792 q 304 917 250 881 q 422 978 358 954 q 560 1003 486 1003 q 618 991 600 1003 q 636 958 636 979 q 611 889 636 931 q 549 797 586 847 q 469 689 513 746 q 388 574 425 632 q 326 459 351 515 q 301 353 301 403 q 325 286 301 313 q 388 260 349 260 q 420 267 404 260 q 448 285 436 274 q 467 311 460 297 q 475 339 475 325 q 468 346 475 346 q 453 344 464 344 q 426 353 439 344 q 413 394 413 363 q 433 478 413 431 q 486 577 454 525 q 554 683 518 629 q 622 788 590 738 q 675 880 654 838 q 696 953 696 922 q 669 1016 696 988 q 585 1044 643 1044 q 467 1028 524 1044 q 359 985 410 1013 q 265 920 308 957 q 183 842 221 883 q 269 976 217 915 q 388 1081 321 1038 q 533 1149 454 1125 q 697 1174 611 1174 q 916 1129 814 1174 q 1094 1009 1018 1085 q 1214 831 1169 933 q 1258 611 1258 728 q 1239 464 1258 535 q 1183 331 1219 393 q 1154 324 1165 324 q 1085 354 1108 324 q 1049 429 1061 385 q 1133 533 1096 481 q 1194 629 1171 586 q 1199 642 1199 638 q 1196 646 1199 646 q 1185 635 1190 646 q 1121 539 1157 585 q 1042 454 1085 493 q 1026 527 1033 490 q 1009 594 1019 564 q 982 644 999 625 q 938 663 965 663 q 903 655 918 663 q 878 635 889 647 q 862 612 868 624 q 853 592 856 600 q 857 586 853 586 q 916 572 892 586 q 958 536 940 558 q 987 485 975 514 q 1010 428 999 457 q 894 358 953 383 q 782 332 835 332 q 711 370 732 332 q 690 467 690 408 q 708 600 690 528 q 749 739 725 672 q 853 748 793 742 q 978 761 914 754 q 1101 773 1042 768 q 1200 778 1160 778 q 1215 785 1215 778 q 1201 790 1215 790 q 1099 790 1144 790 q 1007 791 1054 790 q 904 792 960 792 q 769 792 849 792 q 821 898 796 856 q 861 940 846 940 q 869 931 868 940 q 871 914 871 922 q 879 906 871 906 q 897 924 897 906 q 887 945 897 935 q 856 956 876 956 q 792 909 831 956 q 717 792 754 863 l 672 792 q 653 788 663 792 q 644 776 644 785 q 656 756 644 767 q 690 740 667 744 q 631 581 654 664 q 607 428 607 499 q 640 306 607 354 q 757 258 674 258 q 894 299 826 258 q 1019 399 961 340 q 1038 349 1028 372 q 1062 306 1049 325 q 1093 276 1075 288 q 1136 265 1111 265 z "},"_":{"ha":1319,"x_min":58,"x_max":1258,"o":"m 1136 265 q 1183 282 1161 265 q 1219 319 1204 299 q 1253 374 1238 343 q 1215 297 1239 332 q 1165 242 1196 268 q 1092 211 1135 217 q 914 93 1015 136 q 697 50 813 50 q 478 94 581 50 q 299 215 375 139 q 179 392 224 290 q 135 611 135 494 q 138 665 135 639 q 144 717 140 692 q 58 643 100 685 q 82 681 63 651 q 133 751 101 711 q 207 836 164 792 q 304 917 250 881 q 422 978 358 954 q 560 1003 486 1003 q 618 991 600 1003 q 636 958 636 979 q 611 889 636 931 q 549 797 586 847 q 469 689 513 746 q 388 574 425 632 q 326 459 351 515 q 301 353 301 403 q 325 286 301 313 q 388 260 349 260 q 420 267 404 260 q 448 285 436 274 q 467 311 460 297 q 475 339 475 325 q 468 346 475 346 q 453 344 464 344 q 426 353 439 344 q 413 394 413 363 q 433 478 413 431 q 486 577 454 525 q 554 683 518 629 q 622 788 590 738 q 675 880 654 838 q 696 953 696 922 q 669 1016 696 988 q 585 1044 643 1044 q 467 1028 524 1044 q 359 985 410 1013 q 265 920 308 957 q 183 842 221 883 q 269 976 217 915 q 388 1081 321 1038 q 533 1149 454 1125 q 697 1174 611 1174 q 916 1129 814 1174 q 1094 1009 1018 1085 q 1214 831 1169 933 q 1258 611 1258 728 q 1239 464 1258 535 q 1183 331 1219 393 q 1154 324 1165 324 q 1085 354 1108 324 q 1049 429 1061 385 q 1133 533 1096 481 q 1194 629 1171 586 q 1199 642 1199 638 q 1196 646 1199 646 q 1185 635 1190 646 q 1121 539 1157 585 q 1042 454 1085 493 q 1026 527 1033 490 q 1009 594 1019 564 q 982 644 999 625 q 938 663 965 663 q 903 655 918 663 q 878 635 889 647 q 862 612 868 624 q 853 592 856 600 q 857 586 853 586 q 916 572 892 586 q 958 536 940 558 q 987 485 975 514 q 1010 428 999 457 q 894 358 953 383 q 782 332 835 332 q 711 370 732 332 q 690 467 690 408 q 708 600 690 528 q 749 739 725 672 q 853 748 793 742 q 978 761 914 754 q 1101 773 1042 768 q 1200 778 1160 778 q 1215 785 1215 778 q 1201 790 1215 790 q 1099 790 1144 790 q 1007 791 1054 790 q 904 792 960 792 q 769 792 849 792 q 821 898 796 856 q 861 940 846 940 q 869 931 868 940 q 871 914 871 922 q 879 906 871 906 q 897 924 897 906 q 887 945 897 935 q 856 956 876 956 q 792 909 831 956 q 717 792 754 863 l 672 792 q 653 788 663 792 q 644 776 644 785 q 656 756 644 767 q 690 740 667 744 q 631 581 654 664 q 607 428 607 499 q 640 306 607 354 q 757 258 674 258 q 894 299 826 258 q 1019 399 961 340 q 1038 349 1028 372 q 1062 306 1049 325 q 1093 276 1075 288 q 1136 265 1111 265 z "},"=":{"ha":1319,"x_min":58,"x_max":1258,"o":"m 1136 265 q 1183 282 1161 265 q 1219 319 1204 299 q 1253 374 1238 343 q 1215 297 1239 332 q 1165 242 1196 268 q 1092 211 1135 217 q 914 93 1015 136 q 697 50 813 50 q 478 94 581 50 q 299 215 375 139 q 179 392 224 290 q 135 611 135 494 q 138 665 135 639 q 144 717 140 692 q 58 643 100 685 q 82 681 63 651 q 133 751 101 711 q 207 836 164 792 q 304 917 250 881 q 422 978 358 954 q 560 1003 486 1003 q 618 991 600 1003 q 636 958 636 979 q 611 889 636 931 q 549 797 586 847 q 469 689 513 746 q 388 574 425 632 q 326 459 351 515 q 301 353 301 403 q 325 286 301 313 q 388 260 349 260 q 420 267 404 260 q 448 285 436 274 q 467 311 460 297 q 475 339 475 325 q 468 346 475 346 q 453 344 464 344 q 426 353 439 344 q 413 394 413 363 q 433 478 413 431 q 486 577 454 525 q 554 683 518 629 q 622 788 590 738 q 675 880 654 838 q 696 953 696 922 q 669 1016 696 988 q 585 1044 643 1044 q 467 1028 524 1044 q 359 985 410 1013 q 265 920 308 957 q 183 842 221 883 q 269 976 217 915 q 388 1081 321 1038 q 533 1149 454 1125 q 697 1174 611 1174 q 916 1129 814 1174 q 1094 1009 1018 1085 q 1214 831 1169 933 q 1258 611 1258 728 q 1239 464 1258 535 q 1183 331 1219 393 q 1154 324 1165 324 q 1085 354 1108 324 q 1049 429 1061 385 q 1133 533 1096 481 q 1194 629 1171 586 q 1199 642 1199 638 q 1196 646 1199 646 q 1185 635 1190 646 q 1121 539 1157 585 q 1042 454 1085 493 q 1026 527 1033 490 q 1009 594 1019 564 q 982 644 999 625 q 938 663 965 663 q 903 655 918 663 q 878 635 889 647 q 862 612 868 624 q 853 592 856 600 q 857 586 853 586 q 916 572 892 586 q 958 536 940 558 q 987 485 975 514 q 1010 428 999 457 q 894 358 953 383 q 782 332 835 332 q 711 370 732 332 q 690 467 690 408 q 708 600 690 528 q 749 739 725 672 q 853 748 793 742 q 978 761 914 754 q 1101 773 1042 768 q 1200 778 1160 778 q 1215 785 1215 778 q 1201 790 1215 790 q 1099 790 1144 790 q 1007 791 1054 790 q 904 792 960 792 q 769 792 849 792 q 821 898 796 856 q 861 940 846 940 q 869 931 868 940 q 871 914 871 922 q 879 906 871 906 q 897 924 897 906 q 887 945 897 935 q 856 956 876 956 q 792 909 831 956 q 717 792 754 863 l 672 792 q 653 788 663 792 q 644 776 644 785 q 656 756 644 767 q 690 740 667 744 q 631 581 654 664 q 607 428 607 499 q 640 306 607 354 q 757 258 674 258 q 894 299 826 258 q 1019 399 961 340 q 1038 349 1028 372 q 1062 306 1049 325 q 1093 276 1075 288 q 1136 265 1111 265 z "},"+":{"ha":1319,"x_min":58,"x_max":1258,"o":"m 1136 265 q 1183 282 1161 265 q 1219 319 1204 299 q 1253 374 1238 343 q 1215 297 1239 332 q 1165 242 1196 268 q 1092 211 1135 217 q 914 93 1015 136 q 697 50 813 50 q 478 94 581 50 q 299 215 375 139 q 179 392 224 290 q 135 611 135 494 q 138 665 135 639 q 144 717 140 692 q 58 643 100 685 q 82 681 63 651 q 133 751 101 711 q 207 836 164 792 q 304 917 250 881 q 422 978 358 954 q 560 1003 486 1003 q 618 991 600 1003 q 636 958 636 979 q 611 889 636 931 q 549 797 586 847 q 469 689 513 746 q 388 574 425 632 q 326 459 351 515 q 301 353 301 403 q 325 286 301 313 q 388 260 349 260 q 420 267 404 260 q 448 285 436 274 q 467 311 460 297 q 475 339 475 325 q 468 346 475 346 q 453 344 464 344 q 426 353 439 344 q 413 394 413 363 q 433 478 413 431 q 486 577 454 525 q 554 683 518 629 q 622 788 590 738 q 675 880 654 838 q 696 953 696 922 q 669 1016 696 988 q 585 1044 643 1044 q 467 1028 524 1044 q 359 985 410 1013 q 265 920 308 957 q 183 842 221 883 q 269 976 217 915 q 388 1081 321 1038 q 533 1149 454 1125 q 697 1174 611 1174 q 916 1129 814 1174 q 1094 1009 1018 1085 q 1214 831 1169 933 q 1258 611 1258 728 q 1239 464 1258 535 q 1183 331 1219 393 q 1154 324 1165 324 q 1085 354 1108 324 q 1049 429 1061 385 q 1133 533 1096 481 q 1194 629 1171 586 q 1199 642 1199 638 q 1196 646 1199 646 q 1185 635 1190 646 q 1121 539 1157 585 q 1042 454 1085 493 q 1026 527 1033 490 q 1009 594 1019 564 q 982 644 999 625 q 938 663 965 663 q 903 655 918 663 q 878 635 889 647 q 862 612 868 624 q 853 592 856 600 q 857 586 853 586 q 916 572 892 586 q 958 536 940 558 q 987 485 975 514 q 1010 428 999 457 q 894 358 953 383 q 782 332 835 332 q 711 370 732 332 q 690 467 690 408 q 708 600 690 528 q 749 739 725 672 q 853 748 793 742 q 978 761 914 754 q 1101 773 1042 768 q 1200 778 1160 778 q 1215 785 1215 778 q 1201 790 1215 790 q 1099 790 1144 790 q 1007 791 1054 790 q 904 792 960 792 q 769 792 849 792 q 821 898 796 856 q 861 940 846 940 q 869 931 868 940 q 871 914 871 922 q 879 906 871 906 q 897 924 897 906 q 887 945 897 935 q 856 956 876 956 q 792 909 831 956 q 717 792 754 863 l 672 792 q 653 788 663 792 q 644 776 644 785 q 656 756 644 767 q 690 740 667 744 q 631 581 654 664 q 607 428 607 499 q 640 306 607 354 q 757 258 674 258 q 894 299 826 258 q 1019 399 961 340 q 1038 349 1028 372 q 1062 306 1049 325 q 1093 276 1075 288 q 1136 265 1111 265 z "},"-":{"ha":1319,"x_min":58,"x_max":1258,"o":"m 1136 265 q 1183 282 1161 265 q 1219 319 1204 299 q 1253 374 1238 343 q 1215 297 1239 332 q 1165 242 1196 268 q 1092 211 1135 217 q 914 93 1015 136 q 697 50 813 50 q 478 94 581 50 q 299 215 375 139 q 179 392 224 290 q 135 611 135 494 q 138 665 135 639 q 144 717 140 692 q 58 643 100 685 q 82 681 63 651 q 133 751 101 711 q 207 836 164 792 q 304 917 250 881 q 422 978 358 954 q 560 1003 486 1003 q 618 991 600 1003 q 636 958 636 979 q 611 889 636 931 q 549 797 586 847 q 469 689 513 746 q 388 574 425 632 q 326 459 351 515 q 301 353 301 403 q 325 286 301 313 q 388 260 349 260 q 420 267 404 260 q 448 285 436 274 q 467 311 460 297 q 475 339 475 325 q 468 346 475 346 q 453 344 464 344 q 426 353 439 344 q 413 394 413 363 q 433 478 413 431 q 486 577 454 525 q 554 683 518 629 q 622 788 590 738 q 675 880 654 838 q 696 953 696 922 q 669 1016 696 988 q 585 1044 643 1044 q 467 1028 524 1044 q 359 985 410 1013 q 265 920 308 957 q 183 842 221 883 q 269 976 217 915 q 388 1081 321 1038 q 533 1149 454 1125 q 697 1174 611 1174 q 916 1129 814 1174 q 1094 1009 1018 1085 q 1214 831 1169 933 q 1258 611 1258 728 q 1239 464 1258 535 q 1183 331 1219 393 q 1154 324 1165 324 q 1085 354 1108 324 q 1049 429 1061 385 q 1133 533 1096 481 q 1194 629 1171 586 q 1199 642 1199 638 q 1196 646 1199 646 q 1185 635 1190 646 q 1121 539 1157 585 q 1042 454 1085 493 q 1026 527 1033 490 q 1009 594 1019 564 q 982 644 999 625 q 938 663 965 663 q 903 655 918 663 q 878 635 889 647 q 862 612 868 624 q 853 592 856 600 q 857 586 853 586 q 916 572 892 586 q 958 536 940 558 q 987 485 975 514 q 1010 428 999 457 q 894 358 953 383 q 782 332 835 332 q 711 370 732 332 q 690 467 690 408 q 708 600 690 528 q 749 739 725 672 q 853 748 793 742 q 978 761 914 754 q 1101 773 1042 768 q 1200 778 1160 778 q 1215 785 1215 778 q 1201 790 1215 790 q 1099 790 1144 790 q 1007 791 1054 790 q 904 792 960 792 q 769 792 849 792 q 821 898 796 856 q 861 940 846 940 q 869 931 868 940 q 871 914 871 922 q 879 906 871 906 q 897 924 897 906 q 887 945 897 935 q 856 956 876 956 q 792 909 831 956 q 717 792 754 863 l 672 792 q 653 788 663 792 q 644 776 644 785 q 656 756 644 767 q 690 740 667 744 q 631 581 654 664 q 607 428 607 499 q 640 306 607 354 q 757 258 674 258 q 894 299 826 258 q 1019 399 961 340 q 1038 349 1028 372 q 1062 306 1049 325 q 1093 276 1075 288 q 1136 265 1111 265 z "},"<":{"ha":1319,"x_min":58,"x_max":1258,"o":"m 1136 265 q 1183 282 1161 265 q 1219 319 1204 299 q 1253 374 1238 343 q 1215 297 1239 332 q 1165 242 1196 268 q 1092 211 1135 217 q 914 93 1015 136 q 697 50 813 50 q 478 94 581 50 q 299 215 375 139 q 179 392 224 290 q 135 611 135 494 q 138 665 135 639 q 144 717 140 692 q 58 643 100 685 q 82 681 63 651 q 133 751 101 711 q 207 836 164 792 q 304 917 250 881 q 422 978 358 954 q 560 1003 486 1003 q 618 991 600 1003 q 636 958 636 979 q 611 889 636 931 q 549 797 586 847 q 469 689 513 746 q 388 574 425 632 q 326 459 351 515 q 301 353 301 403 q 325 286 301 313 q 388 260 349 260 q 420 267 404 260 q 448 285 436 274 q 467 311 460 297 q 475 339 475 325 q 468 346 475 346 q 453 344 464 344 q 426 353 439 344 q 413 394 413 363 q 433 478 413 431 q 486 577 454 525 q 554 683 518 629 q 622 788 590 738 q 675 880 654 838 q 696 953 696 922 q 669 1016 696 988 q 585 1044 643 1044 q 467 1028 524 1044 q 359 985 410 1013 q 265 920 308 957 q 183 842 221 883 q 269 976 217 915 q 388 1081 321 1038 q 533 1149 454 1125 q 697 1174 611 1174 q 916 1129 814 1174 q 1094 1009 1018 1085 q 1214 831 1169 933 q 1258 611 1258 728 q 1239 464 1258 535 q 1183 331 1219 393 q 1154 324 1165 324 q 1085 354 1108 324 q 1049 429 1061 385 q 1133 533 1096 481 q 1194 629 1171 586 q 1199 642 1199 638 q 1196 646 1199 646 q 1185 635 1190 646 q 1121 539 1157 585 q 1042 454 1085 493 q 1026 527 1033 490 q 1009 594 1019 564 q 982 644 999 625 q 938 663 965 663 q 903 655 918 663 q 878 635 889 647 q 862 612 868 624 q 853 592 856 600 q 857 586 853 586 q 916 572 892 586 q 958 536 940 558 q 987 485 975 514 q 1010 428 999 457 q 894 358 953 383 q 782 332 835 332 q 711 370 732 332 q 690 467 690 408 q 708 600 690 528 q 749 739 725 672 q 853 748 793 742 q 978 761 914 754 q 1101 773 1042 768 q 1200 778 1160 778 q 1215 785 1215 778 q 1201 790 1215 790 q 1099 790 1144 790 q 1007 791 1054 790 q 904 792 960 792 q 769 792 849 792 q 821 898 796 856 q 861 940 846 940 q 869 931 868 940 q 871 914 871 922 q 879 906 871 906 q 897 924 897 906 q 887 945 897 935 q 856 956 876 956 q 792 909 831 956 q 717 792 754 863 l 672 792 q 653 788 663 792 q 644 776 644 785 q 656 756 644 767 q 690 740 667 744 q 631 581 654 664 q 607 428 607 499 q 640 306 607 354 q 757 258 674 258 q 894 299 826 258 q 1019 399 961 340 q 1038 349 1028 372 q 1062 306 1049 325 q 1093 276 1075 288 q 1136 265 1111 265 z "},">":{"ha":1319,"x_min":58,"x_max":1258,"o":"m 1136 265 q 1183 282 1161 265 q 1219 319 1204 299 q 1253 374 1238 343 q 1215 297 1239 332 q 1165 242 1196 268 q 1092 211 1135 217 q 914 93 1015 136 q 697 50 813 50 q 478 94 581 50 q 299 215 375 139 q 179 392 224 290 q 135 611 135 494 q 138 665 135 639 q 144 717 140 692 q 58 643 100 685 q 82 681 63 651 q 133 751 101 711 q 207 836 164 792 q 304 917 250 881 q 422 978 358 954 q 560 1003 486 1003 q 618 991 600 1003 q 636 958 636 979 q 611 889 636 931 q 549 797 586 847 q 469 689 513 746 q 388 574 425 632 q 326 459 351 515 q 301 353 301 403 q 325 286 301 313 q 388 260 349 260 q 420 267 404 260 q 448 285 436 274 q 467 311 460 297 q 475 339 475 325 q 468 346 475 346 q 453 344 464 344 q 426 353 439 344 q 413 394 413 363 q 433 478 413 431 q 486 577 454 525 q 554 683 518 629 q 622 788 590 738 q 675 880 654 838 q 696 953 696 922 q 669 1016 696 988 q 585 1044 643 1044 q 467 1028 524 1044 q 359 985 410 1013 q 265 920 308 957 q 183 842 221 883 q 269 976 217 915 q 388 1081 321 1038 q 533 1149 454 1125 q 697 1174 611 1174 q 916 1129 814 1174 q 1094 1009 1018 1085 q 1214 831 1169 933 q 1258 611 1258 728 q 1239 464 1258 535 q 1183 331 1219 393 q 1154 324 1165 324 q 1085 354 1108 324 q 1049 429 1061 385 q 1133 533 1096 481 q 1194 629 1171 586 q 1199 642 1199 638 q 1196 646 1199 646 q 1185 635 1190 646 q 1121 539 1157 585 q 1042 454 1085 493 q 1026 527 1033 490 q 1009 594 1019 564 q 982 644 999 625 q 938 663 965 663 q 903 655 918 663 q 878 635 889 647 q 862 612 868 624 q 853 592 856 600 q 857 586 853 586 q 916 572 892 586 q 958 536 940 558 q 987 485 975 514 q 1010 428 999 457 q 894 358 953 383 q 782 332 835 332 q 711 370 732 332 q 690 467 690 408 q 708 600 690 528 q 749 739 725 672 q 853 748 793 742 q 978 761 914 754 q 1101 773 1042 768 q 1200 778 1160 778 q 1215 785 1215 778 q 1201 790 1215 790 q 1099 790 1144 790 q 1007 791 1054 790 q 904 792 960 792 q 769 792 849 792 q 821 898 796 856 q 861 940 846 940 q 869 931 868 940 q 871 914 871 922 q 879 906 871 906 q 897 924 897 906 q 887 945 897 935 q 856 956 876 956 q 792 909 831 956 q 717 792 754 863 l 672 792 q 653 788 663 792 q 644 776 644 785 q 656 756 644 767 q 690 740 667 744 q 631 581 654 664 q 607 428 607 499 q 640 306 607 354 q 757 258 674 258 q 894 299 826 258 q 1019 399 961 340 q 1038 349 1028 372 q 1062 306 1049 325 q 1093 276 1075 288 q 1136 265 1111 265 z "},"\"":{"ha":1319,"x_min":58,"x_max":1258,"o":"m 1136 265 q 1183 282 1161 265 q 1219 319 1204 299 q 1253 374 1238 343 q 1215 297 1239 332 q 1165 242 1196 268 q 1092 211 1135 217 q 914 93 1015 136 q 697 50 813 50 q 478 94 581 50 q 299 215 375 139 q 179 392 224 290 q 135 611 135 494 q 138 665 135 639 q 144 717 140 692 q 58 643 100 685 q 82 681 63 651 q 133 751 101 711 q 207 836 164 792 q 304 917 250 881 q 422 978 358 954 q 560 1003 486 1003 q 618 991 600 1003 q 636 958 636 979 q 611 889 636 931 q 549 797 586 847 q 469 689 513 746 q 388 574 425 632 q 326 459 351 515 q 301 353 301 403 q 325 286 301 313 q 388 260 349 260 q 420 267 404 260 q 448 285 436 274 q 467 311 460 297 q 475 339 475 325 q 468 346 475 346 q 453 344 464 344 q 426 353 439 344 q 413 394 413 363 q 433 478 413 431 q 486 577 454 525 q 554 683 518 629 q 622 788 590 738 q 675 880 654 838 q 696 953 696 922 q 669 1016 696 988 q 585 1044 643 1044 q 467 1028 524 1044 q 359 985 410 1013 q 265 920 308 957 q 183 842 221 883 q 269 976 217 915 q 388 1081 321 1038 q 533 1149 454 1125 q 697 1174 611 1174 q 916 1129 814 1174 q 1094 1009 1018 1085 q 1214 831 1169 933 q 1258 611 1258 728 q 1239 464 1258 535 q 1183 331 1219 393 q 1154 324 1165 324 q 1085 354 1108 324 q 1049 429 1061 385 q 1133 533 1096 481 q 1194 629 1171 586 q 1199 642 1199 638 q 1196 646 1199 646 q 1185 635 1190 646 q 1121 539 1157 585 q 1042 454 1085 493 q 1026 527 1033 490 q 1009 594 1019 564 q 982 644 999 625 q 938 663 965 663 q 903 655 918 663 q 878 635 889 647 q 862 612 868 624 q 853 592 856 600 q 857 586 853 586 q 916 572 892 586 q 958 536 940 558 q 987 485 975 514 q 1010 428 999 457 q 894 358 953 383 q 782 332 835 332 q 711 370 732 332 q 690 467 690 408 q 708 600 690 528 q 749 739 725 672 q 853 748 793 742 q 978 761 914 754 q 1101 773 1042 768 q 1200 778 1160 778 q 1215 785 1215 778 q 1201 790 1215 790 q 1099 790 1144 790 q 1007 791 1054 790 q 904 792 960 792 q 769 792 849 792 q 821 898 796 856 q 861 940 846 940 q 869 931 868 940 q 871 914 871 922 q 879 906 871 906 q 897 924 897 906 q 887 945 897 935 q 856 956 876 956 q 792 909 831 956 q 717 792 754 863 l 672 792 q 653 788 663 792 q 644 776 644 785 q 656 756 644 767 q 690 740 667 744 q 631 581 654 664 q 607 428 607 499 q 640 306 607 354 q 757 258 674 258 q 894 299 826 258 q 1019 399 961 340 q 1038 349 1028 372 q 1062 306 1049 325 q 1093 276 1075 288 q 1136 265 1111 265 z "},"":{"ha":0,"x_min":0,"x_max":0,"o":""},"":{"ha":1319,"x_min":58,"x_max":1258,"o":"m 1136 265 q 1183 282 1161 265 q 1219 319 1204 299 q 1253 374 1238 343 q 1215 297 1239 332 q 1165 242 1196 268 q 1092 211 1135 217 q 914 93 1015 136 q 697 50 813 50 q 478 94 581 50 q 299 215 375 139 q 179 392 224 290 q 135 611 135 494 q 138 665 135 639 q 144 717 140 692 q 58 643 100 685 q 82 681 63 651 q 133 751 101 711 q 207 836 164 792 q 304 917 250 881 q 422 978 358 954 q 560 1003 486 1003 q 618 991 600 1003 q 636 958 636 979 q 611 889 636 931 q 549 797 586 847 q 469 689 513 746 q 388 574 425 632 q 326 459 351 515 q 301 353 301 403 q 325 286 301 313 q 388 260 349 260 q 420 267 404 260 q 448 285 436 274 q 467 311 460 297 q 475 339 475 325 q 468 346 475 346 q 453 344 464 344 q 426 353 439 344 q 413 394 413 363 q 433 478 413 431 q 486 577 454 525 q 554 683 518 629 q 622 788 590 738 q 675 880 654 838 q 696 953 696 922 q 669 1016 696 988 q 585 1044 643 1044 q 467 1028 524 1044 q 359 985 410 1013 q 265 920 308 957 q 183 842 221 883 q 269 976 217 915 q 388 1081 321 1038 q 533 1149 454 1125 q 697 1174 611 1174 q 916 1129 814 1174 q 1094 1009 1018 1085 q 1214 831 1169 933 q 1258 611 1258 728 q 1239 464 1258 535 q 1183 331 1219 393 q 1154 324 1165 324 q 1085 354 1108 324 q 1049 429 1061 385 q 1133 533 1096 481 q 1194 629 1171 586 q 1199 642 1199 638 q 1196 646 1199 646 q 1185 635 1190 646 q 1121 539 1157 585 q 1042 454 1085 493 q 1026 527 1033 490 q 1009 594 1019 564 q 982 644 999 625 q 938 663 965 663 q 903 655 918 663 q 878 635 889 647 q 862 612 868 624 q 853 592 856 600 q 857 586 853 586 q 916 572 892 586 q 958 536 940 558 q 987 485 975 514 q 1010 428 999 457 q 894 358 953 383 q 782 332 835 332 q 711 370 732 332 q 690 467 690 408 q 708 600 690 528 q 749 739 725 672 q 853 748 793 742 q 978 761 914 754 q 1101 773 1042 768 q 1200 778 1160 778 q 1215 785 1215 778 q 1201 790 1215 790 q 1099 790 1144 790 q 1007 791 1054 790 q 904 792 960 792 q 769 792 849 792 q 821 898 796 856 q 861 940 846 940 q 869 931 868 940 q 871 914 871 922 q 879 906 871 906 q 897 924 897 906 q 887 945 897 935 q 856 956 876 956 q 792 909 831 956 q 717 792 754 863 l 672 792 q 653 788 663 792 q 644 776 644 785 q 656 756 644 767 q 690 740 667 744 q 631 581 654 664 q 607 428 607 499 q 640 306 607 354 q 757 258 674 258 q 894 299 826 258 q 1019 399 961 340 q 1038 349 1028 372 q 1062 306 1049 325 q 1093 276 1075 288 q 1136 265 1111 265 z "},"/":{"ha":1319,"x_min":58,"x_max":1258,"o":"m 1136 265 q 1183 282 1161 265 q 1219 319 1204 299 q 1253 374 1238 343 q 1215 297 1239 332 q 1165 242 1196 268 q 1092 211 1135 217 q 914 93 1015 136 q 697 50 813 50 q 478 94 581 50 q 299 215 375 139 q 179 392 224 290 q 135 611 135 494 q 138 665 135 639 q 144 717 140 692 q 58 643 100 685 q 82 681 63 651 q 133 751 101 711 q 207 836 164 792 q 304 917 250 881 q 422 978 358 954 q 560 1003 486 1003 q 618 991 600 1003 q 636 958 636 979 q 611 889 636 931 q 549 797 586 847 q 469 689 513 746 q 388 574 425 632 q 326 459 351 515 q 301 353 301 403 q 325 286 301 313 q 388 260 349 260 q 420 267 404 260 q 448 285 436 274 q 467 311 460 297 q 475 339 475 325 q 468 346 475 346 q 453 344 464 344 q 426 353 439 344 q 413 394 413 363 q 433 478 413 431 q 486 577 454 525 q 554 683 518 629 q 622 788 590 738 q 675 880 654 838 q 696 953 696 922 q 669 1016 696 988 q 585 1044 643 1044 q 467 1028 524 1044 q 359 985 410 1013 q 265 920 308 957 q 183 842 221 883 q 269 976 217 915 q 388 1081 321 1038 q 533 1149 454 1125 q 697 1174 611 1174 q 916 1129 814 1174 q 1094 1009 1018 1085 q 1214 831 1169 933 q 1258 611 1258 728 q 1239 464 1258 535 q 1183 331 1219 393 q 1154 324 1165 324 q 1085 354 1108 324 q 1049 429 1061 385 q 1133 533 1096 481 q 1194 629 1171 586 q 1199 642 1199 638 q 1196 646 1199 646 q 1185 635 1190 646 q 1121 539 1157 585 q 1042 454 1085 493 q 1026 527 1033 490 q 1009 594 1019 564 q 982 644 999 625 q 938 663 965 663 q 903 655 918 663 q 878 635 889 647 q 862 612 868 624 q 853 592 856 600 q 857 586 853 586 q 916 572 892 586 q 958 536 940 558 q 987 485 975 514 q 1010 428 999 457 q 894 358 953 383 q 782 332 835 332 q 711 370 732 332 q 690 467 690 408 q 708 600 690 528 q 749 739 725 672 q 853 748 793 742 q 978 761 914 754 q 1101 773 1042 768 q 1200 778 1160 778 q 1215 785 1215 778 q 1201 790 1215 790 q 1099 790 1144 790 q 1007 791 1054 790 q 904 792 960 792 q 769 792 849 792 q 821 898 796 856 q 861 940 846 940 q 869 931 868 940 q 871 914 871 922 q 879 906 871 906 q 897 924 897 906 q 887 945 897 935 q 856 956 876 956 q 792 909 831 956 q 717 792 754 863 l 672 792 q 653 788 663 792 q 644 776 644 785 q 656 756 644 767 q 690 740 667 744 q 631 581 654 664 q 607 428 607 499 q 640 306 607 354 q 757 258 674 258 q 894 299 826 258 q 1019 399 961 340 q 1038 349 1028 372 q 1062 306 1049 325 q 1093 276 1075 288 q 1136 265 1111 265 z "},"\\":{"ha":1319,"x_min":58,"x_max":1258,"o":"m 1136 265 q 1183 282 1161 265 q 1219 319 1204 299 q 1253 374 1238 343 q 1215 297 1239 332 q 1165 242 1196 268 q 1092 211 1135 217 q 914 93 1015 136 q 697 50 813 50 q 478 94 581 50 q 299 215 375 139 q 179 392 224 290 q 135 611 135 494 q 138 665 135 639 q 144 717 140 692 q 58 643 100 685 q 82 681 63 651 q 133 751 101 711 q 207 836 164 792 q 304 917 250 881 q 422 978 358 954 q 560 1003 486 1003 q 618 991 600 1003 q 636 958 636 979 q 611 889 636 931 q 549 797 586 847 q 469 689 513 746 q 388 574 425 632 q 326 459 351 515 q 301 353 301 403 q 325 286 301 313 q 388 260 349 260 q 420 267 404 260 q 448 285 436 274 q 467 311 460 297 q 475 339 475 325 q 468 346 475 346 q 453 344 464 344 q 426 353 439 344 q 413 394 413 363 q 433 478 413 431 q 486 577 454 525 q 554 683 518 629 q 622 788 590 738 q 675 880 654 838 q 696 953 696 922 q 669 1016 696 988 q 585 1044 643 1044 q 467 1028 524 1044 q 359 985 410 1013 q 265 920 308 957 q 183 842 221 883 q 269 976 217 915 q 388 1081 321 1038 q 533 1149 454 1125 q 697 1174 611 1174 q 916 1129 814 1174 q 1094 1009 1018 1085 q 1214 831 1169 933 q 1258 611 1258 728 q 1239 464 1258 535 q 1183 331 1219 393 q 1154 324 1165 324 q 1085 354 1108 324 q 1049 429 1061 385 q 1133 533 1096 481 q 1194 629 1171 586 q 1199 642 1199 638 q 1196 646 1199 646 q 1185 635 1190 646 q 1121 539 1157 585 q 1042 454 1085 493 q 1026 527 1033 490 q 1009 594 1019 564 q 982 644 999 625 q 938 663 965 663 q 903 655 918 663 q 878 635 889 647 q 862 612 868 624 q 853 592 856 600 q 857 586 853 586 q 916 572 892 586 q 958 536 940 558 q 987 485 975 514 q 1010 428 999 457 q 894 358 953 383 q 782 332 835 332 q 711 370 732 332 q 690 467 690 408 q 708 600 690 528 q 749 739 725 672 q 853 748 793 742 q 978 761 914 754 q 1101 773 1042 768 q 1200 778 1160 778 q 1215 785 1215 778 q 1201 790 1215 790 q 1099 790 1144 790 q 1007 791 1054 790 q 904 792 960 792 q 769 792 849 792 q 821 898 796 856 q 861 940 846 940 q 869 931 868 940 q 871 914 871 922 q 879 906 871 906 q 897 924 897 906 q 887 945 897 935 q 856 956 876 956 q 792 909 831 956 q 717 792 754 863 l 672 792 q 653 788 663 792 q 644 776 644 785 q 656 756 644 767 q 690 740 667 744 q 631 581 654 664 q 607 428 607 499 q 640 306 607 354 q 757 258 674 258 q 894 299 826 258 q 1019 399 961 340 q 1038 349 1028 372 q 1062 306 1049 325 q 1093 276 1075 288 q 1136 265 1111 265 z "},"^":{"ha":1319,"x_min":58,"x_max":1258,"o":"m 1136 265 q 1183 282 1161 265 q 1219 319 1204 299 q 1253 374 1238 343 q 1215 297 1239 332 q 1165 242 1196 268 q 1092 211 1135 217 q 914 93 1015 136 q 697 50 813 50 q 478 94 581 50 q 299 215 375 139 q 179 392 224 290 q 135 611 135 494 q 138 665 135 639 q 144 717 140 692 q 58 643 100 685 q 82 681 63 651 q 133 751 101 711 q 207 836 164 792 q 304 917 250 881 q 422 978 358 954 q 560 1003 486 1003 q 618 991 600 1003 q 636 958 636 979 q 611 889 636 931 q 549 797 586 847 q 469 689 513 746 q 388 574 425 632 q 326 459 351 515 q 301 353 301 403 q 325 286 301 313 q 388 260 349 260 q 420 267 404 260 q 448 285 436 274 q 467 311 460 297 q 475 339 475 325 q 468 346 475 346 q 453 344 464 344 q 426 353 439 344 q 413 394 413 363 q 433 478 413 431 q 486 577 454 525 q 554 683 518 629 q 622 788 590 738 q 675 880 654 838 q 696 953 696 922 q 669 1016 696 988 q 585 1044 643 1044 q 467 1028 524 1044 q 359 985 410 1013 q 265 920 308 957 q 183 842 221 883 q 269 976 217 915 q 388 1081 321 1038 q 533 1149 454 1125 q 697 1174 611 1174 q 916 1129 814 1174 q 1094 1009 1018 1085 q 1214 831 1169 933 q 1258 611 1258 728 q 1239 464 1258 535 q 1183 331 1219 393 q 1154 324 1165 324 q 1085 354 1108 324 q 1049 429 1061 385 q 1133 533 1096 481 q 1194 629 1171 586 q 1199 642 1199 638 q 1196 646 1199 646 q 1185 635 1190 646 q 1121 539 1157 585 q 1042 454 1085 493 q 1026 527 1033 490 q 1009 594 1019 564 q 982 644 999 625 q 938 663 965 663 q 903 655 918 663 q 878 635 889 647 q 862 612 868 624 q 853 592 856 600 q 857 586 853 586 q 916 572 892 586 q 958 536 940 558 q 987 485 975 514 q 1010 428 999 457 q 894 358 953 383 q 782 332 835 332 q 711 370 732 332 q 690 467 690 408 q 708 600 690 528 q 749 739 725 672 q 853 748 793 742 q 978 761 914 754 q 1101 773 1042 768 q 1200 778 1160 778 q 1215 785 1215 778 q 1201 790 1215 790 q 1099 790 1144 790 q 1007 791 1054 790 q 904 792 960 792 q 769 792 849 792 q 821 898 796 856 q 861 940 846 940 q 869 931 868 940 q 871 914 871 922 q 879 906 871 906 q 897 924 897 906 q 887 945 897 935 q 856 956 876 956 q 792 909 831 956 q 717 792 754 863 l 672 792 q 653 788 663 792 q 644 776 644 785 q 656 756 644 767 q 690 740 667 744 q 631 581 654 664 q 607 428 607 499 q 640 306 607 354 q 757 258 674 258 q 894 299 826 258 q 1019 399 961 340 q 1038 349 1028 372 q 1062 306 1049 325 q 1093 276 1075 288 q 1136 265 1111 265 z "},"~":{"ha":1319,"x_min":58,"x_max":1258,"o":"m 1136 265 q 1183 282 1161 265 q 1219 319 1204 299 q 1253 374 1238 343 q 1215 297 1239 332 q 1165 242 1196 268 q 1092 211 1135 217 q 914 93 1015 136 q 697 50 813 50 q 478 94 581 50 q 299 215 375 139 q 179 392 224 290 q 135 611 135 494 q 138 665 135 639 q 144 717 140 692 q 58 643 100 685 q 82 681 63 651 q 133 751 101 711 q 207 836 164 792 q 304 917 250 881 q 422 978 358 954 q 560 1003 486 1003 q 618 991 600 1003 q 636 958 636 979 q 611 889 636 931 q 549 797 586 847 q 469 689 513 746 q 388 574 425 632 q 326 459 351 515 q 301 353 301 403 q 325 286 301 313 q 388 260 349 260 q 420 267 404 260 q 448 285 436 274 q 467 311 460 297 q 475 339 475 325 q 468 346 475 346 q 453 344 464 344 q 426 353 439 344 q 413 394 413 363 q 433 478 413 431 q 486 577 454 525 q 554 683 518 629 q 622 788 590 738 q 675 880 654 838 q 696 953 696 922 q 669 1016 696 988 q 585 1044 643 1044 q 467 1028 524 1044 q 359 985 410 1013 q 265 920 308 957 q 183 842 221 883 q 269 976 217 915 q 388 1081 321 1038 q 533 1149 454 1125 q 697 1174 611 1174 q 916 1129 814 1174 q 1094 1009 1018 1085 q 1214 831 1169 933 q 1258 611 1258 728 q 1239 464 1258 535 q 1183 331 1219 393 q 1154 324 1165 324 q 1085 354 1108 324 q 1049 429 1061 385 q 1133 533 1096 481 q 1194 629 1171 586 q 1199 642 1199 638 q 1196 646 1199 646 q 1185 635 1190 646 q 1121 539 1157 585 q 1042 454 1085 493 q 1026 527 1033 490 q 1009 594 1019 564 q 982 644 999 625 q 938 663 965 663 q 903 655 918 663 q 878 635 889 647 q 862 612 868 624 q 853 592 856 600 q 857 586 853 586 q 916 572 892 586 q 958 536 940 558 q 987 485 975 514 q 1010 428 999 457 q 894 358 953 383 q 782 332 835 332 q 711 370 732 332 q 690 467 690 408 q 708 600 690 528 q 749 739 725 672 q 853 748 793 742 q 978 761 914 754 q 1101 773 1042 768 q 1200 778 1160 778 q 1215 785 1215 778 q 1201 790 1215 790 q 1099 790 1144 790 q 1007 791 1054 790 q 904 792 960 792 q 769 792 849 792 q 821 898 796 856 q 861 940 846 940 q 869 931 868 940 q 871 914 871 922 q 879 906 871 906 q 897 924 897 906 q 887 945 897 935 q 856 956 876 956 q 792 909 831 956 q 717 792 754 863 l 672 792 q 653 788 663 792 q 644 776 644 785 q 656 756 644 767 q 690 740 667 744 q 631 581 654 664 q 607 428 607 499 q 640 306 607 354 q 757 258 674 258 q 894 299 826 258 q 1019 399 961 340 q 1038 349 1028 372 q 1062 306 1049 325 q 1093 276 1075 288 q 1136 265 1111 265 z "},"a":{"ha":646,"x_min":-32,"x_max":665,"o":"m 665 358 q 653 328 665 356 q 622 260 642 300 q 576 176 601 221 q 524 92 550 131 q 473 28 497 54 q 431 3 449 3 q 403 14 424 3 q 359 49 382 25 q 319 109 336 72 q 301 197 301 146 q 310 266 301 226 q 331 351 318 306 q 361 442 344 396 q 394 532 378 489 l 389 539 q 356 574 375 557 q 313 592 338 592 q 227 556 271 592 q 149 465 183 521 q 92 338 114 408 q 69 194 69 267 q 76 127 69 157 q 94 76 83 97 q 116 44 104 56 q 136 33 128 33 q 178 45 158 33 q 214 71 199 57 q 240 97 229 85 q 257 108 251 108 q 261 104 261 108 q 249 83 261 100 q 219 47 238 65 q 178 13 200 28 q 136 -1 156 -1 q 94 16 122 -1 q 38 68 67 33 q -11 154 10 103 q -32 272 -32 206 q -6 443 -32 365 q 60 576 21 521 q 145 663 100 632 q 228 694 190 694 q 285 683 257 694 q 336 652 313 671 q 379 612 360 633 q 411 569 399 590 q 451 657 433 622 q 474 692 468 692 q 499 683 483 692 q 528 663 514 675 q 553 635 543 650 q 564 606 564 619 q 552 577 564 603 q 522 510 540 551 q 484 417 504 469 q 446 310 464 365 q 416 203 428 256 q 404 108 404 150 q 408 83 404 90 q 428 75 413 75 q 473 96 449 75 q 523 149 497 117 q 573 217 549 181 q 617 285 597 253 q 649 338 636 317 q 665 358 663 358 z "},"b":{"ha":606,"x_min":-15,"x_max":629,"o":"m 629 357 q 613 324 629 353 q 563 260 596 294 q 481 195 531 225 q 364 161 431 165 q 303 92 333 124 q 243 38 272 61 q 188 3 214 15 q 142 -10 163 -10 q 114 1 139 -10 q 60 37 89 11 q 8 107 32 63 q -15 219 -15 151 q -1 371 -15 288 q 37 540 14 454 q 87 708 60 626 q 138 853 114 790 q 181 956 163 917 q 206 994 200 994 q 231 986 215 994 q 261 965 247 978 q 285 935 275 951 q 296 904 296 919 q 280 861 296 900 q 239 760 264 822 q 186 618 214 697 q 133 456 158 539 q 92 291 108 372 q 76 143 76 210 q 80 102 76 114 q 89 90 83 90 q 186 112 139 90 q 275 169 233 133 q 175 244 204 189 q 146 376 146 300 q 176 487 146 431 q 255 590 207 543 q 360 666 303 636 q 474 696 418 696 q 533 666 514 696 q 553 590 553 636 q 511 406 553 503 q 410 222 469 310 q 424 219 417 219 q 438 219 431 219 q 512 241 479 219 q 567 289 544 263 q 606 336 590 315 q 629 357 621 357 m 388 592 q 335 579 360 592 q 290 545 310 567 q 259 494 271 524 q 247 433 247 465 q 254 385 247 410 q 274 335 261 360 q 306 288 288 310 q 349 249 325 265 q 422 381 394 311 q 449 511 449 451 q 432 572 449 553 q 388 592 415 592 z "},"r":{"ha":450,"x_min":-12,"x_max":475,"o":"m 475 358 q 456 319 475 351 q 407 244 438 288 q 340 151 376 200 q 267 61 303 103 q 201 -8 232 19 q 153 -35 169 -35 q 118 0 118 -35 q 132 71 118 29 q 163 157 146 113 q 194 244 181 201 q 208 317 208 288 q 198 354 208 338 q 171 387 188 371 q 133 417 154 403 q 92 446 113 431 q 57 391 74 417 q 27 347 40 365 q 4 317 14 328 q -10 306 -6 306 q -12 311 -12 306 q -5 327 -12 314 q 15 360 3 340 q 42 406 26 381 q 72 458 57 431 q 27 499 46 478 q 8 547 8 521 q 29 615 8 578 q 78 682 50 651 q 135 733 107 713 q 178 754 163 754 q 201 740 194 754 q 208 710 208 726 q 192 644 208 686 q 151 554 176 603 q 205 530 175 542 q 260 503 235 518 q 304 466 286 488 q 322 413 322 444 q 308 315 322 369 q 276 208 293 260 q 244 117 258 157 q 229 67 229 78 q 238 54 229 54 q 258 76 240 54 q 301 133 276 99 q 353 206 325 167 q 407 280 382 246 q 451 336 432 314 q 475 358 469 358 m 111 608 q 132 568 111 586 q 158 639 158 618 q 157 660 158 646 q 144 674 156 674 q 134 667 140 674 q 123 651 128 661 q 115 630 118 642 q 111 608 111 618 z "},"":{"ha":1319,"x_min":58,"x_max":1258,"o":"m 1136 265 q 1183 282 1161 265 q 1219 319 1204 299 q 1253 374 1238 343 q 1215 297 1239 332 q 1165 242 1196 268 q 1092 211 1135 217 q 914 93 1015 136 q 697 50 813 50 q 478 94 581 50 q 299 215 375 139 q 179 392 224 290 q 135 611 135 494 q 138 665 135 639 q 144 717 140 692 q 58 643 100 685 q 82 681 63 651 q 133 751 101 711 q 207 836 164 792 q 304 917 250 881 q 422 978 358 954 q 560 1003 486 1003 q 618 991 600 1003 q 636 958 636 979 q 611 889 636 931 q 549 797 586 847 q 469 689 513 746 q 388 574 425 632 q 326 459 351 515 q 301 353 301 403 q 325 286 301 313 q 388 260 349 260 q 420 267 404 260 q 448 285 436 274 q 467 311 460 297 q 475 339 475 325 q 468 346 475 346 q 453 344 464 344 q 426 353 439 344 q 413 394 413 363 q 433 478 413 431 q 486 577 454 525 q 554 683 518 629 q 622 788 590 738 q 675 880 654 838 q 696 953 696 922 q 669 1016 696 988 q 585 1044 643 1044 q 467 1028 524 1044 q 359 985 410 1013 q 265 920 308 957 q 183 842 221 883 q 269 976 217 915 q 388 1081 321 1038 q 533 1149 454 1125 q 697 1174 611 1174 q 916 1129 814 1174 q 1094 1009 1018 1085 q 1214 831 1169 933 q 1258 611 1258 728 q 1239 464 1258 535 q 1183 331 1219 393 q 1154 324 1165 324 q 1085 354 1108 324 q 1049 429 1061 385 q 1133 533 1096 481 q 1194 629 1171 586 q 1199 642 1199 638 q 1196 646 1199 646 q 1185 635 1190 646 q 1121 539 1157 585 q 1042 454 1085 493 q 1026 527 1033 490 q 1009 594 1019 564 q 982 644 999 625 q 938 663 965 663 q 903 655 918 663 q 878 635 889 647 q 862 612 868 624 q 853 592 856 600 q 857 586 853 586 q 916 572 892 586 q 958 536 940 558 q 987 485 975 514 q 1010 428 999 457 q 894 358 953 383 q 782 332 835 332 q 711 370 732 332 q 690 467 690 408 q 708 600 690 528 q 749 739 725 672 q 853 748 793 742 q 978 761 914 754 q 1101 773 1042 768 q 1200 778 1160 778 q 1215 785 1215 778 q 1201 790 1215 790 q 1099 790 1144 790 q 1007 791 1054 790 q 904 792 960 792 q 769 792 849 792 q 821 898 796 856 q 861 940 846 940 q 869 931 868 940 q 871 914 871 922 q 879 906 871 906 q 897 924 897 906 q 887 945 897 935 q 856 956 876 956 q 792 909 831 956 q 717 792 754 863 l 672 792 q 653 788 663 792 q 644 776 644 785 q 656 756 644 767 q 690 740 667 744 q 631 581 654 664 q 607 428 607 499 q 640 306 607 354 q 757 258 674 258 q 894 299 826 258 q 1019 399 961 340 q 1038 349 1028 372 q 1062 306 1049 325 q 1093 276 1075 288 q 1136 265 1111 265 z "},"'":{"ha":1319,"x_min":58,"x_max":1258,"o":"m 1136 265 q 1183 282 1161 265 q 1219 319 1204 299 q 1253 374 1238 343 q 1215 297 1239 332 q 1165 242 1196 268 q 1092 211 1135 217 q 914 93 1015 136 q 697 50 813 50 q 478 94 581 50 q 299 215 375 139 q 179 392 224 290 q 135 611 135 494 q 138 665 135 639 q 144 717 140 692 q 58 643 100 685 q 82 681 63 651 q 133 751 101 711 q 207 836 164 792 q 304 917 250 881 q 422 978 358 954 q 560 1003 486 1003 q 618 991 600 1003 q 636 958 636 979 q 611 889 636 931 q 549 797 586 847 q 469 689 513 746 q 388 574 425 632 q 326 459 351 515 q 301 353 301 403 q 325 286 301 313 q 388 260 349 260 q 420 267 404 260 q 448 285 436 274 q 467 311 460 297 q 475 339 475 325 q 468 346 475 346 q 453 344 464 344 q 426 353 439 344 q 413 394 413 363 q 433 478 413 431 q 486 577 454 525 q 554 683 518 629 q 622 788 590 738 q 675 880 654 838 q 696 953 696 922 q 669 1016 696 988 q 585 1044 643 1044 q 467 1028 524 1044 q 359 985 410 1013 q 265 920 308 957 q 183 842 221 883 q 269 976 217 915 q 388 1081 321 1038 q 533 1149 454 1125 q 697 1174 611 1174 q 916 1129 814 1174 q 1094 1009 1018 1085 q 1214 831 1169 933 q 1258 611 1258 728 q 1239 464 1258 535 q 1183 331 1219 393 q 1154 324 1165 324 q 1085 354 1108 324 q 1049 429 1061 385 q 1133 533 1096 481 q 1194 629 1171 586 q 1199 642 1199 638 q 1196 646 1199 646 q 1185 635 1190 646 q 1121 539 1157 585 q 1042 454 1085 493 q 1026 527 1033 490 q 1009 594 1019 564 q 982 644 999 625 q 938 663 965 663 q 903 655 918 663 q 878 635 889 647 q 862 612 868 624 q 853 592 856 600 q 857 586 853 586 q 916 572 892 586 q 958 536 940 558 q 987 485 975 514 q 1010 428 999 457 q 894 358 953 383 q 782 332 835 332 q 711 370 732 332 q 690 467 690 408 q 708 600 690 528 q 749 739 725 672 q 853 748 793 742 q 978 761 914 754 q 1101 773 1042 768 q 1200 778 1160 778 q 1215 785 1215 778 q 1201 790 1215 790 q 1099 790 1144 790 q 1007 791 1054 790 q 904 792 960 792 q 769 792 849 792 q 821 898 796 856 q 861 940 846 940 q 869 931 868 940 q 871 914 871 922 q 879 906 871 906 q 897 924 897 906 q 887 945 897 935 q 856 956 876 956 q 792 909 831 956 q 717 792 754 863 l 672 792 q 653 788 663 792 q 644 776 644 785 q 656 756 644 767 q 690 740 667 744 q 631 581 654 664 q 607 428 607 499 q 640 306 607 354 q 757 258 674 258 q 894 299 826 258 q 1019 399 961 340 q 1038 349 1028 372 q 1062 306 1049 325 q 1093 276 1075 288 q 1136 265 1111 265 z "},"":{"ha":1319,"x_min":58,"x_max":1258,"o":"m 1136 265 q 1183 282 1161 265 q 1219 319 1204 299 q 1253 374 1238 343 q 1215 297 1239 332 q 1165 242 1196 268 q 1092 211 1135 217 q 914 93 1015 136 q 697 50 813 50 q 478 94 581 50 q 299 215 375 139 q 179 392 224 290 q 135 611 135 494 q 138 665 135 639 q 144 717 140 692 q 58 643 100 685 q 82 681 63 651 q 133 751 101 711 q 207 836 164 792 q 304 917 250 881 q 422 978 358 954 q 560 1003 486 1003 q 618 991 600 1003 q 636 958 636 979 q 611 889 636 931 q 549 797 586 847 q 469 689 513 746 q 388 574 425 632 q 326 459 351 515 q 301 353 301 403 q 325 286 301 313 q 388 260 349 260 q 420 267 404 260 q 448 285 436 274 q 467 311 460 297 q 475 339 475 325 q 468 346 475 346 q 453 344 464 344 q 426 353 439 344 q 413 394 413 363 q 433 478 413 431 q 486 577 454 525 q 554 683 518 629 q 622 788 590 738 q 675 880 654 838 q 696 953 696 922 q 669 1016 696 988 q 585 1044 643 1044 q 467 1028 524 1044 q 359 985 410 1013 q 265 920 308 957 q 183 842 221 883 q 269 976 217 915 q 388 1081 321 1038 q 533 1149 454 1125 q 697 1174 611 1174 q 916 1129 814 1174 q 1094 1009 1018 1085 q 1214 831 1169 933 q 1258 611 1258 728 q 1239 464 1258 535 q 1183 331 1219 393 q 1154 324 1165 324 q 1085 354 1108 324 q 1049 429 1061 385 q 1133 533 1096 481 q 1194 629 1171 586 q 1199 642 1199 638 q 1196 646 1199 646 q 1185 635 1190 646 q 1121 539 1157 585 q 1042 454 1085 493 q 1026 527 1033 490 q 1009 594 1019 564 q 982 644 999 625 q 938 663 965 663 q 903 655 918 663 q 878 635 889 647 q 862 612 868 624 q 853 592 856 600 q 857 586 853 586 q 916 572 892 586 q 958 536 940 558 q 987 485 975 514 q 1010 428 999 457 q 894 358 953 383 q 782 332 835 332 q 711 370 732 332 q 690 467 690 408 q 708 600 690 528 q 749 739 725 672 q 853 748 793 742 q 978 761 914 754 q 1101 773 1042 768 q 1200 778 1160 778 q 1215 785 1215 778 q 1201 790 1215 790 q 1099 790 1144 790 q 1007 791 1054 790 q 904 792 960 792 q 769 792 849 792 q 821 898 796 856 q 861 940 846 940 q 869 931 868 940 q 871 914 871 922 q 879 906 871 906 q 897 924 897 906 q 887 945 897 935 q 856 956 876 956 q 792 909 831 956 q 717 792 754 863 l 672 792 q 653 788 663 792 q 644 776 644 785 q 656 756 644 767 q 690 740 667 744 q 631 581 654 664 q 607 428 607 499 q 640 306 607 354 q 757 258 674 258 q 894 299 826 258 q 1019 399 961 340 q 1038 349 1028 372 q 1062 306 1049 325 q 1093 276 1075 288 q 1136 265 1111 265 z "},"":{"ha":1319,"x_min":58,"x_max":1258,"o":"m 1136 265 q 1183 282 1161 265 q 1219 319 1204 299 q 1253 374 1238 343 q 1215 297 1239 332 q 1165 242 1196 268 q 1092 211 1135 217 q 914 93 1015 136 q 697 50 813 50 q 478 94 581 50 q 299 215 375 139 q 179 392 224 290 q 135 611 135 494 q 138 665 135 639 q 144 717 140 692 q 58 643 100 685 q 82 681 63 651 q 133 751 101 711 q 207 836 164 792 q 304 917 250 881 q 422 978 358 954 q 560 1003 486 1003 q 618 991 600 1003 q 636 958 636 979 q 611 889 636 931 q 549 797 586 847 q 469 689 513 746 q 388 574 425 632 q 326 459 351 515 q 301 353 301 403 q 325 286 301 313 q 388 260 349 260 q 420 267 404 260 q 448 285 436 274 q 467 311 460 297 q 475 339 475 325 q 468 346 475 346 q 453 344 464 344 q 426 353 439 344 q 413 394 413 363 q 433 478 413 431 q 486 577 454 525 q 554 683 518 629 q 622 788 590 738 q 675 880 654 838 q 696 953 696 922 q 669 1016 696 988 q 585 1044 643 1044 q 467 1028 524 1044 q 359 985 410 1013 q 265 920 308 957 q 183 842 221 883 q 269 976 217 915 q 388 1081 321 1038 q 533 1149 454 1125 q 697 1174 611 1174 q 916 1129 814 1174 q 1094 1009 1018 1085 q 1214 831 1169 933 q 1258 611 1258 728 q 1239 464 1258 535 q 1183 331 1219 393 q 1154 324 1165 324 q 1085 354 1108 324 q 1049 429 1061 385 q 1133 533 1096 481 q 1194 629 1171 586 q 1199 642 1199 638 q 1196 646 1199 646 q 1185 635 1190 646 q 1121 539 1157 585 q 1042 454 1085 493 q 1026 527 1033 490 q 1009 594 1019 564 q 982 644 999 625 q 938 663 965 663 q 903 655 918 663 q 878 635 889 647 q 862 612 868 624 q 853 592 856 600 q 857 586 853 586 q 916 572 892 586 q 958 536 940 558 q 987 485 975 514 q 1010 428 999 457 q 894 358 953 383 q 782 332 835 332 q 711 370 732 332 q 690 467 690 408 q 708 600 690 528 q 749 739 725 672 q 853 748 793 742 q 978 761 914 754 q 1101 773 1042 768 q 1200 778 1160 778 q 1215 785 1215 778 q 1201 790 1215 790 q 1099 790 1144 790 q 1007 791 1054 790 q 904 792 960 792 q 769 792 849 792 q 821 898 796 856 q 861 940 846 940 q 869 931 868 940 q 871 914 871 922 q 879 906 871 906 q 897 924 897 906 q 887 945 897 935 q 856 956 876 956 q 792 909 831 956 q 717 792 754 863 l 672 792 q 653 788 663 792 q 644 776 644 785 q 656 756 644 767 q 690 740 667 744 q 631 581 654 664 q 607 428 607 499 q 640 306 607 354 q 757 258 674 258 q 894 299 826 258 q 1019 399 961 340 q 1038 349 1028 372 q 1062 306 1049 325 q 1093 276 1075 288 q 1136 265 1111 265 z "},"":{"ha":1319,"x_min":58,"x_max":1258,"o":"m 1136 265 q 1183 282 1161 265 q 1219 319 1204 299 q 1253 374 1238 343 q 1215 297 1239 332 q 1165 242 1196 268 q 1092 211 1135 217 q 914 93 1015 136 q 697 50 813 50 q 478 94 581 50 q 299 215 375 139 q 179 392 224 290 q 135 611 135 494 q 138 665 135 639 q 144 717 140 692 q 58 643 100 685 q 82 681 63 651 q 133 751 101 711 q 207 836 164 792 q 304 917 250 881 q 422 978 358 954 q 560 1003 486 1003 q 618 991 600 1003 q 636 958 636 979 q 611 889 636 931 q 549 797 586 847 q 469 689 513 746 q 388 574 425 632 q 326 459 351 515 q 301 353 301 403 q 325 286 301 313 q 388 260 349 260 q 420 267 404 260 q 448 285 436 274 q 467 311 460 297 q 475 339 475 325 q 468 346 475 346 q 453 344 464 344 q 426 353 439 344 q 413 394 413 363 q 433 478 413 431 q 486 577 454 525 q 554 683 518 629 q 622 788 590 738 q 675 880 654 838 q 696 953 696 922 q 669 1016 696 988 q 585 1044 643 1044 q 467 1028 524 1044 q 359 985 410 1013 q 265 920 308 957 q 183 842 221 883 q 269 976 217 915 q 388 1081 321 1038 q 533 1149 454 1125 q 697 1174 611 1174 q 916 1129 814 1174 q 1094 1009 1018 1085 q 1214 831 1169 933 q 1258 611 1258 728 q 1239 464 1258 535 q 1183 331 1219 393 q 1154 324 1165 324 q 1085 354 1108 324 q 1049 429 1061 385 q 1133 533 1096 481 q 1194 629 1171 586 q 1199 642 1199 638 q 1196 646 1199 646 q 1185 635 1190 646 q 1121 539 1157 585 q 1042 454 1085 493 q 1026 527 1033 490 q 1009 594 1019 564 q 982 644 999 625 q 938 663 965 663 q 903 655 918 663 q 878 635 889 647 q 862 612 868 624 q 853 592 856 600 q 857 586 853 586 q 916 572 892 586 q 958 536 940 558 q 987 485 975 514 q 1010 428 999 457 q 894 358 953 383 q 782 332 835 332 q 711 370 732 332 q 690 467 690 408 q 708 600 690 528 q 749 739 725 672 q 853 748 793 742 q 978 761 914 754 q 1101 773 1042 768 q 1200 778 1160 778 q 1215 785 1215 778 q 1201 790 1215 790 q 1099 790 1144 790 q 1007 791 1054 790 q 904 792 960 792 q 769 792 849 792 q 821 898 796 856 q 861 940 846 940 q 869 931 868 940 q 871 914 871 922 q 879 906 871 906 q 897 924 897 906 q 887 945 897 935 q 856 956 876 956 q 792 909 831 956 q 717 792 754 863 l 672 792 q 653 788 663 792 q 644 776 644 785 q 656 756 644 767 q 690 740 667 744 q 631 581 654 664 q 607 428 607 499 q 640 306 607 354 q 757 258 674 258 q 894 299 826 258 q 1019 399 961 340 q 1038 349 1028 372 q 1062 306 1049 325 q 1093 276 1075 288 q 1136 265 1111 265 z "},"":{"ha":1319,"x_min":58,"x_max":1258,"o":"m 1136 265 q 1183 282 1161 265 q 1219 319 1204 299 q 1253 374 1238 343 q 1215 297 1239 332 q 1165 242 1196 268 q 1092 211 1135 217 q 914 93 1015 136 q 697 50 813 50 q 478 94 581 50 q 299 215 375 139 q 179 392 224 290 q 135 611 135 494 q 138 665 135 639 q 144 717 140 692 q 58 643 100 685 q 82 681 63 651 q 133 751 101 711 q 207 836 164 792 q 304 917 250 881 q 422 978 358 954 q 560 1003 486 1003 q 618 991 600 1003 q 636 958 636 979 q 611 889 636 931 q 549 797 586 847 q 469 689 513 746 q 388 574 425 632 q 326 459 351 515 q 301 353 301 403 q 325 286 301 313 q 388 260 349 260 q 420 267 404 260 q 448 285 436 274 q 467 311 460 297 q 475 339 475 325 q 468 346 475 346 q 453 344 464 344 q 426 353 439 344 q 413 394 413 363 q 433 478 413 431 q 486 577 454 525 q 554 683 518 629 q 622 788 590 738 q 675 880 654 838 q 696 953 696 922 q 669 1016 696 988 q 585 1044 643 1044 q 467 1028 524 1044 q 359 985 410 1013 q 265 920 308 957 q 183 842 221 883 q 269 976 217 915 q 388 1081 321 1038 q 533 1149 454 1125 q 697 1174 611 1174 q 916 1129 814 1174 q 1094 1009 1018 1085 q 1214 831 1169 933 q 1258 611 1258 728 q 1239 464 1258 535 q 1183 331 1219 393 q 1154 324 1165 324 q 1085 354 1108 324 q 1049 429 1061 385 q 1133 533 1096 481 q 1194 629 1171 586 q 1199 642 1199 638 q 1196 646 1199 646 q 1185 635 1190 646 q 1121 539 1157 585 q 1042 454 1085 493 q 1026 527 1033 490 q 1009 594 1019 564 q 982 644 999 625 q 938 663 965 663 q 903 655 918 663 q 878 635 889 647 q 862 612 868 624 q 853 592 856 600 q 857 586 853 586 q 916 572 892 586 q 958 536 940 558 q 987 485 975 514 q 1010 428 999 457 q 894 358 953 383 q 782 332 835 332 q 711 370 732 332 q 690 467 690 408 q 708 600 690 528 q 749 739 725 672 q 853 748 793 742 q 978 761 914 754 q 1101 773 1042 768 q 1200 778 1160 778 q 1215 785 1215 778 q 1201 790 1215 790 q 1099 790 1144 790 q 1007 791 1054 790 q 904 792 960 792 q 769 792 849 792 q 821 898 796 856 q 861 940 846 940 q 869 931 868 940 q 871 914 871 922 q 879 906 871 906 q 897 924 897 906 q 887 945 897 935 q 856 956 876 956 q 792 909 831 956 q 717 792 754 863 l 672 792 q 653 788 663 792 q 644 776 644 785 q 656 756 644 767 q 690 740 667 744 q 631 581 654 664 q 607 428 607 499 q 640 306 607 354 q 757 258 674 258 q 894 299 826 258 q 1019 399 961 340 q 1038 349 1028 372 q 1062 306 1049 325 q 1093 276 1075 288 q 1136 265 1111 265 z "},"":{"ha":1319,"x_min":58,"x_max":1258,"o":"m 1136 265 q 1183 282 1161 265 q 1219 319 1204 299 q 1253 374 1238 343 q 1215 297 1239 332 q 1165 242 1196 268 q 1092 211 1135 217 q 914 93 1015 136 q 697 50 813 50 q 478 94 581 50 q 299 215 375 139 q 179 392 224 290 q 135 611 135 494 q 138 665 135 639 q 144 717 140 692 q 58 643 100 685 q 82 681 63 651 q 133 751 101 711 q 207 836 164 792 q 304 917 250 881 q 422 978 358 954 q 560 1003 486 1003 q 618 991 600 1003 q 636 958 636 979 q 611 889 636 931 q 549 797 586 847 q 469 689 513 746 q 388 574 425 632 q 326 459 351 515 q 301 353 301 403 q 325 286 301 313 q 388 260 349 260 q 420 267 404 260 q 448 285 436 274 q 467 311 460 297 q 475 339 475 325 q 468 346 475 346 q 453 344 464 344 q 426 353 439 344 q 413 394 413 363 q 433 478 413 431 q 486 577 454 525 q 554 683 518 629 q 622 788 590 738 q 675 880 654 838 q 696 953 696 922 q 669 1016 696 988 q 585 1044 643 1044 q 467 1028 524 1044 q 359 985 410 1013 q 265 920 308 957 q 183 842 221 883 q 269 976 217 915 q 388 1081 321 1038 q 533 1149 454 1125 q 697 1174 611 1174 q 916 1129 814 1174 q 1094 1009 1018 1085 q 1214 831 1169 933 q 1258 611 1258 728 q 1239 464 1258 535 q 1183 331 1219 393 q 1154 324 1165 324 q 1085 354 1108 324 q 1049 429 1061 385 q 1133 533 1096 481 q 1194 629 1171 586 q 1199 642 1199 638 q 1196 646 1199 646 q 1185 635 1190 646 q 1121 539 1157 585 q 1042 454 1085 493 q 1026 527 1033 490 q 1009 594 1019 564 q 982 644 999 625 q 938 663 965 663 q 903 655 918 663 q 878 635 889 647 q 862 612 868 624 q 853 592 856 600 q 857 586 853 586 q 916 572 892 586 q 958 536 940 558 q 987 485 975 514 q 1010 428 999 457 q 894 358 953 383 q 782 332 835 332 q 711 370 732 332 q 690 467 690 408 q 708 600 690 528 q 749 739 725 672 q 853 748 793 742 q 978 761 914 754 q 1101 773 1042 768 q 1200 778 1160 778 q 1215 785 1215 778 q 1201 790 1215 790 q 1099 790 1144 790 q 1007 791 1054 790 q 904 792 960 792 q 769 792 849 792 q 821 898 796 856 q 861 940 846 940 q 869 931 868 940 q 871 914 871 922 q 879 906 871 906 q 897 924 897 906 q 887 945 897 935 q 856 956 876 956 q 792 909 831 956 q 717 792 754 863 l 672 792 q 653 788 663 792 q 644 776 644 785 q 656 756 644 767 q 690 740 667 744 q 631 581 654 664 q 607 428 607 499 q 640 306 607 354 q 757 258 674 258 q 894 299 826 258 q 1019 399 961 340 q 1038 349 1028 372 q 1062 306 1049 325 q 1093 276 1075 288 q 1136 265 1111 265 z "},"":{"ha":1319,"x_min":58,"x_max":1258,"o":"m 1136 265 q 1183 282 1161 265 q 1219 319 1204 299 q 1253 374 1238 343 q 1215 297 1239 332 q 1165 242 1196 268 q 1092 211 1135 217 q 914 93 1015 136 q 697 50 813 50 q 478 94 581 50 q 299 215 375 139 q 179 392 224 290 q 135 611 135 494 q 138 665 135 639 q 144 717 140 692 q 58 643 100 685 q 82 681 63 651 q 133 751 101 711 q 207 836 164 792 q 304 917 250 881 q 422 978 358 954 q 560 1003 486 1003 q 618 991 600 1003 q 636 958 636 979 q 611 889 636 931 q 549 797 586 847 q 469 689 513 746 q 388 574 425 632 q 326 459 351 515 q 301 353 301 403 q 325 286 301 313 q 388 260 349 260 q 420 267 404 260 q 448 285 436 274 q 467 311 460 297 q 475 339 475 325 q 468 346 475 346 q 453 344 464 344 q 426 353 439 344 q 413 394 413 363 q 433 478 413 431 q 486 577 454 525 q 554 683 518 629 q 622 788 590 738 q 675 880 654 838 q 696 953 696 922 q 669 1016 696 988 q 585 1044 643 1044 q 467 1028 524 1044 q 359 985 410 1013 q 265 920 308 957 q 183 842 221 883 q 269 976 217 915 q 388 1081 321 1038 q 533 1149 454 1125 q 697 1174 611 1174 q 916 1129 814 1174 q 1094 1009 1018 1085 q 1214 831 1169 933 q 1258 611 1258 728 q 1239 464 1258 535 q 1183 331 1219 393 q 1154 324 1165 324 q 1085 354 1108 324 q 1049 429 1061 385 q 1133 533 1096 481 q 1194 629 1171 586 q 1199 642 1199 638 q 1196 646 1199 646 q 1185 635 1190 646 q 1121 539 1157 585 q 1042 454 1085 493 q 1026 527 1033 490 q 1009 594 1019 564 q 982 644 999 625 q 938 663 965 663 q 903 655 918 663 q 878 635 889 647 q 862 612 868 624 q 853 592 856 600 q 857 586 853 586 q 916 572 892 586 q 958 536 940 558 q 987 485 975 514 q 1010 428 999 457 q 894 358 953 383 q 782 332 835 332 q 711 370 732 332 q 690 467 690 408 q 708 600 690 528 q 749 739 725 672 q 853 748 793 742 q 978 761 914 754 q 1101 773 1042 768 q 1200 778 1160 778 q 1215 785 1215 778 q 1201 790 1215 790 q 1099 790 1144 790 q 1007 791 1054 790 q 904 792 960 792 q 769 792 849 792 q 821 898 796 856 q 861 940 846 940 q 869 931 868 940 q 871 914 871 922 q 879 906 871 906 q 897 924 897 906 q 887 945 897 935 q 856 956 876 956 q 792 909 831 956 q 717 792 754 863 l 672 792 q 653 788 663 792 q 644 776 644 785 q 656 756 644 767 q 690 740 667 744 q 631 581 654 664 q 607 428 607 499 q 640 306 607 354 q 757 258 674 258 q 894 299 826 258 q 1019 399 961 340 q 1038 349 1028 372 q 1062 306 1049 325 q 1093 276 1075 288 q 1136 265 1111 265 z "},"":{"ha":1319,"x_min":58,"x_max":1258,"o":"m 1136 265 q 1183 282 1161 265 q 1219 319 1204 299 q 1253 374 1238 343 q 1215 297 1239 332 q 1165 242 1196 268 q 1092 211 1135 217 q 914 93 1015 136 q 697 50 813 50 q 478 94 581 50 q 299 215 375 139 q 179 392 224 290 q 135 611 135 494 q 138 665 135 639 q 144 717 140 692 q 58 643 100 685 q 82 681 63 651 q 133 751 101 711 q 207 836 164 792 q 304 917 250 881 q 422 978 358 954 q 560 1003 486 1003 q 618 991 600 1003 q 636 958 636 979 q 611 889 636 931 q 549 797 586 847 q 469 689 513 746 q 388 574 425 632 q 326 459 351 515 q 301 353 301 403 q 325 286 301 313 q 388 260 349 260 q 420 267 404 260 q 448 285 436 274 q 467 311 460 297 q 475 339 475 325 q 468 346 475 346 q 453 344 464 344 q 426 353 439 344 q 413 394 413 363 q 433 478 413 431 q 486 577 454 525 q 554 683 518 629 q 622 788 590 738 q 675 880 654 838 q 696 953 696 922 q 669 1016 696 988 q 585 1044 643 1044 q 467 1028 524 1044 q 359 985 410 1013 q 265 920 308 957 q 183 842 221 883 q 269 976 217 915 q 388 1081 321 1038 q 533 1149 454 1125 q 697 1174 611 1174 q 916 1129 814 1174 q 1094 1009 1018 1085 q 1214 831 1169 933 q 1258 611 1258 728 q 1239 464 1258 535 q 1183 331 1219 393 q 1154 324 1165 324 q 1085 354 1108 324 q 1049 429 1061 385 q 1133 533 1096 481 q 1194 629 1171 586 q 1199 642 1199 638 q 1196 646 1199 646 q 1185 635 1190 646 q 1121 539 1157 585 q 1042 454 1085 493 q 1026 527 1033 490 q 1009 594 1019 564 q 982 644 999 625 q 938 663 965 663 q 903 655 918 663 q 878 635 889 647 q 862 612 868 624 q 853 592 856 600 q 857 586 853 586 q 916 572 892 586 q 958 536 940 558 q 987 485 975 514 q 1010 428 999 457 q 894 358 953 383 q 782 332 835 332 q 711 370 732 332 q 690 467 690 408 q 708 600 690 528 q 749 739 725 672 q 853 748 793 742 q 978 761 914 754 q 1101 773 1042 768 q 1200 778 1160 778 q 1215 785 1215 778 q 1201 790 1215 790 q 1099 790 1144 790 q 1007 791 1054 790 q 904 792 960 792 q 769 792 849 792 q 821 898 796 856 q 861 940 846 940 q 869 931 868 940 q 871 914 871 922 q 879 906 871 906 q 897 924 897 906 q 887 945 897 935 q 856 956 876 956 q 792 909 831 956 q 717 792 754 863 l 672 792 q 653 788 663 792 q 644 776 644 785 q 656 756 644 767 q 690 740 667 744 q 631 581 654 664 q 607 428 607 499 q 640 306 607 354 q 757 258 674 258 q 894 299 826 258 q 1019 399 961 340 q 1038 349 1028 372 q 1062 306 1049 325 q 1093 276 1075 288 q 1136 265 1111 265 z "},"":{"ha":1319,"x_min":58,"x_max":1258,"o":"m 1136 265 q 1183 282 1161 265 q 1219 319 1204 299 q 1253 374 1238 343 q 1215 297 1239 332 q 1165 242 1196 268 q 1092 211 1135 217 q 914 93 1015 136 q 697 50 813 50 q 478 94 581 50 q 299 215 375 139 q 179 392 224 290 q 135 611 135 494 q 138 665 135 639 q 144 717 140 692 q 58 643 100 685 q 82 681 63 651 q 133 751 101 711 q 207 836 164 792 q 304 917 250 881 q 422 978 358 954 q 560 1003 486 1003 q 618 991 600 1003 q 636 958 636 979 q 611 889 636 931 q 549 797 586 847 q 469 689 513 746 q 388 574 425 632 q 326 459 351 515 q 301 353 301 403 q 325 286 301 313 q 388 260 349 260 q 420 267 404 260 q 448 285 436 274 q 467 311 460 297 q 475 339 475 325 q 468 346 475 346 q 453 344 464 344 q 426 353 439 344 q 413 394 413 363 q 433 478 413 431 q 486 577 454 525 q 554 683 518 629 q 622 788 590 738 q 675 880 654 838 q 696 953 696 922 q 669 1016 696 988 q 585 1044 643 1044 q 467 1028 524 1044 q 359 985 410 1013 q 265 920 308 957 q 183 842 221 883 q 269 976 217 915 q 388 1081 321 1038 q 533 1149 454 1125 q 697 1174 611 1174 q 916 1129 814 1174 q 1094 1009 1018 1085 q 1214 831 1169 933 q 1258 611 1258 728 q 1239 464 1258 535 q 1183 331 1219 393 q 1154 324 1165 324 q 1085 354 1108 324 q 1049 429 1061 385 q 1133 533 1096 481 q 1194 629 1171 586 q 1199 642 1199 638 q 1196 646 1199 646 q 1185 635 1190 646 q 1121 539 1157 585 q 1042 454 1085 493 q 1026 527 1033 490 q 1009 594 1019 564 q 982 644 999 625 q 938 663 965 663 q 903 655 918 663 q 878 635 889 647 q 862 612 868 624 q 853 592 856 600 q 857 586 853 586 q 916 572 892 586 q 958 536 940 558 q 987 485 975 514 q 1010 428 999 457 q 894 358 953 383 q 782 332 835 332 q 711 370 732 332 q 690 467 690 408 q 708 600 690 528 q 749 739 725 672 q 853 748 793 742 q 978 761 914 754 q 1101 773 1042 768 q 1200 778 1160 778 q 1215 785 1215 778 q 1201 790 1215 790 q 1099 790 1144 790 q 1007 791 1054 790 q 904 792 960 792 q 769 792 849 792 q 821 898 796 856 q 861 940 846 940 q 869 931 868 940 q 871 914 871 922 q 879 906 871 906 q 897 924 897 906 q 887 945 897 935 q 856 956 876 956 q 792 909 831 956 q 717 792 754 863 l 672 792 q 653 788 663 792 q 644 776 644 785 q 656 756 644 767 q 690 740 667 744 q 631 581 654 664 q 607 428 607 499 q 640 306 607 354 q 757 258 674 258 q 894 299 826 258 q 1019 399 961 340 q 1038 349 1028 372 q 1062 306 1049 325 q 1093 276 1075 288 q 1136 265 1111 265 z "},"":{"ha":1319,"x_min":58,"x_max":1258,"o":"m 1136 265 q 1183 282 1161 265 q 1219 319 1204 299 q 1253 374 1238 343 q 1215 297 1239 332 q 1165 242 1196 268 q 1092 211 1135 217 q 914 93 1015 136 q 697 50 813 50 q 478 94 581 50 q 299 215 375 139 q 179 392 224 290 q 135 611 135 494 q 138 665 135 639 q 144 717 140 692 q 58 643 100 685 q 82 681 63 651 q 133 751 101 711 q 207 836 164 792 q 304 917 250 881 q 422 978 358 954 q 560 1003 486 1003 q 618 991 600 1003 q 636 958 636 979 q 611 889 636 931 q 549 797 586 847 q 469 689 513 746 q 388 574 425 632 q 326 459 351 515 q 301 353 301 403 q 325 286 301 313 q 388 260 349 260 q 420 267 404 260 q 448 285 436 274 q 467 311 460 297 q 475 339 475 325 q 468 346 475 346 q 453 344 464 344 q 426 353 439 344 q 413 394 413 363 q 433 478 413 431 q 486 577 454 525 q 554 683 518 629 q 622 788 590 738 q 675 880 654 838 q 696 953 696 922 q 669 1016 696 988 q 585 1044 643 1044 q 467 1028 524 1044 q 359 985 410 1013 q 265 920 308 957 q 183 842 221 883 q 269 976 217 915 q 388 1081 321 1038 q 533 1149 454 1125 q 697 1174 611 1174 q 916 1129 814 1174 q 1094 1009 1018 1085 q 1214 831 1169 933 q 1258 611 1258 728 q 1239 464 1258 535 q 1183 331 1219 393 q 1154 324 1165 324 q 1085 354 1108 324 q 1049 429 1061 385 q 1133 533 1096 481 q 1194 629 1171 586 q 1199 642 1199 638 q 1196 646 1199 646 q 1185 635 1190 646 q 1121 539 1157 585 q 1042 454 1085 493 q 1026 527 1033 490 q 1009 594 1019 564 q 982 644 999 625 q 938 663 965 663 q 903 655 918 663 q 878 635 889 647 q 862 612 868 624 q 853 592 856 600 q 857 586 853 586 q 916 572 892 586 q 958 536 940 558 q 987 485 975 514 q 1010 428 999 457 q 894 358 953 383 q 782 332 835 332 q 711 370 732 332 q 690 467 690 408 q 708 600 690 528 q 749 739 725 672 q 853 748 793 742 q 978 761 914 754 q 1101 773 1042 768 q 1200 778 1160 778 q 1215 785 1215 778 q 1201 790 1215 790 q 1099 790 1144 790 q 1007 791 1054 790 q 904 792 960 792 q 769 792 849 792 q 821 898 796 856 q 861 940 846 940 q 869 931 868 940 q 871 914 871 922 q 879 906 871 906 q 897 924 897 906 q 887 945 897 935 q 856 956 876 956 q 792 909 831 956 q 717 792 754 863 l 672 792 q 653 788 663 792 q 644 776 644 785 q 656 756 644 767 q 690 740 667 744 q 631 581 654 664 q 607 428 607 499 q 640 306 607 354 q 757 258 674 258 q 894 299 826 258 q 1019 399 961 340 q 1038 349 1028 372 q 1062 306 1049 325 q 1093 276 1075 288 q 1136 265 1111 265 z "},"":{"ha":1319,"x_min":58,"x_max":1258,"o":"m 1136 265 q 1183 282 1161 265 q 1219 319 1204 299 q 1253 374 1238 343 q 1215 297 1239 332 q 1165 242 1196 268 q 1092 211 1135 217 q 914 93 1015 136 q 697 50 813 50 q 478 94 581 50 q 299 215 375 139 q 179 392 224 290 q 135 611 135 494 q 138 665 135 639 q 144 717 140 692 q 58 643 100 685 q 82 681 63 651 q 133 751 101 711 q 207 836 164 792 q 304 917 250 881 q 422 978 358 954 q 560 1003 486 1003 q 618 991 600 1003 q 636 958 636 979 q 611 889 636 931 q 549 797 586 847 q 469 689 513 746 q 388 574 425 632 q 326 459 351 515 q 301 353 301 403 q 325 286 301 313 q 388 260 349 260 q 420 267 404 260 q 448 285 436 274 q 467 311 460 297 q 475 339 475 325 q 468 346 475 346 q 453 344 464 344 q 426 353 439 344 q 413 394 413 363 q 433 478 413 431 q 486 577 454 525 q 554 683 518 629 q 622 788 590 738 q 675 880 654 838 q 696 953 696 922 q 669 1016 696 988 q 585 1044 643 1044 q 467 1028 524 1044 q 359 985 410 1013 q 265 920 308 957 q 183 842 221 883 q 269 976 217 915 q 388 1081 321 1038 q 533 1149 454 1125 q 697 1174 611 1174 q 916 1129 814 1174 q 1094 1009 1018 1085 q 1214 831 1169 933 q 1258 611 1258 728 q 1239 464 1258 535 q 1183 331 1219 393 q 1154 324 1165 324 q 1085 354 1108 324 q 1049 429 1061 385 q 1133 533 1096 481 q 1194 629 1171 586 q 1199 642 1199 638 q 1196 646 1199 646 q 1185 635 1190 646 q 1121 539 1157 585 q 1042 454 1085 493 q 1026 527 1033 490 q 1009 594 1019 564 q 982 644 999 625 q 938 663 965 663 q 903 655 918 663 q 878 635 889 647 q 862 612 868 624 q 853 592 856 600 q 857 586 853 586 q 916 572 892 586 q 958 536 940 558 q 987 485 975 514 q 1010 428 999 457 q 894 358 953 383 q 782 332 835 332 q 711 370 732 332 q 690 467 690 408 q 708 600 690 528 q 749 739 725 672 q 853 748 793 742 q 978 761 914 754 q 1101 773 1042 768 q 1200 778 1160 778 q 1215 785 1215 778 q 1201 790 1215 790 q 1099 790 1144 790 q 1007 791 1054 790 q 904 792 960 792 q 769 792 849 792 q 821 898 796 856 q 861 940 846 940 q 869 931 868 940 q 871 914 871 922 q 879 906 871 906 q 897 924 897 906 q 887 945 897 935 q 856 956 876 956 q 792 909 831 956 q 717 792 754 863 l 672 792 q 653 788 663 792 q 644 776 644 785 q 656 756 644 767 q 690 740 667 744 q 631 581 654 664 q 607 428 607 499 q 640 306 607 354 q 757 258 674 258 q 894 299 826 258 q 1019 399 961 340 q 1038 349 1028 372 q 1062 306 1049 325 q 1093 276 1075 288 q 1136 265 1111 265 z "},"":{"ha":1319,"x_min":58,"x_max":1258,"o":"m 1136 265 q 1183 282 1161 265 q 1219 319 1204 299 q 1253 374 1238 343 q 1215 297 1239 332 q 1165 242 1196 268 q 1092 211 1135 217 q 914 93 1015 136 q 697 50 813 50 q 478 94 581 50 q 299 215 375 139 q 179 392 224 290 q 135 611 135 494 q 138 665 135 639 q 144 717 140 692 q 58 643 100 685 q 82 681 63 651 q 133 751 101 711 q 207 836 164 792 q 304 917 250 881 q 422 978 358 954 q 560 1003 486 1003 q 618 991 600 1003 q 636 958 636 979 q 611 889 636 931 q 549 797 586 847 q 469 689 513 746 q 388 574 425 632 q 326 459 351 515 q 301 353 301 403 q 325 286 301 313 q 388 260 349 260 q 420 267 404 260 q 448 285 436 274 q 467 311 460 297 q 475 339 475 325 q 468 346 475 346 q 453 344 464 344 q 426 353 439 344 q 413 394 413 363 q 433 478 413 431 q 486 577 454 525 q 554 683 518 629 q 622 788 590 738 q 675 880 654 838 q 696 953 696 922 q 669 1016 696 988 q 585 1044 643 1044 q 467 1028 524 1044 q 359 985 410 1013 q 265 920 308 957 q 183 842 221 883 q 269 976 217 915 q 388 1081 321 1038 q 533 1149 454 1125 q 697 1174 611 1174 q 916 1129 814 1174 q 1094 1009 1018 1085 q 1214 831 1169 933 q 1258 611 1258 728 q 1239 464 1258 535 q 1183 331 1219 393 q 1154 324 1165 324 q 1085 354 1108 324 q 1049 429 1061 385 q 1133 533 1096 481 q 1194 629 1171 586 q 1199 642 1199 638 q 1196 646 1199 646 q 1185 635 1190 646 q 1121 539 1157 585 q 1042 454 1085 493 q 1026 527 1033 490 q 1009 594 1019 564 q 982 644 999 625 q 938 663 965 663 q 903 655 918 663 q 878 635 889 647 q 862 612 868 624 q 853 592 856 600 q 857 586 853 586 q 916 572 892 586 q 958 536 940 558 q 987 485 975 514 q 1010 428 999 457 q 894 358 953 383 q 782 332 835 332 q 711 370 732 332 q 690 467 690 408 q 708 600 690 528 q 749 739 725 672 q 853 748 793 742 q 978 761 914 754 q 1101 773 1042 768 q 1200 778 1160 778 q 1215 785 1215 778 q 1201 790 1215 790 q 1099 790 1144 790 q 1007 791 1054 790 q 904 792 960 792 q 769 792 849 792 q 821 898 796 856 q 861 940 846 940 q 869 931 868 940 q 871 914 871 922 q 879 906 871 906 q 897 924 897 906 q 887 945 897 935 q 856 956 876 956 q 792 909 831 956 q 717 792 754 863 l 672 792 q 653 788 663 792 q 644 776 644 785 q 656 756 644 767 q 690 740 667 744 q 631 581 654 664 q 607 428 607 499 q 640 306 607 354 q 757 258 674 258 q 894 299 826 258 q 1019 399 961 340 q 1038 349 1028 372 q 1062 306 1049 325 q 1093 276 1075 288 q 1136 265 1111 265 z "}}}
